<?xml version="1.0" standalone="no"?>
<!DOCTYPE svg PUBLIC "-//W3C//DTD SVG 1.1//EN" "http://www.w3.org/Graphics/SVG/1.1/DTD/svg11.dtd" >
<svg xmlns="http://www.w3.org/2000/svg">
<metadata></metadata>
<defs>
<font id="nothing_you_could_doregular" horiz-adv-x="1520" >
<font-face units-per-em="2048" ascent="1638" descent="-410" />
<missing-glyph horiz-adv-x="1344" />
<glyph horiz-adv-x="0" />
<glyph unicode="&#xd;" horiz-adv-x="1024" />
<glyph unicode=" "  horiz-adv-x="1344" />
<glyph unicode="&#x09;" horiz-adv-x="1344" />
<glyph unicode="&#xa0;" horiz-adv-x="1344" />
<glyph unicode="!" horiz-adv-x="664" d="M28 58q-20 30 -3 65t46 58t59 25t40 -36q8 -36 0 -77t-29 -66t-51 -22t-62 53zM170 762q-6 16 4 76t31 146t51 191t65 210t72 202t74 169t71 111t60 25q2 -14 -10 -85t-34 -174t-53 -228t-66 -245t-72 -224t-72 -166t-66 -70t-55 62z" />
<glyph unicode="&#x22;" horiz-adv-x="710" d="M462 1022q-6 10 -17 31t-11 25v424q48 24 74 -1t36 -77t8 -122t-12 -134t-23 -113t-25 -61q-4 2 -16 13t-14 15zM180 1078q-12 34 -18 87t-9 109t-3 109t2 89q0 28 8 32t21 -8t27 -34t27 -44t21 -39t8 -19q2 -32 3 -84t1 -102t-1 -86t-3 -38l-28 -28q-4 2 -13 9t-18 16 t-16 17t-9 14z" />
<glyph unicode="#" horiz-adv-x="1722" d="M804 28q-8 46 3 100t23 107t17 102t-13 87q-8 16 -21 23t-28 9t-32 0t-33 -4q-68 -10 -103 -39t-51 -69t-21 -86t-14 -89t-28 -81t-65 -60q-44 30 -52 71t-1 87t19 93t6 87q-6 0 -57 -6t-113 -5t-119 15t-77 54q-12 24 30 39t110 32t147 42t143 67t97 107t9 165 q-26 2 -70 -5t-95 -16t-104 -15t-98 0t-76 27t-37 65q62 26 129 44t136 33t137 29t134 36l36 66t52 89t55 77t44 31t22 -47t-11 -160q78 -14 126 16t76 79t42 105t26 95t27 48t43 -33q20 -32 21 -66t-5 -69t-13 -71t-3 -74q48 -4 115 -5t136 -1t131 1t102 -2t47 -11t-35 -23 t-140 -40t-272 -61q-76 -16 -133 -70t-87 -115t-27 -115t49 -68q8 -4 57 4t115 19t139 19t130 5t87 -20t10 -57t-71 -57t-116 -23t-136 -5t-133 -5t-108 -22t-60 -56q-6 -28 -14 -92t-23 -136t-40 -135t-63 -89q-4 2 -16 12t-14 16zM664 706q0 -6 -1 -22t-1 -34t1 -34t1 -22 q92 -14 142 10t75 72t37 115t28 141q-18 56 -46 63t-59 -16t-62 -66t-56 -87t-41 -79t-18 -41z" />
<glyph unicode="$" horiz-adv-x="1186" d="M212 28q-8 54 2 109t25 103t24 88t-4 66t-55 34t-132 -4q-30 22 -30 56t30 56q10 0 38 4t60 9t60 10t38 7q8 2 23 6t28 8t24 8t11 6l142 396q10 30 -16 55t-67 51t-88 53t-79 61t-38 76t34 98q26 36 77 53t109 29t115 24t93 36q14 10 31 49t36 88t41 98t45 78t48 26 t53 -57q12 -24 7 -52t-14 -58t-17 -60t-4 -56h254q6 0 16 -11t12 -17q0 -6 1 -18t1 -26t-1 -26t-1 -16q-90 -6 -173 -17t-144 -44t-92 -98t-15 -179q186 -68 275 -130t106 -121t-23 -112t-112 -100t-161 -88t-168 -75t-136 -61t-63 -47l-112 -338q-2 -6 -18 -23t-35 -29 t-37 -10t-24 32zM550 620q56 -10 119 9t121 54t107 80t77 85q-2 42 -30 76t-70 52t-93 15t-97 -33t-83 -91t-51 -161v-86zM410 1214q70 -48 108 -41t50 40t2 76t-37 68t-66 17t-85 -76q-18 -26 -4 -49t32 -35z" />
<glyph unicode="%" horiz-adv-x="820" d="M58 130q-4 6 -16 27t-14 27q72 158 156 308t170 299t169 300t155 307q46 16 64 -1t20 -48t-8 -65t-18 -54q-66 -142 -140 -280t-151 -274l-154 -272t-149 -274q-28 -38 -48 -33t-36 33zM566 300q-16 48 8 67t56 14t52 -33t-4 -78q-10 -4 -27 -6t-34 0t-31 10t-20 26z M58 130q-4 6 -16 27t-14 27q72 158 156 308t170 299t169 300t155 307q46 16 64 -1t20 -48t-8 -65t-18 -54q-66 -142 -140 -280t-151 -274l-154 -272t-149 -274q-28 -38 -48 -33t-36 33zM566 300q-16 48 8 67t56 14t52 -33t-4 -78q-10 -4 -27 -6t-34 0t-31 10t-20 26z M164 1214q-16 48 8 68t56 15t52 -34t-4 -77q-10 -4 -27 -6t-34 0t-31 9t-20 25q-16 48 8 68t56 15t52 -34t-4 -77q-10 -4 -27 -6t-34 0t-31 9t-20 25z" />
<glyph unicode="&#x26;" horiz-adv-x="960" d="M270 -146q-16 14 -19 53t1 91t13 111t17 114t13 99t3 68q-124 30 -182 63t-69 68t15 72t70 78t96 84t93 89t62 95t1 101q-30 -6 -63 -5t-64 11t-58 29t-41 49q-18 38 23 84t101 97t117 105t69 108q38 172 61 254t37 100t20 -15t9 -93t5 -134t10 -138q38 -18 76 4t76 52 t78 52t82 4q14 -56 -12 -93t-71 -62t-99 -45t-97 -45t-63 -60t2 -89q140 14 210 6t87 -32t-6 -62t-68 -86t-102 -104t-105 -114t-78 -117t-22 -115q14 2 55 2h86h85t56 -2q72 -6 78 -21t-28 -36t-93 -44t-118 -43t-104 -34t-47 -18q-24 -34 -32 -86t-11 -112t-3 -122 t-8 -116t-28 -96t-58 -62zM244 616q-4 -6 -15 -28l-15 -30q38 -6 69 -5t51 13t26 38t-4 68q-16 4 -32 0t-31 -13t-28 -20t-21 -23zM552 1010q22 -8 47 6t39 24h-86v-30z" />
<glyph unicode="'" horiz-adv-x="528" d="M172 1216q0 2 6 23t15 48t19 54t16 43q28 74 47 91t30 -4t14 -72t-1 -111t-16 -122t-30 -105t-43 -59t-57 16q-2 10 -3 38t-1 60t1 60t3 40z" />
<glyph unicode="(" horiz-adv-x="720" d="M220 64q-88 108 -121 257t-26 317t47 342t97 332t124 287t131 206t115 91t77 -58q-82 -74 -167 -201t-156 -283t-120 -329t-61 -339t20 -313t124 -251q12 -14 51 -40t84 -57t88 -65t64 -67t11 -62t-70 -49q-4 -2 -15 -2t-15 2q-18 14 -58 53t-85 84t-85 86t-54 59z" />
<glyph unicode=")" horiz-adv-x="620" d="M50 -202q-4 4 -4 13t4 13q138 126 224 281t127 327t40 354t-36 364t-99 357t-150 331q-8 20 -3 47t31 37q140 -112 221 -281t115 -366t28 -406t-40 -401t-88 -352t-118 -259t-130 -121t-122 62z" />
<glyph unicode="*" horiz-adv-x="1398" d="M466 198q-8 16 -29 -7t-47 -57t-51 -64t-41 -29t-19 47t17 166q8 46 -12 66t-53 27t-72 8t-69 8t-46 26t0 63q56 10 125 14t126 20t92 52t23 112q-6 36 -38 71t-65 69t-56 69t-9 73q28 12 57 7t55 -20t48 -34t36 -37q10 22 25 59t34 74t40 64t40 29t35 -29t24 -113 q4 4 15 14t13 14q6 8 18 28t26 43t26 43t16 28q54 18 70 -5t8 -71t-32 -111t-48 -123t-42 -107t-14 -65q82 -6 163 0t161 14t161 14t165 2q14 -30 -28 -52t-112 -39t-153 -31t-150 -29t-105 -33t-16 -42l254 -282v-58h-86l-338 312q-4 -48 2 -94t14 -91t13 -91t-1 -92h-86 l-84 170v0z" />
<glyph unicode="+" horiz-adv-x="862" d="M452 28q-24 36 -39 85t-23 101t-12 103t-10 93h-282l-58 70q2 2 10 6t17 9t18 9t13 4q14 4 55 12t86 17l85 17t56 12l56 394q2 14 16 23t29 9t27 -8t12 -24v-366q14 0 50 -4t77 -9t77 -9t52 -6q6 -2 29 -13t27 -17q-26 -42 -71 -56t-92 -20t-88 -16t-61 -48 q-24 -50 -20 -101t13 -102t10 -100t-29 -93q-4 2 -16 13t-14 15z" />
<glyph unicode="," horiz-adv-x="452" d="M-30 -364q-12 34 11 80t59 93t74 91t54 74q24 46 32 91t11 90t4 91t9 96q6 48 20 53t29 -18t29 -69t22 -99t5 -109t-19 -98q-4 -8 -20 -45t-40 -86t-54 -103t-64 -95t-68 -62t-66 -5q-6 2 -16 14t-12 16z" />
<glyph unicode="-" horiz-adv-x="1244" d="M72 706q-32 32 4 62t115 55t189 43t227 28t229 8t195 -17t125 -45t18 -78q-26 0 -90 -4t-137 -8t-137 -8t-90 -6q-62 -6 -152 -30t-184 -40t-179 -12t-133 52z" />
<glyph unicode="." horiz-adv-x="366" d="M86 28q-24 36 -23 72t17 66t43 50t57 24t58 -12t44 -58q16 -38 -4 -79t-54 -67t-74 -29t-64 33z" />
<glyph unicode="/" horiz-adv-x="776" d="M58 28q-16 96 8 229t73 284t117 311t139 311t138 281t117 224q26 18 45 8t29 -32t13 -49t-1 -41l-30 -66t-45 -100t-53 -117t-53 -117t-45 -100t-28 -64q-12 -24 -37 -85t-52 -129t-50 -128t-31 -82q-12 -34 -30 -106t-39 -153t-47 -158t-54 -121q-6 -8 -18 -17t-26 -12 t-25 2t-15 27z" />
<glyph unicode="0" horiz-adv-x="1214" d="M170 28q-76 56 -99 163t-5 240t72 280t133 284t177 253t204 187t215 85t209 -52q74 -50 92 -151t-8 -229t-88 -272t-147 -281t-184 -255t-201 -193t-198 -96t-172 37zM198 112q38 -56 94 -50t121 58t137 138t141 190t131 216t111 214t79 183t34 125q10 112 -15 164 t-74 54t-117 -39t-144 -111t-154 -165t-147 -201t-124 -217t-85 -214t-30 -193t42 -152z" />
<glyph unicode="1" horiz-adv-x="692" d="M58 28q-36 36 -32 102t26 135t50 129t40 86q8 20 32 79t55 137t68 167t68 167t55 136t32 78q6 16 15 49t21 70t28 70t35 50t44 9t55 -52q2 -2 -19 -64t-57 -163t-83 -229t-97 -262t-98 -263t-87 -230t-65 -164t-32 -65q-4 -2 -25 8t-29 20z" />
<glyph unicode="2" horiz-adv-x="1370" d="M86 28q-36 26 -29 56t29 58q94 112 189 216t183 212t166 223t140 251q32 72 26 106t-36 42t-78 -2t-99 -29t-98 -38t-76 -29t-34 -4t29 40q46 54 112 93t134 57t130 14t100 -38t43 -99t-41 -167q-54 -120 -135 -224t-167 -203t-165 -201t-127 -220q40 -12 124 11t189 60 t219 77t217 62t183 17t116 -57q4 -6 4 -29t-4 -29q-76 14 -181 -10t-223 -64t-242 -86t-237 -76t-207 -33t-154 43z" />
<glyph unicode="3" horiz-adv-x="1298" d="M72 58q-6 10 -15 22t-12 23t2 22t25 17q26 8 58 4t66 -13t67 -17t63 -4q38 4 105 31t147 69t165 96t161 113t135 118t86 113t15 97t-80 71q-46 8 -118 -8t-152 -41t-160 -48t-140 -29t-92 14t-16 82q34 38 90 97t114 128t111 143t81 140q-2 0 -41 -11t-94 -24t-117 -23 t-109 -10t-68 15t5 53q4 8 52 36t116 61t147 64t147 44t114 1t48 -65t-49 -155t-179 -266v-86q200 16 313 -19t154 -100t19 -153t-92 -181t-182 -181t-250 -153t-295 -99t-317 -18q-4 2 -15 14t-13 16z" />
<glyph unicode="4" horiz-adv-x="1356" d="M664 58q-12 58 -2 115t30 114t45 114t45 113t28 111t-6 111q-52 8 -115 -9t-132 -42t-140 -50t-135 -34t-119 6t-91 71q-32 48 -26 113t37 139t79 153t96 157t90 151t62 135q58 14 83 0t29 -45t-9 -74t-33 -85t-40 -79t-30 -57q-12 -22 -40 -74t-59 -110t-59 -110 t-40 -72v-58q60 -6 127 5t134 30t130 41t117 38q122 34 196 104t122 164t83 206t81 232q58 20 74 -14t5 -97t-39 -144t-57 -157t-51 -134t-18 -76q40 16 82 1t60 -57q-16 -34 -49 -47t-71 -22t-75 -23t-59 -50q-52 -82 -89 -172t-67 -185t-53 -191t-45 -186q-8 -4 -21 -5 t-27 2t-25 11t-13 22z" />
<glyph unicode="5" horiz-adv-x="1356" d="M184 28q-18 4 -42 12t-46 22t-37 33t-15 47q0 8 22 9t56 -2t74 -10t78 -14t67 -11t41 -2q142 16 271 84t224 171t146 234t37 275q-38 76 -105 94t-147 2t-165 -55t-157 -76t-124 -63t-66 -16q-40 28 -51 57t-5 61t23 66t33 72q4 6 22 51t43 100t53 109t52 78q30 30 84 48 t122 29t142 17t146 12t135 14t107 22q60 20 85 -5t4 -65t-90 -80t-197 -50q-22 -2 -79 -5t-120 -8t-119 -8t-78 -5q-22 -18 -50 -48t-51 -64t-36 -72t-5 -70q58 -12 116 0t117 29t120 29t127 -2q128 -28 191 -94t73 -155t-27 -191t-109 -201t-173 -187t-218 -147t-245 -81 t-254 10z" />
<glyph unicode="6" horiz-adv-x="904" d="M268 28q-24 8 -52 17t-55 22t-51 31t-38 44q-8 54 -16 107t-11 106t2 105t25 106q8 22 36 73t69 118t92 143t105 149t108 135t101 100t83 45t54 -31q6 -10 6 -42t-6 -42q-38 -36 -97 -90t-123 -121t-126 -141t-109 -150t-71 -150t-10 -138h28q204 108 336 142t205 16 t92 -75t-2 -129t-77 -148t-134 -132t-172 -79t-192 9zM268 142q54 -32 117 -22t123 45t111 85t80 99t30 86t-37 45q-26 6 -80 -9t-118 -43t-125 -65t-99 -77t-44 -78t42 -66z" />
<glyph unicode="7" horiz-adv-x="1200" d="M312 58q-2 4 -2 13t2 13q10 20 32 60t50 90t58 105t58 105t50 90t34 60q18 30 51 79t72 106t78 119t68 121t42 110t1 85q-116 -30 -214 -54t-193 -39t-194 -20t-219 1q-44 30 -19 59t97 57t178 54t222 46t229 34t200 20t134 2t33 -18q-16 -34 -54 -118t-92 -195 t-119 -240t-133 -253t-136 -233t-128 -181t-109 -97t-77 19z" />
<glyph unicode="8" horiz-adv-x="1244" d="M126 28q-56 28 -74 76t-12 101t31 104t55 87q20 20 68 73t102 111t102 110t68 72q22 56 2 110t-54 107t-67 108t-35 114t43 125t167 142q94 58 161 82t115 22t84 -28t67 -68t64 -95t75 -109q6 -8 24 -15t34 -16t26 -22t2 -33q-62 -40 -130 -89t-136 -103t-131 -113 t-113 -119q-22 -86 -6 -157t40 -132t42 -115t0 -107t-86 -107t-216 -116q-34 -14 -74 -22t-81 -9t-81 7t-76 24zM156 198q0 -6 -1 -18t-1 -26t1 -26t1 -16q148 -28 242 4t145 94t66 140t6 143t-35 104t-58 23q-26 -24 -82 -74t-116 -110t-109 -124t-59 -114zM496 960 q2 -6 10 -19t17 -26t16 -25t11 -14q4 -4 15 -4t15 4q16 12 56 44l85 68t85 69t56 45q6 6 16 15t19 18l16 16t7 9v224q0 28 -48 40t-115 4t-138 -38t-118 -86t-56 -141t51 -203z" />
<glyph unicode="9" horiz-adv-x="974" d="M296 28q-8 44 -7 79t10 67t23 65t32 73l254 508v28q-44 14 -85 5t-82 -29t-82 -44t-83 -39t-86 -13t-90 34q-50 34 -58 87t18 114t79 122t125 111t156 82t171 34t172 -33t157 -119q4 -14 -17 -76t-58 -152t-87 -199t-105 -218t-110 -208t-104 -169t-86 -103t-57 -7z M184 932q-4 -4 -15 -27t-13 -29q74 -18 160 2t168 64t152 102t114 116q-24 50 -71 59t-103 -8t-117 -54t-116 -79t-97 -82t-62 -64z" />
<glyph unicode=":" horiz-adv-x="312" d="M70 58q-18 34 -3 56t43 29t58 0t42 -31q22 -42 9 -71t-40 -38t-59 4t-50 51zM98 736q-26 24 -29 53t11 50t41 26t61 -17q32 -22 36 -55t-11 -57t-45 -29t-64 29z" />
<glyph unicode=";" horiz-adv-x="438" d="M-40 -412q-4 4 -4 14t4 12q72 90 119 162t73 147t33 162t-1 207q12 8 27 1t28 -19t22 -24l9 -12q46 -60 48 -149t-22 -181t-68 -176t-94 -136t-97 -60t-77 52zM100 858q-4 6 -4 29t4 29h112v-114q-18 -10 -35 -7t-32 12t-27 23t-18 28z" />
<glyph unicode="&#x3c;" horiz-adv-x="1160" d="M990 28q-202 132 -407 268t-385 298q-40 36 -81 72t-65 74t-20 78t54 86q22 20 68 62t105 95t123 111t123 111t105 95t68 62q12 4 35 0t41 -16t24 -29t-14 -39l-536 -536q-18 -18 -8 -44t36 -57t62 -62t70 -56t61 -43l33 -22q22 -16 68 -47t104 -70t123 -82t123 -82 t105 -69t69 -44q26 -32 30 -63t-8 -51t-40 -22t-66 22z" />
<glyph unicode="=" horiz-adv-x="1074" d="M58 58q-16 22 19 41t95 34t136 27t143 20t116 13t55 5q20 0 73 1t111 1t110 -1t74 -1q14 -8 25 -23t3 -33q-94 -12 -215 -32t-241 -41t-225 -40t-167 -29q-22 -4 -37 -3t-27 7t-23 19t-25 35zM198 620q16 30 72 55t134 40t166 21t168 -1t140 -28t82 -57q-10 -12 -68 -25 t-139 -24t-175 -18t-175 -6t-138 10t-67 33z" />
<glyph unicode="&#x3e;" horiz-adv-x="862" d="M98 58q-24 48 10 108t99 127t146 139t148 144t108 141t25 131q-2 6 -46 42t-109 88t-139 113t-136 119t-101 104t-33 70q0 6 7 15t16 18t18 16t15 7q54 -42 136 -94t170 -114t168 -131t128 -143t51 -152t-61 -156q-20 -26 -58 -71t-84 -100t-95 -114t-92 -110t-76 -90 t-45 -53l-22 -22l-34 -34t-35 -34t-23 -22q-4 2 -12 10l-17 17t-17 18t-10 13z" />
<glyph unicode="?" horiz-adv-x="1370" d="M194 66q-18 26 -29 54t-1 60q18 56 37 56t34 -30t22 -74t4 -75t-19 -36t-48 45zM160 682q-14 52 26 117t113 138t171 150t202 154t204 151t178 141t124 123t43 97t-66 64t-205 23h-678q-18 40 -3 76t61 36h706q62 0 136 -35t127 -91t66 -127t-47 -141q-76 -90 -168 -161 t-191 -135t-201 -124t-195 -128t-175 -148t-142 -180q-8 -10 -20 -19t-26 -11t-25 4t-15 26z" />
<glyph unicode="@" horiz-adv-x="1668" d="M424 28q-156 46 -242 146t-115 233t-8 290t79 315t146 307t191 267t214 195t218 91t202 -46t163 -216q32 -74 52 -154t20 -161t-24 -159t-76 -146q-38 -50 -87 -104t-107 -97t-123 -68t-135 -15q-28 4 -72 1t-91 -7t-88 -4t-59 10q-76 38 -101 91t-14 112t50 119t92 111 t113 89t113 52t92 0t49 -66q8 -42 0 -90t-24 -97t-34 -95t-26 -84q10 -20 24 -26t30 -3t31 11t29 18q88 58 151 122t102 139t53 163t4 196q-14 152 -77 214t-154 56t-200 -73t-213 -175t-194 -248t-144 -293t-61 -310t55 -299q52 -124 126 -180t161 -62t184 30t196 96 t198 135t188 148t167 134t136 95q14 -92 -42 -187t-156 -181t-230 -160t-264 -122t-258 -65t-210 7zM510 932q-4 -10 -4 -42t4 -42q48 -28 82 4t58 87t38 112t18 79q-34 20 -67 -2t-60 -59t-45 -78t-24 -59z" />
<glyph unicode="A" horiz-adv-x="2118" d="M-196 -462q-8 6 -24 24t-26 37t-8 35t28 16q40 -54 104 -57t142 30t163 95t167 136t157 154t132 151t91 124t34 73q0 8 -21 24t-46 33t-48 32t-27 23q8 24 48 39t90 26t98 22t74 27q88 128 161 238t136 212t122 199t120 200t127 216t146 245q32 54 52 37t31 -84t13 -172 t-1 -225t-9 -244t-11 -229t-9 -181t-2 -100q8 -126 12 -220t25 -173t69 -153t148 -160q-82 -26 -135 5t-87 94t-55 147t-41 162t-43 138t-63 76q-4 0 -15 1t-24 1t-26 -1t-19 -1q-14 -4 -47 -11t-77 -18t-93 -23t-95 -24t-83 -21t-57 -15q-62 -16 -131 -79t-145 -152 t-157 -194t-166 -205t-173 -186t-176 -137t-176 -58t-174 51zM1160 638q6 -2 27 -2t27 2q44 6 112 16t137 24t126 33t79 41l7 52t17 133t21 181t21 195t17 176t9 125q-26 12 -72 -63t-117 -208t-172 -310t-239 -365v-30z" />
<glyph unicode="B" horiz-adv-x="1794" d="M184 8q-74 42 -104 82t-30 85t23 100t53 127q6 14 28 61t52 109t62 132t62 132t51 108t29 62q32 72 28 125t-12 99t-6 92t46 104q6 8 31 35t54 58t54 58t31 33q14 16 72 50t143 76t188 85t206 76t198 52t162 11t98 -48t9 -122q-26 -90 -72 -165t-104 -138t-121 -117 t-120 -99t-105 -85t-74 -76q240 -8 375 -50t187 -109t31 -152t-93 -176t-186 -184t-249 -175t-280 -147t-280 -103t-250 -42t-187 36zM382 612q-48 -56 -88 -125t-61 -136t-19 -125t37 -95t107 -44t192 27q266 60 462 152t324 194t190 202t58 176t-72 117t-198 24t-322 -103 t-442 -264q-28 -22 -50 -21t-42 10t-38 16t-38 -5zM438 822q0 -6 -1 -21t-1 -32t1 -32t1 -21q20 4 83 47t151 110t193 154t211 180t202 187t167 176t107 146t20 98q-110 16 -231 -12t-237 -83t-216 -127t-168 -140q-10 -22 -29 -67t-44 -102t-53 -120t-53 -120t-45 -102 t-30 -67q-2 -4 -14 -26t-14 -26z" />
<glyph unicode="C" horiz-adv-x="1582" d="M268 28q-122 48 -183 123t-73 169t18 202t89 223t142 232t177 228t193 212t191 184t170 144t130 93q90 54 150 54t96 -37t50 -101t13 -136t-15 -143t-35 -124t-45 -77t-46 -2q-2 20 5 62t18 93t22 106t15 102t-3 79t-29 38q-72 18 -164 -20t-195 -116t-209 -188 t-205 -236t-184 -260t-144 -260t-87 -236t-14 -188t78 -116t188 -20q94 14 179 56t165 100t155 126t150 133t152 120t159 89q44 16 72 -14t14 -72t-89 -112t-183 -147t-238 -153t-254 -131t-230 -79t-166 0z" />
<glyph unicode="D" horiz-adv-x="2058" d="M58 28q-14 38 4 67t52 47q156 78 304 131t292 107t287 121t289 171q262 152 425 288t245 253t93 214t-32 172t-129 125t-199 74t-243 19t-259 -40t-247 -103t-208 -172q-2 -4 -7 -17t-9 -27t-8 -27t-4 -15q-50 -120 -95 -216t-88 -180t-82 -162t-75 -163t-70 -185 t-66 -228q-44 -14 -64 3t-22 53t9 84t26 93t30 82t21 53q20 56 63 149t90 192t89 191t64 150q-22 72 -8 129t50 103t85 85t99 77q142 104 307 162t337 64t341 -44t319 -164q120 -100 141 -217t-33 -241t-171 -252t-272 -251t-336 -236t-362 -209t-352 -169t-305 -116 t-219 -52t-97 27z" />
<glyph unicode="E" horiz-adv-x="1864" d="M44 58q-14 12 8 28q24 90 52 173t58 164t63 164t71 175q12 24 -5 48t-37 48t-30 49t18 53q2 2 19 7t36 9t36 8t21 6t12 9t17 16l17 17t10 12q38 68 75 121t68 105t58 110t45 136q8 30 -14 38t-49 16t-46 24t-3 62q10 28 96 60t219 62t297 55t329 40t316 18t256 -11 t149 -48t-2 -92q-22 -6 -46 -1t-49 12t-51 13t-52 4q-120 -10 -236 -8t-230 2t-229 -9t-231 -41q-80 -22 -142 -79t-119 -143t-114 -199t-125 -247q28 -6 104 12t175 43t208 52t206 38t170 0t97 -59q2 -4 2 -14t-2 -14q-132 -20 -273 -36t-280 -40t-272 -65t-249 -113 q-96 -168 -171 -345t-133 -361q72 26 168 50t185 43t156 32t79 15q212 34 409 53t409 5q18 -4 25 -20t9 -34t0 -35t-4 -25q-274 14 -541 -21t-535 -93q-42 -10 -103 -34t-125 -44t-123 -27t-99 19q-10 4 -17 11t-11 21z" />
<glyph unicode="F" horiz-adv-x="1860" d="M44 28q-12 34 -6 71t21 74t34 72t33 67q12 24 40 88t60 136t60 136t40 90q14 32 -4 55t-40 45t-33 45t19 53q18 18 46 23t57 9t55 14t40 38l284 542q-18 68 -12 112t30 77t64 61t88 62q128 20 254 38t252 30t254 16t258 -2q14 -2 37 -21t38 -43t14 -46t-35 -30 q-4 0 -16 4t-26 9t-27 10t-15 5q-200 0 -347 -5t-256 -21t-187 -48t-140 -89t-116 -142t-112 -207l-17 -30t-35 -71t-30 -84t-4 -69q94 -16 189 -7t191 32t193 53t194 54t195 37t196 1v-58q0 -4 -54 -14t-143 -27t-205 -41t-241 -55t-249 -69t-229 -84t-182 -101t-109 -117 q-82 -162 -153 -334t-131 -344q-16 -22 -43 -28t-39 28z" />
<glyph unicode="G" d="M184 28q-110 82 -149 203t-25 262t74 294t149 301t200 281t228 235t231 163t208 65q46 12 92 -2t83 -46t63 -74t32 -84t-11 -77t-63 -53q-10 -6 -25 -6t-15 6v196q0 6 -12 12t-29 10t-34 6t-27 0q-246 -62 -423 -210t-293 -350q-166 -292 -243 -487t-86 -311t41 -162 t136 -41t198 51t228 116t226 153t192 161t127 142t29 94q-40 6 -88 -6t-82 -22l-84 -28t-128 -42t-128 -43t-84 -29q-36 -12 -59 7t-31 46t-1 55t35 34q30 6 96 28t152 53t186 65t197 64t184 51t146 23t85 -18t0 -70q-24 -24 -83 -85t-127 -129t-128 -127t-86 -83 q-6 -6 -30 -26t-58 -49t-74 -62t-78 -66t-72 -61t-56 -44q-32 -28 -83 -70t-112 -86t-128 -83t-135 -61t-132 -22t-116 38z" />
<glyph unicode="H" horiz-adv-x="1772" d="M86 28q-26 38 -19 120t33 185t65 218t79 218t74 185t50 120q16 40 45 107t63 150t72 172t72 172t62 150t46 107q54 18 72 -3t10 -71t-35 -121t-64 -152t-76 -166t-70 -162t-47 -140t-8 -99q44 -6 103 -1t121 15t121 22t105 20q150 26 260 65t191 94t140 127t109 165 t98 205t108 248q20 42 38 35t30 -35t16 -64t0 -50q-2 -6 -15 -31t-27 -54t-27 -53t-15 -30q-4 -10 -12 -34l-17 -51t-18 -52t-11 -33q10 -4 32 -26t26 -32q8 -44 -28 -98t-87 -111t-100 -112t-67 -103q-102 -250 -176 -499t-108 -517q-8 -14 -23 -26t-33 -2q-4 54 10 151 t37 210t50 231t50 216t38 163t13 73q-52 10 -134 4t-180 -22t-204 -39t-204 -48t-183 -49t-139 -42q-44 -94 -72 -208t-55 -229t-63 -222t-94 -189q-4 2 -15 13t-13 15z" />
<glyph unicode="I" horiz-adv-x="550" d="M28 84q-4 18 -1 50t10 64t13 56t8 28l564 1470q12 30 22 34t19 -9t15 -38t9 -54t1 -57t-10 -46q-80 -190 -161 -380t-156 -384t-139 -391t-110 -399q-18 -12 -33 -10t-25 13t-17 26t-9 27z" />
<glyph unicode="J" horiz-adv-x="1554" d="M212 28q-26 12 -59 49t-63 85t-53 101t-30 99t7 79t58 39q2 -34 8 -89t23 -108t50 -94t89 -47q122 -8 219 28t174 105t136 164t106 204t84 226t68 230t59 216t58 183q18 70 6 104t-45 43t-84 -1t-109 -30t-121 -43t-120 -39t-104 -20t-75 14q-52 34 -35 68t83 65t169 59 t222 53t243 45t232 36t189 26t113 14q42 6 118 15l152 18t137 16t73 7q46 4 118 6t140 2t117 -2t49 -6l28 -84q-66 -4 -182 -7t-254 -11t-284 -22t-274 -38t-226 -60t-136 -88q-20 -58 -48 -171t-68 -257t-91 -305t-115 -314t-142 -284t-171 -214t-202 -106t-237 41z" />
<glyph unicode="K" horiz-adv-x="1988" d="M1780 -230q-78 126 -157 232t-164 205t-180 198t-205 213q-158 164 -261 245t-172 92t-114 -39t-87 -149t-90 -239t-122 -306q-12 -26 -26 -58t-31 -63t-38 -59t-47 -46q-34 -22 -38 4t12 85t47 142t69 175t79 184t77 169t61 131t31 70q60 142 123 261t125 234t119 235 t109 264q22 14 40 9t30 -21t17 -36t-1 -36q-16 -32 -47 -95t-65 -132t-64 -133t-46 -96q-2 -6 -8 -20t-11 -31t-9 -34t0 -29q70 -16 179 11t236 80t263 122t259 137t225 126t164 88q40 20 53 17t8 -21t-24 -46t-45 -57t-54 -53t-50 -36q-24 -14 -75 -40t-105 -53t-100 -49 t-60 -28q-66 -30 -169 -67t-215 -80t-220 -91t-186 -100l-12 -9t-24 -22t-20 -28t0 -27q38 -24 116 -90t175 -159t206 -206t211 -228t188 -225t137 -199t58 -148t-47 -73q-4 2 -14 13t-14 15z" />
<glyph unicode="L" horiz-adv-x="1752" d="M72 28q-20 12 -27 34t-5 48t12 56t22 58q30 66 82 142q78 152 142 274t120 229t106 207t101 209t106 235t121 286q6 10 18 28t27 29t33 7t36 -36q24 -50 3 -138t-73 -201t-126 -244t-153 -266t-157 -267t-136 -248t-90 -209t-22 -149q178 -16 358 4t360 48t361 51t361 11 q32 2 55 -25t3 -59q-6 0 -22 1t-34 1t-34 -1t-22 -1q-92 -8 -208 -25t-244 -37t-263 -40t-267 -33t-257 -16t-233 9q-4 0 -25 11t-29 17z" />
<glyph unicode="M" horiz-adv-x="2534" d="M1890 -168q-2 2 -2 14t2 16l10 30t17 53t18 54t11 31q48 154 88 286t76 253t68 236t65 237t67 256t74 292q2 8 2 29t-2 27q-74 24 -157 -6t-170 -97t-177 -162t-175 -198t-165 -205t-147 -185t-121 -137t-88 -62q-10 -2 -25 0t-29 7t-23 11t-9 12v170q6 28 20 88t30 135 t35 158t35 158t30 134t20 89q12 58 24 112t4 114q-60 20 -127 -18t-137 -118t-142 -193t-143 -244t-140 -271t-132 -274t-120 -252t-104 -206t-83 -136t-58 -40q-34 12 -25 83t48 182t102 252t137 292t152 300t147 277t122 225t79 141q52 -18 92 -12t75 26t69 48t76 52 q90 54 142 47t76 -56t25 -130t-12 -175t-34 -193t-41 -182t-33 -142t-11 -75q20 -10 33 3t23 25q8 12 37 47t66 81t80 99t81 99t66 81t38 47q218 172 368 255t244 93t137 -44t46 -156t-29 -242t-88 -302q-8 -22 -30 -94t-51 -168t-61 -204t-61 -204t-51 -168t-28 -94 q0 -2 -6 -32t-16 -71t-27 -88t-39 -84t-50 -57t-62 -8q-4 2 -14 12t-12 16z" />
<glyph unicode="N" horiz-adv-x="2074" d="M28 58q16 78 60 172t96 187t103 177t81 142q14 30 46 91t70 139t81 164t83 164t70 140t46 92q58 60 101 54t78 -61t62 -148t53 -208t52 -241t57 -245t70 -223t91 -172q32 -16 78 32t101 139t116 215t122 259t119 271t106 253t85 204t57 123q18 32 36 31t32 -20t20 -48 t-2 -51q-80 -218 -150 -392t-144 -337t-158 -332t-192 -375q-40 -48 -78 -77t-76 -32t-77 23t-79 86q-82 146 -130 275t-81 256t-60 259t-67 284q-16 10 -51 -26t-81 -104t-100 -160t-109 -194t-109 -204t-99 -191t-79 -155t-50 -96q-12 -22 -32 -56t-38 -65t-32 -54 l-14 -23h-84q-2 6 -2 28t2 30z" />
<glyph unicode="O" horiz-adv-x="1318" d="M242 28q-84 36 -128 90t-59 120t-6 139t34 146t59 141t70 126q12 20 38 60t59 90t70 105t71 105t60 90t40 58q24 154 87 257t148 160t182 69t187 -17t164 -96t113 -169t33 -238t-75 -301t-210 -357t-375 -408q-50 -48 -118 -91t-144 -71t-154 -33t-146 25zM156 226 q26 -114 95 -141t164 10t208 128t225 212t215 263t178 282t115 268t27 221t-90 141t-233 28q-56 -50 -151 -146t-203 -219t-216 -264t-190 -281t-124 -270t-20 -232z" />
<glyph unicode="P" d="M58 58q-22 42 -3 111t52 144t71 145t56 114q8 14 11 25t7 23t10 28t18 42q16 32 49 101t75 155t88 181t88 182t75 155t49 102v56q-44 8 -86 -4t-81 -35t-75 -52t-68 -51q-34 8 -39 32t5 52t29 52t33 34q262 162 559 217t601 9q184 -94 252 -198t49 -211t-110 -212 t-225 -201t-295 -178t-320 -143t-301 -94t-238 -33q-48 -76 -77 -125t-47 -85t-29 -67t-23 -70t-29 -94t-47 -137l-28 -28q-10 4 -31 26t-25 32zM480 748q106 -18 224 6t234 69t223 101t193 104q210 118 314 229t127 207t-21 171t-130 121t-200 58t-230 -18t-222 -107 t-174 -209q-26 -50 -61 -118t-72 -143t-74 -149t-66 -133t-47 -96t-18 -39v-54z" />
<glyph unicode="Q" horiz-adv-x="1482" d="M1120 -410q-32 42 -55 109t-46 136t-52 126t-73 79q-16 8 -54 -5t-91 -32t-117 -35t-131 -12t-133 35t-122 107q-76 100 -78 230t44 270t128 283t173 273t179 237t146 175q38 46 85 106t101 117t113 104t125 69q20 6 38 -8t33 -35t25 -42t16 -27q114 -136 160 -297 t36 -329t-69 -334t-153 -310q-6 -10 -26 -36t-46 -61t-56 -74t-56 -74t-46 -61t-26 -34q-42 -60 -48 -120t9 -119t43 -116t51 -112t35 -108t-4 -103q-22 -10 -35 3t-23 25zM388 70q106 -70 188 -62t144 66t105 151t70 192t40 189t15 142q4 2 20 3t34 -2t32 -9t14 -20v-282 q86 62 158 155t126 199t87 219t39 217q12 212 -15 330t-81 160t-131 16t-165 -101t-182 -188t-183 -248t-166 -282t-133 -286t-84 -262t-18 -211q4 -6 15 -19t25 -26t27 -25t19 -16z" />
<glyph unicode="R" horiz-adv-x="1718" d="M44 28q-14 42 7 123t66 185t106 224t126 240t128 235t110 208t74 156t19 83q-30 10 -64 -7l-68 -34t-66 -21t-56 34q-12 18 -8 35t14 32t24 27t24 18q286 186 542 291t459 143t342 16t192 -91t7 -178t-213 -244t-468 -289t-757 -314q-24 -40 14 -91t115 -108t180 -120 t209 -127t203 -125t160 -117t81 -103t-34 -81q-2 -2 -31 19t-71 55t-91 73t-92 75t-74 61t-37 29q-150 96 -301 188t-293 208q-34 12 -70 -24t-71 -99t-69 -145t-66 -164t-61 -154t-55 -116t-48 -50t-38 44zM640 1070q54 -18 148 3t208 68t237 114t236 141t207 149t147 139 t57 108t-62 58q-270 4 -460 -27t-326 -116t-228 -232t-164 -375v-30z" />
<glyph unicode="S" horiz-adv-x="1536" d="M228 28q-12 4 -58 27t-87 53t-57 62t32 56q28 -26 76 -61t94 -53q136 -6 267 -1t254 32t240 81t225 142q124 102 162 188t14 160t-98 138t-174 120t-215 105t-221 96t-190 92t-124 91q-10 42 42 99t144 119t213 122t247 111t245 85t208 43t138 -13t33 -84q-18 -4 -91 -23 t-176 -50t-225 -71t-239 -84t-216 -89t-158 -86t-64 -77t67 -60q292 -88 483 -185t297 -198t138 -202t6 -195t-100 -179t-178 -154t-229 -118t-253 -72t-251 -16t-221 49z" />
<glyph unicode="T" horiz-adv-x="1394" d="M438 28q-16 62 1 143t47 164t65 159t57 126q12 28 39 86t60 131t69 153t70 152t60 129t40 85q-42 8 -121 -8t-174 -39t-196 -48t-186 -37t-147 -4t-78 52q16 34 127 76t282 88t383 93t432 90t429 78t374 58t267 31t106 -6q8 -22 4 -49t-32 -35q-124 -20 -266 -44 t-288 -50t-287 -53t-261 -51q-76 -16 -149 -91t-141 -186t-130 -248t-117 -276t-103 -269t-88 -229t-70 -154t-50 -45q-6 4 -16 14t-12 14z" />
<glyph unicode="U" d="M228 28q-92 72 -124 188t-22 255t52 293t101 303t125 284t123 237t96 162t43 58q20 -10 28 -27t9 -36t-2 -40t-5 -37q0 -4 -5 -12t-10 -18t-10 -18t-5 -10q-194 -426 -292 -715t-120 -462t21 -242t132 -55t213 98t262 217t282 302t272 354t230 373t158 358q4 4 14 15 t14 11q56 -38 55 -119t-45 -192t-126 -243t-187 -272t-228 -280t-249 -265t-249 -227t-230 -168t-190 -87t-131 17z" />
<glyph unicode="V" horiz-adv-x="1400" d="M198 84q-46 68 -77 197t-45 284t-10 322t28 313t71 257t117 153q12 -8 10 -63t-13 -141t-27 -195t-32 -228t-29 -239t-17 -225t3 -190t32 -132t71 -51t118 52q102 80 202 171t196 187t188 191t176 185q206 218 394 442t368 464q24 32 47 34t40 -15t25 -46t2 -59 q-18 -20 -56 -61t-86 -94t-100 -112t-99 -112t-85 -96t-56 -63q-44 -50 -116 -139t-163 -197t-194 -227t-208 -228t-208 -199t-193 -142t-161 -57t-113 59z" />
<glyph unicode="W" horiz-adv-x="1754" d="M114 28q-32 48 -49 157t-21 255t4 315t24 337t39 323t50 271t58 181t63 55q6 -4 17 -14t13 -16q2 -28 -5 -104t-20 -182t-31 -234t-35 -258t-32 -254t-23 -223t-8 -164t12 -77l28 -30q38 16 78 90t82 181t85 234t86 251t86 234t85 180t82 89t77 -38t70 -200t61 -397 q2 -10 8 -50t18 -98t27 -126t34 -131t39 -116t42 -80t43 -22t43 57q8 20 34 86t61 153t74 185t74 185t61 152t36 87q10 24 33 89t57 147t76 170t90 156t99 106t103 20q4 0 15 -11t11 -17q-154 -198 -255 -399t-178 -409t-146 -424t-159 -446q-38 -98 -79 -112t-81 29 t-79 131t-74 197t-65 225t-52 214t-36 166t-16 82q-4 18 -9 47t-9 57q-6 32 -10 66h-28q-2 0 -15 -24t-33 -63t-44 -88t-49 -99t-47 -97t-38 -81q-8 -20 -26 -77t-42 -136t-54 -171t-63 -180t-68 -164t-69 -124t-67 -58t-63 34z" />
<glyph unicode="X" horiz-adv-x="1342" d="M1160 84q-16 20 -53 76t-82 128t-96 149t-96 140t-79 100t-48 29q-156 -146 -280 -300t-256 -322q-36 -46 -62 -51t-38 14t-9 54t25 69q30 50 86 114t121 135t130 145t114 145t74 135t11 116q-10 20 -33 68t-50 102t-52 102t-35 66q-4 8 -21 37t-36 62t-36 63t-19 38 q-4 6 -4 27t4 29q26 20 61 -16t74 -100t80 -142t79 -144t72 -107t58 -27q4 6 16 22t26 34t26 34t16 22q16 24 48 85t77 123t99 104t116 26q32 -8 32 -35t-22 -66t-61 -88t-84 -101t-90 -106t-79 -101t-53 -87t-11 -64q16 -40 59 -109t97 -151t111 -170t102 -166t69 -138 t14 -86q-4 -2 -14 -2t-14 2t-16 13t-25 24t-25 27t-18 20z" />
<glyph unicode="Y" horiz-adv-x="1004" d="M140 -320q-30 74 -8 158t73 175t118 189t127 201t101 212t39 223q-10 24 -44 77t-82 125t-104 153t-107 161t-92 150t-61 118t-13 67t53 -3q36 -32 87 -104t108 -161t116 -183t109 -168t88 -117t54 -31q20 38 52 110l72 162t85 190t90 192t88 170t79 124t62 53t38 -41 q8 -36 -24 -130t-91 -226t-140 -293t-170 -333t-178 -346t-166 -333t-135 -291t-84 -222q-8 -26 -24 -49t-37 -33t-42 1t-37 53z" />
<glyph unicode="Z" horiz-adv-x="2106" d="M72 28q-46 34 1 114t153 191t257 244t312 273t317 279t274 261t181 219t39 155q-4 0 -58 -10t-136 -24t-184 -30t-202 -27t-190 -16t-147 4t-74 33t29 70q56 -6 147 9t200 40t226 52t222 44t189 18t128 -29t40 -96t-78 -180q-130 -204 -286 -363t-325 -301t-346 -282 t-351 -310q-2 -2 -27 -28t-53 -62t-49 -73t-13 -61q28 -8 127 13t241 55t313 76t340 79t324 62t264 25t159 -32t12 -108q-62 -4 -177 -20t-261 -40t-313 -53t-333 -57t-321 -54t-277 -42t-201 -22t-93 4z" />
<glyph unicode="[" horiz-adv-x="1186" d="M112 -170q-4 2 -15 14t-13 16q-4 30 1 126t15 231t26 299t38 331t49 326t58 286t67 209t74 94q6 2 35 6t62 8t62 8t37 6q16 4 50 15t76 24t88 29t87 30t74 26t49 18q18 4 48 -2t50 -19t21 -30t-35 -35q-190 -54 -315 -102t-205 -107t-125 -137t-75 -192t-53 -275 t-61 -383q-18 -60 -31 -161t-21 -210t-9 -211t3 -166l850 42q24 -36 -4 -59t-71 -35t-83 -16t-42 -4q-96 -14 -175 -22t-155 -11t-159 -1t-189 6q-4 0 -16 4t-26 8t-26 9t-16 7z" />
<glyph unicode="\" horiz-adv-x="820" d="M678 28q-68 66 -135 164t-129 213t-119 238t-104 242t-83 223t-58 182q20 66 45 65t57 -50t71 -139t85 -202t98 -238t112 -248t128 -232t144 -188q-28 -42 -55 -56t-57 26z" />
<glyph unicode="]" horiz-adv-x="1116" d="M168 -212q-16 22 26 45t114 45t160 41t165 33t130 23t55 9q-2 88 2 227t13 303t19 341t18 341t11 302t-3 224q-36 2 -106 -6t-156 -17t-178 -17t-174 -5t-144 20t-88 55q-10 16 26 34t102 36t154 32t182 22t186 7t165 -15t121 -42t52 -74q10 -96 8 -242t-11 -316 t-21 -354t-19 -354t-6 -316t17 -242q0 -8 3 -25t1 -35t-8 -34t-24 -20q-60 8 -134 -3t-153 -28t-157 -34t-146 -22t-121 7t-81 54z" />
<glyph unicode="^" horiz-adv-x="650" d="M532 934q-2 4 -11 39t-21 82t-26 101t-29 96t-29 66t-24 12q-6 -12 -22 -49t-37 -85t-47 -98t-55 -87t-60 -54t-63 5q-12 8 -25 23t-3 33q12 22 40 78t60 119t60 120t38 79q56 118 103 150t84 5t65 -98t45 -158t23 -175t1 -149t-22 -82t-45 27z" />
<glyph unicode="_" horiz-adv-x="1568" d="M72 28q-4 2 -15 14t-13 16q2 8 64 21t163 27t230 29t265 27t266 19t234 6t171 -11t75 -34q4 -6 4 -28t-4 -30q-46 -4 -144 -11t-220 -15t-258 -17t-258 -17t-220 -15t-144 -9q-62 -4 -102 -2t-94 30z" />
<glyph unicode="`" horiz-adv-x="424" d="M296 1070q-34 60 -72 84t-67 45t-43 54t0 107q54 4 110 -33t102 -90t75 -108t31 -89t-29 -33t-107 63z" />
<glyph unicode="a" horiz-adv-x="1754" d="M142 58q-60 50 -67 148t27 219t101 255t154 255t189 217t205 143t201 33t178 -114q50 -62 60 -126t-3 -130t-40 -134t-53 -138t-42 -143t-6 -147q10 -72 54 -99t110 -22t146 34t162 71t160 89t138 87t97 67l37 27q70 14 79 -10t-27 -69t-109 -104t-166 -114t-198 -100 t-205 -62t-188 2t-146 89q-26 30 -41 61t-43 53q-38 -36 -90 -92t-114 -112t-131 -106t-141 -76t-146 -18t-142 66zM170 142q16 -60 66 -70t118 19t149 92t160 152t151 197t123 227t75 242t6 243q-44 36 -107 19t-136 -71t-150 -138t-149 -183t-135 -206t-106 -205t-62 -182 t-3 -136z" />
<glyph unicode="b" horiz-adv-x="1370" d="M44 84q-4 4 -4 14t4 14q32 64 73 170t85 233t91 263t93 262t91 231t85 169t73 76t57 -48q24 -58 13 -119t-39 -125t-67 -129t-72 -131t-52 -131t-9 -127q72 18 127 67t109 105t111 103t133 63q116 24 196 -10t120 -104t37 -168t-51 -202t-143 -205t-241 -177t-343 -119 t-449 -31q-4 6 -15 28t-13 28zM268 226q-2 -6 -3 -18t-1 -25t1 -25t3 -16q112 -16 225 2t218 63t195 114t153 159t95 197t20 227q-2 6 -14 16t-16 12q-82 12 -172 -15t-180 -81t-173 -129t-153 -157t-122 -166t-76 -158z" />
<glyph unicode="c" horiz-adv-x="1398" d="M256 28q-128 42 -169 132t-22 203t86 240t159 242t195 208t193 140t155 37t81 -100q6 -40 -10 -88t-44 -92t-64 -80t-69 -54t-60 -12t-35 44q30 52 67 101t73 95q-14 28 -57 13t-102 -60t-126 -113t-129 -148t-111 -167t-71 -167t-11 -148t71 -112q82 -6 189 17t220 60 t224 82t202 82t155 58t84 11q36 -18 21 -50t-68 -71t-136 -81t-180 -81t-201 -72t-201 -54t-178 -26t-131 11z" />
<glyph unicode="d" horiz-adv-x="1360" d="M1074 58q-46 32 -79 73t-56 88t-38 99t-25 106h-28q-202 -166 -352 -248t-252 -100t-159 16t-74 101t5 157t78 181t143 173t202 136t253 68t298 -32l28 28l338 678q66 -10 79 -59t-1 -109t-40 -117t-38 -83q-6 -14 -28 -57t-51 -101t-62 -123t-62 -124t-51 -102t-28 -57 q-22 -46 -30 -95t-9 -100t3 -102t8 -99q10 -46 39 -74t63 -51l68 -46t56 -55q-10 -32 -40 -33t-63 11t-61 29t-34 23zM142 170q8 -32 48 -29t99 31t132 77t145 106t140 119t116 119t73 101t11 68q-78 42 -173 42t-189 -33t-180 -95t-145 -142t-83 -173t6 -191z" />
<glyph unicode="e" horiz-adv-x="1088" d="M212 28q-76 26 -114 76t-50 113t-3 132t27 131q76 80 170 183t199 204t219 187t230 132q40 16 64 -3t34 -58t9 -92t-9 -102t-20 -90t-26 -55q-22 -26 -77 -60t-128 -73t-155 -82t-157 -87t-136 -90t-92 -90t-24 -85t69 -77q84 -10 206 9t248 51t243 66t193 52l30 -28 q-36 -48 -106 -91t-157 -79t-186 -61t-192 -39t-174 -13t-135 19zM810 982q-2 4 -37 -20t-87 -63t-110 -85t-108 -86t-81 -68t-27 -30q40 -8 104 12t132 54t131 78t100 86t37 75t-54 47z" />
<glyph unicode="f" horiz-adv-x="1174" d="M100 58q-4 6 -4 27t4 27l210 482h-238q-6 0 -12 10t-11 24t-7 28t2 22q8 2 28 10t42 17t42 18t28 13q8 2 42 14t73 25t72 26t39 19q28 20 70 99t94 189t115 236t135 242t152 207t167 130t179 12t190 -147q18 -24 26 -53t2 -59q-22 -14 -45 -6t-42 25t-33 36t-20 29 q-112 18 -192 5t-138 -50t-99 -94t-76 -126t-69 -149t-76 -160q-16 -30 -41 -77t-47 -92t-38 -78t-16 -35v-28q0 -6 29 -11t75 -10t100 -11t104 -17t89 -27t55 -38l-28 -26q-142 8 -240 6t-170 -33t-127 -98t-113 -187q-20 -42 -53 -108t-64 -129t-55 -110t-26 -49l-28 -28 q-4 2 -13 10t-18 17t-16 18t-9 13z" />
<glyph unicode="g" horiz-adv-x="904" d="M-340 -706q-78 28 -127 83t-75 119t-32 130t3 116t30 76t49 12q-2 -218 51 -329t140 -139t196 14t219 131t211 212t172 257t100 266t-3 238q-180 -130 -295 -182t-178 -46t-78 61t4 136t67 180t113 195t139 178t147 130t138 52t111 -56q58 -76 72 -208t-8 -292t-78 -335 t-139 -341t-188 -310t-228 -239t-258 -128t-275 19zM170 536q-4 -8 -5 -28t-1 -43t1 -42t5 -27q60 -16 124 14t122 86t109 130t86 145t52 131t7 89t-48 19t-114 -78q-30 -28 -80 -75t-101 -102t-95 -113t-62 -106z" />
<glyph unicode="h" horiz-adv-x="1384" d="M28 58q-2 4 -2 13t2 13q8 20 32 69t51 103t52 102t35 66q4 8 26 43t53 87t67 113l72 122t68 114t52 87q50 82 116 195t136 228t138 222t126 178t98 93t54 -30q2 -10 2 -41t-2 -41q-16 -26 -46 -70t-62 -93t-61 -93t-45 -70q-22 -34 -72 -112t-113 -176t-128 -204 t-118 -198t-84 -158t-23 -84q60 18 129 63t139 97t140 102t130 78q60 -8 106 -45t64 -95q-2 -24 -3 -85t-1 -128t1 -127t3 -84q2 -26 25 -68t49 -82t47 -71t19 -33q-50 -18 -94 -1t-78 52t-56 82t-26 91q-4 24 -8 85t-9 128t-8 127t-3 84l-58 30q-14 6 -51 -14t-85 -55 t-100 -79t-97 -84t-78 -70t-41 -38q-22 -20 -74 -72l-111 -111t-110 -112t-71 -73q-34 -8 -66 -6t-48 36z" />
<glyph unicode="i" horiz-adv-x="634" d="M28 28q102 328 186 522t139 272t76 51t-3 -140t-100 -301t-214 -432q-20 -8 -47 -3t-37 31zM466 1230q-2 6 -3 18t-1 26t1 26t3 16q58 20 88 5t37 -44t-2 -62t-29 -49t-45 -5t-49 69z" />
<glyph unicode="j" horiz-adv-x="466" d="M-608 -874q-62 26 -126 74t-100 106t-29 121t85 123q18 -2 25 -25t11 -55t8 -70t17 -72t38 -59t71 -31q114 -16 207 37t167 153t134 233t109 276t90 285t78 257t73 192t74 93q32 -10 31 -96t-29 -217t-80 -292t-123 -322t-156 -309t-180 -251t-195 -149t-200 -2z M324 1188q-34 46 -20 72t43 23t53 -39t10 -114q-12 -8 -27 0t-28 20t-17 18z" />
<glyph unicode="k" horiz-adv-x="1822" d="M1060 84q-162 220 -259 364t-159 214t-102 67t-86 -76t-114 -216t-184 -353q-14 -26 -31 -32t-33 0t-29 23t-19 37q-8 26 18 97t74 173t115 226t140 254t147 257t138 236t114 191t72 122q18 12 37 2t32 -31t18 -45t-3 -40l-226 -394v-58q52 -10 131 11t170 61t187 93 t181 107t155 102t108 78q34 18 60 11t39 -27t11 -47t-24 -51q-72 -72 -168 -123t-203 -92t-219 -78t-213 -79t-187 -95t-140 -125q32 -28 86 -86t117 -132t128 -155t117 -157t85 -138t33 -96v-56q-20 -10 -37 -7t-31 13t-26 24t-20 26z" />
<glyph unicode="l" horiz-adv-x="820" d="M142 28q-74 52 -94 132t-6 174t54 194t86 193t90 170t68 127q4 10 19 40t36 70t43 86t43 87t36 72t19 41q6 12 20 48t32 79t39 82t44 57t47 5t46 -75q-10 -26 -48 -100t-91 -179t-116 -232t-124 -258t-113 -255t-85 -225t-40 -168t23 -81q36 -18 91 -14t116 15t119 21 t98 8q10 -22 -15 -43t-70 -37t-103 -27t-112 -16t-96 -3t-56 12z" />
<glyph unicode="m" horiz-adv-x="2062" d="M1554 58q-26 34 -30 74t4 81t24 81t32 72q12 26 43 91t67 137t68 137t46 89v56q-20 10 -69 -15t-117 -74t-150 -115t-165 -138t-164 -145t-147 -135t-113 -107t-63 -63q-54 -18 -70 24t-9 116t29 165t46 172t43 138t17 63q-50 16 -105 -14t-112 -89t-116 -137t-115 -157 t-110 -150t-101 -115t-88 -53t-71 37q-2 4 -2 14t2 14q12 26 38 80t59 121t70 140t71 140t61 119t41 78q12 26 35 65t45 75t39 62t19 26h58q20 -58 -3 -108t-54 -97t-53 -94t-2 -99q162 144 266 228t165 122t85 34t25 -39t-13 -95t-29 -133t-24 -154t3 -159h30q14 10 50 38 t77 60t77 60t50 38q28 22 81 63t107 81t98 73t54 39q10 8 44 31t75 50t79 52t56 35q38 24 70 22t53 -23t26 -58t-9 -81q-60 -114 -120 -221t-108 -216t-79 -224t-33 -243q-12 -8 -26 0t-27 20t-17 18z" />
<glyph unicode="n" horiz-adv-x="1440" d="M974 28q-8 82 14 163t58 160t77 158t72 155t43 150t-10 146q-64 22 -145 -11t-171 -99t-186 -155t-187 -180t-174 -173t-150 -136t-112 -68t-59 32q0 2 17 38t46 95t67 133t79 152t81 154t73 136t57 98t32 42q50 -34 52 -75t-13 -86t-33 -90t-6 -89q42 28 112 77t155 101 t175 101t171 79t144 32t93 -38t19 -131t-79 -249q-4 -12 -20 -47t-36 -81t-43 -98t-44 -98t-36 -81t-19 -47q-4 -10 -7 -37t-9 -58t-16 -60t-24 -43q-8 -8 -17 -5t-18 9t-15 13t-8 11z" />
<glyph unicode="o" horiz-adv-x="1074" d="M198 28q-104 42 -130 127t1 190t94 215t149 203t166 156t144 71q156 20 244 -21t121 -119t18 -181t-66 -209t-132 -203t-180 -162t-209 -88t-220 21zM170 170q16 -64 62 -82t109 1t137 66t146 111t137 140t109 149t62 139t-3 113t-87 67t-190 2q-36 -32 -90 -79 t-114 -102t-117 -119t-99 -131t-61 -137t-1 -138z" />
<glyph unicode="p" horiz-adv-x="1356" d="M-226 -874q-16 94 -3 189t43 190t70 190t80 189t73 187t49 185q0 4 21 29t47 54t48 54t24 31q42 88 82 162t63 143t20 139t-51 150q-4 4 -4 14t4 14q74 92 169 155t202 100t221 50t228 5q96 -80 122 -182t2 -211t-88 -218t-146 -205t-174 -170t-170 -114 q-72 -36 -107 -47t-66 -14t-78 -5t-143 -20q-42 -8 -70 -39t-47 -70t-31 -79t-22 -66q-44 -110 -81 -204t-70 -186t-65 -189t-68 -211q-6 -12 -18 -21t-26 -11t-26 5t-14 27zM340 282q116 -22 224 13t203 109t171 178t129 218t78 230t15 214q-34 30 -83 31t-87 -3 q-136 -18 -213 -69t-126 -129t-84 -179t-85 -217q-10 -18 -30 -62t-43 -93t-42 -93t-27 -62v-86z" />
<glyph unicode="q" horiz-adv-x="990" d="M156 -874q-72 72 -84 170t8 204t60 208t72 180q52 124 66 198t4 115t-39 55t-64 20t-69 12t-53 27t-19 65t34 130q14 36 73 113t143 163t182 164t187 117t160 20t103 -127q6 -20 0 -55t-17 -73t-23 -73t-18 -53q-20 -52 -68 -129t-112 -170t-137 -198t-140 -215 t-123 -220t-87 -212t-30 -192t47 -160q10 -16 51 8t100 72t133 114t151 132t153 126t140 98t110 45t66 -31q4 -4 4 -14t-4 -14q-38 -28 -112 -96t-166 -151t-195 -167t-197 -144t-171 -82t-119 20zM184 452q-2 -6 -3 -22t-1 -34t1 -34t3 -22q66 -22 131 12t127 95t119 138 t107 140t92 101t74 22q18 70 1 97t-57 21t-98 -39t-121 -80t-127 -104t-116 -113t-88 -103t-44 -75z" />
<glyph unicode="r" horiz-adv-x="1214" d="M72 28q-4 2 2 59t19 142t32 187t42 195t49 166t52 99q18 18 35 1t34 -41t35 -42t38 -4q70 98 154 187t186 153q10 8 55 24t103 32t119 28t104 10t59 -23t-16 -71q-112 -2 -213 -51t-191 -129t-169 -182t-145 -207t-121 -206t-96 -180t-70 -127t-43 -48q-4 0 -24 11 t-30 17z" />
<glyph unicode="s" horiz-adv-x="990" d="M72 28q-30 20 -1 53t93 73t148 82t163 79t140 66t77 43q66 56 81 97t-6 69t-72 46t-115 31t-136 23t-135 22t-109 28t-62 42t6 62t98 88q36 26 104 73t147 97t156 90t129 52q26 6 55 -5t47 -29t16 -40t-34 -40q-140 -78 -272 -149t-264 -161q-10 -20 2 -35t26 -23 q214 -22 341 -59t185 -82t58 -97t-41 -105t-114 -105t-160 -99t-179 -86t-170 -64t-133 -36t-69 -1z" />
<glyph unicode="t" horiz-adv-x="1074" d="M228 28q-4 6 -4 28t4 28q8 28 27 97t42 145t43 144t28 96q10 34 23 81t5 89q-38 4 -92 -10t-109 -22t-101 0t-66 58q18 42 53 63t77 31t89 14t91 12t82 25t62 53q24 64 54 158t66 196t77 203t85 179q28 18 45 2t27 -45t12 -59t0 -40q-16 -66 -52 -139t-68 -149t-50 -150 t0 -142h536q4 0 14 -16t16 -26q14 -34 -26 -46t-108 -16t-153 -6t-165 -12t-142 -36t-84 -80q-66 -170 -121 -339t-105 -339q-6 -10 -21 -26t-32 -27t-34 -8t-25 31z" />
<glyph unicode="u" horiz-adv-x="1440" d="M1076 28q-70 26 -110 72t-62 103t-33 121t-23 128q-18 12 -55 -12t-87 -65t-110 -94t-123 -100t-125 -82t-118 -40t-100 25t-72 114q-14 38 8 108t65 156t98 177t110 170t101 135t70 74q58 -28 52 -84t-46 -128t-101 -155t-114 -165t-86 -157t-17 -131q40 -16 97 6 t123 71t139 118t144 146t139 154t125 144t100 115t65 66q52 -26 52 -82t-28 -129t-70 -157t-72 -166t-35 -157t41 -129l84 -100h254q18 0 7 -15t-30 -33t-39 -34t-22 -16q-32 -6 -56 -6t-47 4t-45 11t-48 19z" />
<glyph unicode="v" horiz-adv-x="1328" d="M142 58q-52 30 -75 95t-26 147t10 173t30 175t35 152t26 104q12 8 27 0t28 -20t22 -24l9 -12q6 -88 1 -171t-14 -166t-16 -168t-1 -173q16 -30 60 -12t108 70t142 129t162 165t168 178t160 168t138 136t101 81t50 3t-15 -98q-46 -40 -104 -110t-125 -155t-142 -179 t-153 -181t-158 -161t-158 -119t-151 -56t-139 29z" />
<glyph unicode="w" horiz-adv-x="1864" d="M834 28q-48 36 -76 96t-42 128t-18 136t-6 120q-4 4 -14 4t-14 -4q-62 -46 -120 -107t-113 -127t-110 -130t-109 -116q-34 -12 -71 -7t-64 24t-39 51t6 74q48 152 105 323t119 327q22 56 49 61t46 -20t27 -69t-8 -86q-8 -20 -28 -72t-43 -111t-42 -111t-27 -72v-86 q78 70 131 126t99 112t96 119t124 151q56 66 89 73t49 -27t20 -97t1 -137t-7 -147t-3 -127t12 -77t37 3q30 46 87 137t130 199t159 220t176 200t180 139t172 39q4 -12 -28 -56t-83 -105t-113 -132t-119 -137t-103 -118t-62 -76q-8 -10 -31 -45t-55 -81t-68 -98t-68 -99 t-57 -82t-33 -47q-22 -32 -37 -52t-29 -27t-31 -2t-43 25z" />
<glyph unicode="x" horiz-adv-x="1258" d="M44 58q-24 34 9 79t96 96t142 107t146 111t110 106t33 93q-2 12 -15 57t-27 98t-27 98t-15 57q-2 6 -2 28t2 30q22 16 43 2t41 -46t39 -74t37 -82t34 -71t30 -41q44 30 96 71t102 85t95 85t75 71q52 26 73 22t22 -26t-14 -55t-32 -64t-33 -53l-16 -22 q-132 -120 -202 -204t-97 -141t-19 -93t34 -60t61 -41t61 -38t36 -51t-16 -80q-68 -16 -106 7t-62 65t-41 92t-41 86t-62 47t-106 -23t-171 -125t-257 -261q-4 2 -12 10l-17 17t-17 18t-10 13z" />
<glyph unicode="y" horiz-adv-x="1102" d="M-424 -960q-24 36 0 108t67 152t90 149t69 99q20 26 62 82t95 125t111 146t111 147t95 125t62 81q20 22 -1 70t-62 112t-92 140t-92 155t-62 156t-1 145q26 20 60 -24t70 -120t75 -167t77 -165t74 -116t68 -18q64 48 127 122t120 154t109 157t96 133q18 22 35 31t51 -3 q22 -8 2 -59t-71 -136t-127 -197t-167 -238t-191 -262t-199 -269t-190 -258t-165 -230t-125 -183t-69 -118q-10 -22 -21 -45t-33 -39q-4 2 -13 10t-18 17t-17 18t-10 13z" />
<glyph unicode="z" horiz-adv-x="1414" d="M100 28q-48 28 -33 77t71 113t146 139t193 154t211 161t201 159t161 146t94 125q-6 32 -51 36t-107 -5t-132 -23t-124 -16t-83 17t-11 75q2 4 54 21t129 34t166 30t167 11t131 -24t58 -75t-52 -141t-201 -222q-10 -10 -43 -40t-74 -66t-79 -70t-58 -50q-16 -14 -61 -48 t-101 -77t-116 -91t-108 -90t-76 -74t-18 -44q106 -10 212 1t211 27t211 27t214 1q12 -8 26 -20t24 -27t12 -32t-6 -35q-64 -4 -161 -21t-208 -37t-228 -38t-224 -26t-196 -1t-141 39z" />
<glyph unicode="{" horiz-adv-x="678" d="M388 -118q-84 30 -164 103t-129 166t-54 193t65 186q6 8 35 42t63 72t63 71t35 41q32 38 33 65t-15 48t-41 38t-44 35t-27 41t10 55q4 6 21 27t37 44t36 44t20 27q28 64 13 129t-44 129t-56 126t-21 122t60 118t188 112q14 6 28 0t24 -16t18 -22t14 -20q-22 -28 -70 -60 t-91 -69t-67 -83t4 -100l140 -282q0 -2 -3 -39t-6 -89t-2 -110t11 -100q18 -72 7 -121t-39 -86t-66 -68t-75 -63t-67 -73t-42 -97q-24 -124 6 -202t94 -128t150 -83t174 -69q48 -18 44 -38t-43 -32t-100 -10t-127 26z" />
<glyph unicode="|" horiz-adv-x="282" d="M86 28q-4 6 -15 28t-13 28q0 32 -1 113t-1 171t1 170t1 112q0 20 2 81t5 142t6 173t6 173t5 141t4 80q0 4 3 30t10 60t16 68t22 55t28 20t33 -35q6 -202 1 -403t-12 -402l-14 -402t-3 -403q-16 -34 -41 -30t-43 30z" />
<glyph unicode="}" horiz-adv-x="750" d="M164 -142q-8 22 23 50t79 65t105 82t104 98t73 113t12 128q-12 56 -46 103t-78 89t-88 83t-75 85t-41 94t16 112q-56 114 -69 172t0 85t43 37t61 31t55 67t24 144q0 50 -29 97t-71 90t-89 84t-85 80t-58 78t-6 79h82q6 0 42 -33t81 -78t90 -93t71 -78q64 -78 80 -147 t1 -133t-53 -127t-84 -131q-8 -12 -19 -33t-9 -23l140 -142q34 -32 23 -54t-33 -39t-42 -34t-4 -41q30 -44 74 -91t88 -97t78 -102t42 -108q12 -66 -16 -149t-78 -164t-114 -152t-124 -111t-109 -42t-67 56z" />
<glyph unicode="~" horiz-adv-x="1328" d="M622 28q-66 40 -97 111t-48 139t-31 114t-45 36t-91 -94t-168 -276q-44 -16 -56 19t2 95t48 133t79 137t98 105t105 37t98 -66t78 -206q24 -106 65 -147t94 -38t117 40t131 85t136 96t135 76q14 -24 -15 -70t-85 -100t-130 -107t-151 -89t-149 -48t-120 18z" />
<glyph unicode="&#xa1;" horiz-adv-x="664" d="M39.8271 1633.88q-19.876 -26.958 -2.98145 -58.4102q16.8955 -31.4521 45.7168 -52.1201t58.6357 -22.4658q29.8154 -1.79688 39.7539 32.3506q7.9502 32.3506 0 69.1943q-7.95117 36.8428 -28.8213 59.3086q-20.8711 22.4658 -50.6855 19.7695 q-29.8154 -2.69629 -61.6182 -47.627zM180.952 1001.25q-5.96289 -14.3779 3.97559 -68.2949q9.9375 -53.917 30.8086 -131.198q20.8701 -77.2822 50.6855 -171.637q29.8154 -94.3555 64.5996 -188.711q34.7842 -94.3545 71.5557 -181.521q36.7725 -87.166 73.5439 -151.866 q36.7715 -64.7012 70.5625 -99.7471q33.79 -35.0459 59.6299 -22.4658q1.9873 12.5811 -9.93848 76.3828t-33.79 156.36q-21.8643 92.5576 -52.6738 204.886q-30.8086 112.327 -65.5928 220.161q-34.7842 107.835 -71.5557 201.291q-36.7725 93.457 -71.5566 149.172 q-34.7842 55.7139 -65.5928 62.9033q-30.8096 7.18848 -54.6611 -55.7148z" />
<glyph unicode="&#xa2;" horiz-adv-x="1398" d="M256 28q-128 42 -169 132t-22 203t86 240t159 242t195 208t193 140t155 37t81 -100q6 -40 -10 -88t-44 -92t-64 -80t-69 -54t-60 -12t-35 44q30 52 67 101t73 95q-14 28 -57 13t-102 -60t-126 -113t-129 -148t-111 -167t-71 -167t-11 -148t71 -112q82 -6 189 17t220 60 t224 82t202 82t155 58t84 11q36 -18 21 -50t-68 -71t-136 -81t-180 -81t-201 -72t-201 -54t-178 -26t-131 11zM578 -110q-4 6 -16 27t-14 27q0 22 -6 73t-15 116t-19 138t-18 139t-14 116t-4 72q0 20 4 84t10 151t13 184t13 184t10 150t6 83q0 4 3 30t10 60t17 68t23 55 t28 20t33 -35q-28 -202 -48 -423t-23 -448t17 -449t74 -422q-18 -34 -42 -31t-42 31z" />
<glyph unicode="&#xa3;" horiz-adv-x="830" d="M250 662q-20 2 -37 4t-33 4q-16 -92 -26 -179t-11 -161t5 -131t22 -87q28 12 107 31t189 23t238 -19t256 -91q24 -14 5 -17t-68 -1t-120 8t-150 12t-159 10t-148 2t-116 -12t-62 -30q-58 120 -71 293t9 363q-66 12 -91 23t-19 21t38 17t82 13q20 132 56 259t86 236 t112 192t135 126t155 38t172 -71l-74 -132q-62 60 -119 66t-109 -29t-98 -104t-85 -160t-70 -198t-53 -217q74 2 155 0t152 -11t125 -25t72 -40q-26 0 -90 -4t-136 -8t-136 -8t-90 -6z" />
<glyph unicode="&#xa4;" horiz-adv-x="1484" d="M326 280q-26 4 -37 38t-8 83t19 109t40 119t56 111t70 84q-36 46 -86 88t-93 87t-71 95t-18 112q44 2 94 -34t95 -88t80 -111t47 -101q38 66 104 102t138 47t140 -4t112 -51q150 106 241 153t132 53t35 -21t-51 -70t-124 -92t-185 -87q18 -46 15 -98t-22 -108t-50 -112 t-69 -108q44 -22 88 -68t81 -97t60 -100t26 -78t-19 -31t-78 40q-24 38 -56 70t-65 63t-61 63t-40 68q-24 -46 -78 -80t-118 -54t-129 -26t-111 6q-22 -24 -59 -59t-79 -68t-79 -59t-59 -33t-19 11t41 70zM368 372q2 -16 12 -25t20 -14t19 -8t11 -5q46 -28 110 -14t133 55 t135 101t116 127t76 132t14 116t-69 78t-173 19q-16 2 -55 -21t-87 -66t-100 -100t-92 -121t-61 -129t-9 -125z" />
<glyph unicode="&#xa5;" horiz-adv-x="1004" d="M188 620q12 24 50 44t93 36t121 25t134 13q2 24 3 49t1 51q-10 24 -44 77t-82 125t-104 153t-107 161t-92 150t-61 118t-13 67t53 -3q36 -32 87 -104t108 -161t116 -183t109 -168t88 -117t54 -31q20 38 52 110l72 162t85 190t90 192t88 170t79 124t62 53t38 -41 q-26 -44 -79 -157t-119 -270t-140 -345t-144 -384q60 -10 103 -29t61 -47q-10 -12 -67 -25t-141 -25q-10 -28 -17 -53t-17 -53h77h79h68h44q16 -8 27 -24t3 -34q-70 -10 -156 -23t-178 -29q-36 -116 -65 -224t-49 -203t-28 -174t-2 -137q-8 -26 -24 -49t-37 -33t-42 1 t-37 55q-30 72 -27 156t24 177t54 195t65 208q-108 -20 -199 -36t-147 -26q-22 -4 -37 -3t-27 7t-23 19t-25 35q-18 26 34 48t135 39t174 30t151 19q6 24 12 47t10 47q-66 -4 -131 -5t-116 3t-86 13t-41 27z" />
<glyph unicode="&#xa6;" horiz-adv-x="282" d="M70 1008q2 64 5 134t5 132t4 107t2 59q0 4 3 30t10 60t16 68t22 55t28 20t33 -35q4 -146 3 -310t-5 -310zM200 880q-4 -128 -10 -229t-11 -197t-8 -197t-1 -229q-16 -34 -41 -30t-43 30q-4 6 -15 28t-13 28q0 32 -1 113t-1 171t1 170t1 112q0 14 1 25t3 32t4 58t4 107z " />
<glyph unicode="&#xa7;" horiz-adv-x="1510" d="M186 48q-30 20 0 53t94 72t148 81t163 80t139 66t76 42q56 48 75 85t10 64t-43 45t-82 32l-236 12q-82 12 -154 33t-107 52t-20 76t107 109q32 22 91 63t129 86t141 86t129 63q-90 14 -174 28t-129 40t-34 67t109 109q36 26 104 74t147 97t157 90t130 51q26 6 55 -4 t46 -28t16 -40t-33 -40q-142 -78 -274 -149t-264 -163q-10 -18 2 -33t28 -23q242 -26 373 -70t179 -98t25 -114t-89 -120t-164 -116t-200 -100q126 -42 167 -94t23 -110t-85 -117t-157 -113t-192 -100t-191 -77t-154 -44t-81 -3zM1070 986q80 70 88 111t-22 58t-79 14 t-81 -21q-140 -78 -272 -149t-264 -161q-12 -28 9 -42t52 -21t65 -10t50 -5q66 36 139 71t139 65t114 54t62 36z" />
<glyph unicode="&#xa8;" horiz-adv-x="1194" d="M276 1064q-36 54 -19 106t57 82t87 24t73 -70q14 -38 -5 -79t-54 -67t-75 -29t-64 33zM634 1078q-36 52 -19 105t57 82t87 23t73 -70q14 -38 -5 -79t-54 -67t-75 -29t-64 35z" />
<glyph unicode="&#xa9;" horiz-adv-x="1706" d="M248 54q-128 90 -181 236t-45 320t69 359t163 353t238 303t292 209t325 71t337 -113q102 -60 152 -161t57 -225t-23 -265t-91 -283t-148 -278t-191 -251t-223 -201t-242 -128t-247 -32t-242 86zM590 464q-74 26 -108 74t-37 110t22 134t67 145t97 143t114 127t117 98 t105 56t80 1t43 -68q4 -30 -7 -65t-32 -68t-47 -60t-51 -41t-45 -10t-28 34q24 38 51 75t55 71q-14 26 -64 -1t-114 -87t-127 -142t-103 -166t-43 -158t55 -118q74 -6 171 19t196 62t190 75t151 60q54 98 94 195t61 187t22 169t-23 137q-30 138 -100 203t-163 72t-202 -38 t-221 -127t-218 -193t-192 -238t-145 -263t-75 -265t17 -245t131 -204q110 -78 232 -70t244 78t236 188t208 258q-76 -36 -165 -68t-174 -54t-158 -29t-117 7z" />
<glyph unicode="&#xaa;" horiz-adv-x="1072" d="M86.4102 495.986q-36.5117 30.1602 -40.7715 89.2754q-4.25977 59.1143 16.4307 132.103q20.6895 72.9883 61.46 153.819q40.7715 80.8301 93.7129 153.818t115.01 130.896q62.0693 57.9082 124.747 86.2588q62.6777 28.3516 122.312 19.9062t108.316 -68.7656 q30.4268 -37.3994 36.5117 -76.0049t-1.82617 -78.417q-7.91016 -39.8125 -24.3408 -80.8311q-16.4297 -41.0176 -32.251 -83.2422t-25.5576 -86.2598q-9.73633 -44.0342 -3.65137 -88.6719q6.08496 -43.4307 32.8604 -59.7178q26.7744 -16.2861 66.9365 -13.2705 q40.1631 3.01562 88.8447 20.5088t98.5801 42.8281t97.3633 53.6855q47.4648 28.3516 83.9756 52.4795q36.5107 24.1289 59.0264 40.415l22.5156 16.2871q42.5957 8.44434 48.0732 -6.03223q5.47656 -14.4766 -16.4307 -41.6211q-21.9062 -27.1445 -66.3281 -62.7344 t-101.015 -68.7656q-56.5928 -33.1768 -120.487 -60.3213t-124.746 -37.3994q-60.8525 -10.2539 -114.402 1.20703t-88.8438 53.6855q-15.8223 18.0957 -24.9492 36.7959q-9.12793 18.6992 -26.167 31.9697q-23.124 -21.7148 -54.7666 -55.4951t-69.3711 -67.5596 t-79.7168 -63.9404q-41.9873 -30.1602 -85.8008 -45.8438t-88.8438 -10.8584q-45.0312 4.82617 -86.4102 39.8125zM103.448 546.656q9.73633 -36.1934 40.1631 -42.2246q30.4258 -6.03223 71.8047 11.4609q41.3799 17.4922 90.6699 55.4951q49.29 38.002 97.3633 91.6875 q48.0732 53.6865 91.8867 118.833t74.8477 136.929q31.0352 71.7822 45.6387 145.977q14.6055 74.1953 3.65137 146.58q-26.7744 21.7158 -65.1113 11.4609q-38.3369 -10.2539 -82.7588 -42.8271q-44.4219 -32.5742 -91.2783 -83.2432q-46.8564 -50.6699 -90.6689 -110.388 q-43.8145 -59.7178 -82.1504 -124.262q-38.3369 -64.543 -64.5039 -123.658q-26.166 -59.1143 -37.7275 -109.784q-11.5625 -50.6699 -1.82617 -82.0361z" />
<glyph unicode="&#xab;" horiz-adv-x="1706" d="M990 28q-202 132 -407 268t-385 298q-40 36 -81 72t-65 74t-20 78t54 86q22 20 68 62t105 95t123 111t123 111t105 95t68 62q12 4 35 0t41 -16t24 -29t-14 -39l-536 -536q-18 -18 -8 -44t36 -57t62 -62t70 -56t61 -43l33 -22q22 -16 68 -47t104 -70t123 -82t123 -82 t105 -69t69 -44q26 -32 30 -63t-8 -51t-40 -22t-66 22zM1486 96q-200 132 -405 268t-385 298q-40 36 -81 72t-65 74t-20 78t54 84q22 20 68 63t105 96t123 111t123 111t105 95t68 62q12 4 35 0t41 -16t24 -30t-14 -38l-538 -538q-18 -16 -7 -43t37 -57t62 -61t70 -56t60 -43 t32 -22q22 -16 68 -47t104 -70t123 -82t123 -82t105 -70t69 -45q26 -32 31 -63t-8 -51t-41 -22t-66 24z" />
<glyph unicode="&#xac;" horiz-adv-x="1288" d="M1176 412q-28 -52 -56 -29t-50 89t-34 160t-6 186q-36 2 -107 -6t-156 -18t-178 -17t-175 -5t-144 19t-88 55q-10 16 26 34t102 36t154 32t182 22t186 7t166 -15t121 -42t53 -74z" />
<glyph unicode="&#xad;" horiz-adv-x="1244" d="M72 706q-32 32 4 62t115 55t189 43t227 28t229 8t195 -17t125 -45t18 -78q-26 0 -90 -4t-137 -8t-137 -8t-90 -6q-62 -6 -152 -30t-184 -40t-179 -12t-133 52z" />
<glyph unicode="&#xae;" horiz-adv-x="1706" d="M248 54q-128 90 -181 236t-45 320t69 359t163 353t238 303t292 209t325 71t337 -113q102 -60 152 -161t57 -225t-23 -265t-91 -283t-148 -278t-191 -251t-223 -201t-242 -128t-247 -32t-242 86zM284 154q98 -72 208 -71t221 54t218 150t199 217t166 254t119 262t57 241 t-20 191q-30 138 -100 203t-163 72t-202 -38t-221 -127t-218 -193t-192 -238t-145 -263t-75 -265t17 -245t131 -204zM340 398q-10 24 14 83t66 135t92 159t92 154t69 121t23 62q-16 4 -33 -3l-34 -14t-33 -9t-28 14t3 29t25 19q206 132 378 186t284 49t151 -60t-24 -142 t-241 -196t-496 -223q-10 -20 38 -49t119 -63t149 -69t129 -69t59 -64t-62 -50q-2 -2 -38 14t-78 36t-78 38t-40 22q-106 76 -177 92t-117 -3t-74 -60t-49 -79t-41 -59t-48 -1zM654 882q210 56 336 118t186 120t63 104t-33 70t-102 18t-144 -51t-159 -137t-147 -242z" />
<glyph unicode="&#xb0;" horiz-adv-x="820" d="M166 1062q-62 24 -79 68t-1 95t55 104t88 97t99 73t88 33q124 16 179 -23t57 -102t-41 -137t-112 -131t-157 -84t-176 7zM182 1174q12 -46 49 -57t84 4t97 49t91 75t65 83t17 73t-50 47t-137 2q-32 -28 -76 -52t-80 -54t-56 -70t-4 -100z" />
<glyph unicode="&#xb1;" horiz-adv-x="950" d="M112 104q-10 10 14 23t70 28t109 29t131 26q-22 70 -27 148t-13 140h-284l-56 70q2 2 10 6t17 9t17 9t12 4q16 4 56 12l85 17t86 17t57 12l54 394q2 14 16 23t29 9t27 -8t12 -24v-366q14 0 51 -4t78 -9t77 -9t50 -6q6 -2 29 -13t27 -17q-26 -42 -71 -56t-92 -20t-88 -16 t-61 -48q-16 -32 -19 -65t0 -65t10 -64t11 -64q82 10 156 13t119 -5t52 -31t-41 -63q-134 -16 -244 -41t-197 -40t-154 -9t-115 54z" />
<glyph unicode="&#xb2;" horiz-adv-x="772" d="M52.3174 349.96q-17.7139 10.1768 -14.2695 21.9189q3.44434 11.7432 14.2695 22.7021q46.2549 43.8389 93.001 84.5469q46.7461 40.707 90.0479 82.9805t81.6826 87.2861q38.3809 45.0137 68.8887 98.2461q15.7461 28.1826 12.7939 41.4902 q-2.95215 13.3086 -17.7139 16.4395q-14.7617 3.13184 -38.3809 -0.782227t-48.7148 -11.3516q-25.0957 -7.43652 -48.2227 -14.874q-23.127 -7.43652 -37.3965 -11.3506q-14.2705 -3.91406 -16.7305 -1.56543q-2.46094 2.34766 14.2695 15.6562 q22.6348 21.1367 55.1113 36.4023q32.4766 15.2646 65.9375 22.3105q33.46 7.0459 63.9678 5.47949q30.5088 -1.56543 49.207 -14.874q18.6982 -13.3076 21.1582 -38.75q2.46094 -25.4424 -20.1748 -65.3672q-26.5713 -46.9697 -66.4287 -87.6777 q-39.8564 -40.707 -82.1748 -79.458q-42.3174 -38.75 -81.1904 -78.6748t-62.4922 -86.1123q19.6826 -4.69629 61.0156 4.30566q41.334 9.00293 93.001 23.4854q51.666 14.4824 107.762 30.1396q56.0957 15.6562 106.778 24.2676t90.0479 6.6543t57.0801 -22.3105 q1.96777 -2.34863 1.96777 -11.3516t-1.96777 -11.3516q-37.3975 5.48047 -89.0645 -3.91406q-51.666 -9.39355 -109.73 -25.0508q-58.0635 -15.6562 -119.08 -33.6621q-61.0156 -18.0049 -116.619 -29.7471q-55.6035 -11.7432 -101.857 -12.917 q-46.2539 -1.1748 -75.7783 16.8311z" />
<glyph unicode="&#xb3;" horiz-adv-x="564" d="M32.4531 502.067q-2.28809 5.35645 -5.71973 11.7842t-4.5752 12.3203q-1.14453 5.8916 0.762695 11.7832q1.90625 5.89258 9.53223 9.10645q9.91309 4.28516 22.1143 2.14258t25.165 -6.96387q12.9639 -4.82031 25.5459 -9.10547q12.583 -4.28516 24.0215 -2.14258 q14.4883 2.14258 40.0352 16.6055q25.5459 14.4619 56.0488 36.959t62.9121 51.4219t61.3877 60.5273q28.9775 31.6035 51.4736 63.207q22.4951 31.6025 32.79 60.5273t5.71973 51.957q-4.5752 23.0332 -30.5029 38.0312q-17.5391 4.28516 -44.9922 -4.28516 q-27.4521 -8.57031 -57.9551 -21.9609q-30.5029 -13.3916 -61.0059 -25.7109q-30.5029 -12.3203 -53.3809 -15.5342q-22.877 -3.21387 -35.0781 7.49902t-6.10059 43.9229q12.9639 20.3545 34.3154 51.958q21.3525 31.6025 43.4668 68.5625q22.1152 36.959 42.3232 76.5967 t30.8838 74.9902q-0.761719 0 -15.6328 -5.8916q-14.8701 -5.89258 -35.8408 -12.8555q-20.9707 -6.96387 -44.6104 -12.3203t-41.5605 -5.35645q-17.9199 0 -25.9268 8.03418q-8.00684 8.03516 1.90625 28.3896q1.52539 4.28516 19.8271 19.2832t44.2285 32.6748 q25.9277 17.6758 56.0498 34.2812q30.1211 16.6045 56.0488 23.5684q25.9277 6.96289 43.4668 0.535156t18.3018 -34.8164q0.762695 -28.3896 -18.6836 -83.0254q-19.4453 -54.6357 -68.25 -142.481v-46.0654q76.2578 8.57031 119.343 -10.1777 q43.085 -18.7471 58.7178 -53.5645q15.6328 -34.8164 7.24512 -81.9531q-8.38867 -47.1367 -35.0791 -96.9512q-26.6895 -49.8154 -69.3936 -96.9521t-95.3213 -81.9541q-52.6182 -34.8164 -112.48 -53.0283q-59.8613 -18.2119 -120.867 -9.6416 q-1.52539 1.07129 -5.71973 7.49902t-4.95605 8.57031z" />
<glyph unicode="&#xb4;" horiz-adv-x="582" d="M212 1076q-84 -60 -117 -60t-29 35t38 93t86 112t114 93t122 35q16 -74 -1 -109t-52 -59t-79 -52t-82 -88z" />
<glyph unicode="&#xb5;" horiz-adv-x="1002" d="M492 -480q-40 224 -97 416t-114 351t-109 285t-82 219t-32 153t38 86q22 -24 74 -102t119 -177t144 -206t150 -191t137 -130t106 -24q12 58 -13 134t-67 158t-90 166t-79 157t-35 129t40 86q18 -18 54 -75t79 -137t87 -172t77 -178t50 -158t7 -110q-22 -84 -57 -115 t-78 -26t-92 40t-98 83t-96 101t-86 96t-68 66t-43 11q-6 -44 20 -124t66 -178t84 -201t74 -191t37 -152t-29 -82z" />
<glyph unicode="&#xb6;" horiz-adv-x="1398" d="M478 -96q-2 4 -2 13t2 13q10 20 32 60t50 90t58 105t58 105t50 90t34 60q26 48 49 87t55 102t81 163t127 268q-112 -12 -174 10q-20 -56 -56 -140t-82 -183t-100 -205t-109 -207t-108 -189t-98 -148t-79 -87t-50 -5q-10 42 4 96t38 110t51 108t45 92q14 28 50 101t77 157 t77 161t50 117q-44 14 -90 13t-89 -7t-83 -10t-71 4t-51 35t-24 83q-8 98 38 169t129 116t195 64t240 12t262 -38t262 -87q-16 -34 -54 -118t-92 -195t-119 -240t-133 -253t-136 -233t-128 -181t-109 -97t-77 19z" />
<glyph unicode="&#xb7;" horiz-adv-x="804" d="M390 544q-32 52 -32 104t22 96t59 73t77 35t77 -17t59 -85q14 -36 6 -76t-30 -74t-54 -61t-65 -37t-65 -2t-54 44z" />
<glyph unicode="&#xb8;" horiz-adv-x="606" d="M130 -394q-8 24 6 36t42 20t63 13t68 12t60 18t39 31q16 30 5 45t-35 22t-56 10t-60 10t-45 23t-13 50q-10 56 -7 103t14 66t30 0t41 -93q10 -32 38 -49t63 -28t71 -19t62 -20t37 -33t-5 -59q-4 -20 -47 -62t-103 -79t-126 -55t-114 10q-6 2 -16 13t-12 15z" />
<glyph unicode="&#xb9;" horiz-adv-x="494" d="M34.4805 412.945q-25.126 20.5 -22.334 58.084t18.1465 76.877t34.8965 73.46q19.542 34.168 27.918 48.9736q5.58301 11.3887 22.334 44.9873q16.75 33.5977 38.3857 78.0156q21.6367 44.418 47.46 95.0996q25.8242 50.6816 47.46 95.0996 q21.6357 44.417 38.3867 77.4463q16.75 33.0283 22.334 44.418q4.1875 9.11133 10.4688 27.9033t14.6572 39.8613q8.375 21.0703 19.542 39.8623t24.4277 28.4727q13.2607 9.68164 30.709 5.125q17.4482 -4.55469 38.3867 -29.6113q1.39551 -1.13867 -13.2607 -36.4453 q-14.6572 -35.3066 -39.7822 -92.8213q-25.126 -57.5156 -57.9287 -130.406q-32.8037 -72.8906 -67.7002 -149.198q-34.8975 -76.3066 -68.3975 -149.768q-33.502 -73.46 -60.7207 -130.975q-27.2197 -57.5156 -45.3662 -93.3916t-22.334 -37.0146 q-2.79199 -1.13867 -17.4482 4.55566q-14.6572 5.69434 -20.2402 11.3896z" />
<glyph unicode="&#xba;" horiz-adv-x="820" d="M166 1062q-62 24 -79 68t-1 95t55 104t88 97t99 73t88 33q124 16 179 -23t57 -102t-41 -137t-112 -131t-157 -84t-176 7zM182 1174q12 -46 49 -57t84 4t97 49t91 75t65 83t17 73t-50 47t-137 2q-32 -28 -76 -52t-80 -54t-56 -70t-4 -100z" />
<glyph unicode="&#xbb;" horiz-adv-x="1472" d="M98 58q-24 48 10 108t99 127t146 139t148 144t108 141t25 131q-2 6 -46 42t-109 88t-139 113t-136 119t-101 104t-33 70q0 6 7 15t16 18t18 16t15 7q54 -42 136 -94t170 -114t168 -131t128 -143t51 -152t-61 -156q-20 -26 -58 -71t-84 -100t-95 -114t-92 -110t-76 -90 t-45 -53l-22 -22l-34 -34t-35 -34t-23 -22q-4 2 -12 10l-17 17t-17 18t-10 13zM644 72q-24 48 10 108t99 127t145 139t148 144t109 141t25 131q-2 6 -46 42t-109 88t-139 113t-137 119t-102 104t-33 70q0 6 8 15t17 18t18 16t15 7q52 -40 135 -93t170 -115t168 -131 t129 -143t51 -152t-61 -156q-20 -26 -58 -71t-84 -100t-95 -113t-92 -110t-76 -91t-45 -53q-6 -6 -23 -22t-35 -34t-35 -34t-23 -22q-4 2 -12 10l-17 17t-16 18t-9 13z" />
<glyph unicode="&#xbc;" horiz-adv-x="1686" d="M102.719 422.788q-22.1699 17.7275 -19.707 50.2275q2.46387 32.501 16.0117 66.4785q13.5488 33.9785 30.793 63.5234q17.2432 29.5469 24.6338 42.3496q4.92676 9.84863 19.707 38.9023q14.7803 29.0527 33.8711 67.4629t41.8779 82.2363 q22.7861 43.8262 41.877 82.2363q19.0918 38.4092 33.8711 66.9707q14.7812 28.5605 19.707 38.4092q3.69531 7.87891 9.23828 24.1289q5.54297 16.251 12.9326 34.4707t17.2432 34.4697t21.5547 24.6221q11.7012 8.37109 27.0977 4.43164t33.8711 -25.6064 q1.23242 -0.984375 -11.7012 -31.5156q-12.9326 -30.5312 -35.1025 -80.2666q-22.1709 -49.7354 -51.1152 -112.767t-59.7373 -129.018q-30.792 -65.9854 -60.3525 -129.509q-29.5605 -63.5244 -53.5781 -113.26q-24.0186 -49.7354 -40.0303 -80.7588t-19.707 -32.0078 q-2.46289 -0.984375 -15.3965 3.93945q-12.9326 4.92383 -17.8594 9.84863zM319.571 76.6055q-13.123 94.6465 6.56152 225.771q19.6846 131.124 59.874 279.995q40.1885 148.871 95.9619 306.615t114.007 306.615t113.186 277.038q54.9531 128.167 95.9629 220.842 q21.3252 17.7461 36.9082 7.8877q15.584 -9.85938 23.7861 -31.5488q8.20117 -21.6904 10.6621 -48.3096t-0.820312 -40.4219q-8.20215 -21.6895 -24.6055 -65.0693q-16.4043 -43.3799 -36.9092 -98.5898q-20.5049 -55.2109 -43.4697 -115.351t-43.4697 -115.351 q-20.5049 -55.21 -36.9092 -98.5898q-16.4033 -43.3799 -22.9648 -63.0977q-9.84277 -23.6621 -30.3477 -83.8018q-20.5039 -60.1396 -42.6494 -127.182q-22.1455 -67.041 -41.0098 -126.195q-18.8643 -59.1533 -25.4258 -80.8438q-9.84277 -33.5205 -24.6055 -104.505 q-14.7637 -70.9854 -31.9873 -150.843q-17.2246 -79.8584 -38.5488 -155.772q-21.3252 -75.915 -44.291 -119.294q-4.9209 -7.8877 -14.7637 -16.7607q-9.8418 -8.87305 -21.3242 -11.8311q-11.4824 -2.95703 -20.5049 1.97266q-9.02246 4.92871 -12.3027 26.6191z M799.59 58.1172q-6.98633 27.1162 -1.16406 53.7656q5.82227 26.6484 17.4668 53.2979t26.1992 53.2988q14.5557 26.6494 26.2002 52.8311q11.6436 26.1816 16.3018 51.8955q4.65723 25.7139 -3.49316 51.8955q-30.2754 3.74023 -66.9551 -4.20801t-76.8525 -19.6357 q-40.1719 -11.6885 -81.5098 -23.377q-41.3369 -11.6875 -78.5986 -15.8955t-69.2832 2.80469q-32.0225 7.0127 -52.9814 33.1943q-18.6309 22.4414 -15.1377 52.8311t21.542 64.9873q18.0479 34.5967 45.9941 71.5312q27.9463 36.9355 55.8926 73.4023t52.3994 70.5967 t36.0977 63.1162q33.7686 6.5459 48.3232 0q14.5557 -6.54492 16.8848 -21.0381t-5.24023 -34.5977q-7.56836 -20.1035 -19.2129 -39.7393q-11.6445 -19.6367 -23.2891 -36.9355q-11.6436 -17.2988 -17.4658 -26.6484q-6.98633 -10.2861 -23.2891 -34.5977 q-16.3018 -24.3115 -34.3506 -51.4277q-18.0488 -27.1172 -34.3506 -51.4287t-23.2881 -33.6621v-27.1162q34.9326 -2.80566 73.9414 2.33691q39.0078 5.14355 78.0166 14.0264q39.0078 8.88281 75.6875 19.168q36.6797 10.2861 68.1191 17.7666 q71.0303 15.8955 114.114 48.623t71.0303 76.6748t48.3232 96.3105q20.3779 52.3633 47.1592 108.467q33.7686 9.35156 43.084 -6.54492t2.91113 -45.3506t-22.7061 -67.3242t-33.1865 -73.4014q-16.8838 -35.5332 -29.6924 -62.6494q-12.8096 -27.1162 -10.4805 -35.5322 q23.2891 7.48047 47.7422 0.467773q24.4521 -7.0127 34.9326 -26.6494q-9.31543 -15.8965 -28.5283 -21.9736q-19.2139 -6.07812 -41.3379 -10.2861q-22.124 -4.20703 -43.666 -10.7529t-34.3506 -23.376q-30.2754 -38.3379 -51.8164 -80.416 q-21.542 -42.0771 -39.0088 -86.4922q-17.4668 -44.416 -30.8574 -89.2988t-26.1992 -86.96q-4.6582 -1.87012 -12.2266 -2.33789q-7.56934 -0.467773 -15.7197 0.935547q-8.15137 1.40234 -14.5557 5.14258t-7.56934 10.2861z" />
<glyph unicode="&#xbd;" horiz-adv-x="1422" d="M20.915 419.496q-17.9473 18.6367 -15.9531 52.8047t12.9619 69.8896t24.9268 66.7832q13.959 31.0625 19.9414 44.5225q3.98828 10.3535 15.9531 40.8984q11.9648 30.5439 27.4189 70.9248q15.4551 40.3809 33.9004 86.4561q18.4463 46.0752 33.9004 86.4561 q15.4551 40.3799 27.4199 70.4072q11.9648 30.0264 15.9531 40.3809q2.99121 8.2832 7.47852 25.3672q4.48633 17.084 10.4688 36.2383q5.98242 19.1553 13.959 36.2393t17.4492 25.8848q9.47168 8.80176 21.9355 4.65918q12.4629 -4.14062 27.4189 -26.9199 q0.99707 -1.03516 -9.47168 -33.1328q-10.4697 -32.0977 -28.417 -84.3848q-17.9473 -52.2881 -41.3779 -118.554q-23.4316 -66.2656 -48.3584 -135.638q-24.9268 -69.3711 -48.8564 -136.155q-23.9297 -66.7832 -43.373 -119.07q-19.4424 -52.2881 -32.4043 -84.9033 t-15.9531 -33.6504q-1.99414 -1.03516 -12.4629 4.1416q-10.4697 5.17676 -14.458 10.3545zM162.358 20.3945q-12.5127 97.3535 6.25684 232.229q18.7686 134.876 57.0889 288.005t91.499 315.385t108.704 315.385t107.922 284.962q52.3975 131.833 91.499 227.158 q20.333 18.2539 35.1924 8.1123q14.8584 -10.1406 22.6787 -32.4512q7.82031 -22.3096 10.167 -49.6904q2.3457 -27.3809 -0.782227 -41.5781q-7.82031 -22.3105 -23.4609 -66.9307q-15.6416 -44.6201 -35.1924 -101.41q-19.5508 -56.7891 -41.4482 -118.649 t-41.4482 -118.649q-19.5508 -56.79 -35.1924 -101.41q-15.6406 -44.6201 -21.8965 -64.9023q-9.38477 -24.3379 -28.9355 -86.1982q-19.5518 -61.8604 -40.667 -130.818q-21.1152 -68.959 -39.1016 -129.805q-17.9873 -60.8467 -24.2432 -83.1562 q-9.38477 -34.4795 -23.4619 -107.495q-14.0771 -73.0146 -30.5 -155.157q-16.4229 -82.1416 -36.7559 -160.228q-20.333 -78.085 -42.2305 -122.706q-4.69238 -8.1123 -14.0762 -17.2393q-9.38477 -9.12695 -20.333 -12.1689q-10.9492 -3.04297 -19.5518 2.02734 q-8.60254 5.07129 -11.7305 27.3809zM394.716 114.564q-20.3926 13.5234 -16.4268 29.127q3.96484 15.6045 16.4268 30.1689q53.248 58.2559 107.062 112.351t103.664 110.27q49.8486 56.1758 94.0332 115.992t79.3057 130.555q18.127 37.4512 14.7275 55.1357 q-3.39844 17.6846 -20.3926 21.8457t-44.1846 -1.04004t-56.0801 -15.084t-55.5137 -19.7656t-43.0518 -15.084t-19.2598 -2.08105q-2.83203 3.12109 16.4277 20.8057q26.0576 28.0879 63.4443 48.373q37.3867 20.2861 75.9062 29.6484t73.6406 7.28223 q35.1211 -2.08105 56.6475 -19.7656q21.5254 -17.6846 24.3574 -51.4941q2.83301 -33.8096 -23.2246 -86.8633q-30.5898 -62.417 -76.4736 -116.512t-94.5996 -105.589q-48.7168 -51.4941 -93.4668 -104.549q-44.751 -53.0547 -71.9414 -114.431 q22.6582 -6.24219 70.2412 5.72168q47.584 11.9629 107.062 31.208q59.4795 19.2451 124.057 40.0508t122.923 32.249q58.3467 11.4434 103.664 8.84277t65.71 -29.6484q2.26562 -3.12109 2.26562 -15.084q0 -11.9639 -2.26562 -15.084q-43.0518 7.28223 -102.53 -5.20215 q-59.4795 -12.4824 -126.322 -33.2891q-66.8438 -20.8047 -137.085 -44.7314q-70.2422 -23.9268 -134.253 -39.5312t-117.259 -17.1641q-53.248 -1.56055 -87.2363 22.3662z" />
<glyph unicode="&#xbe;" horiz-adv-x="1686" d="M35.1523 492.168q-2.5957 5.8916 -6.48926 12.9609q-3.89453 7.06934 -5.19238 13.5498q-1.29785 6.47949 0.865234 12.96t10.8164 10.0156q11.25 4.71289 25.0957 2.35547q13.8457 -2.35547 28.5566 -7.6582q14.7109 -5.30176 28.9893 -10.0146t27.2588 -2.35645 q16.4424 2.35645 45.4316 18.2627q28.9893 15.9053 63.6035 40.6484t71.3916 56.5547q36.7783 31.8115 69.6611 66.5693q32.8838 34.7578 58.4121 69.5156t37.21 66.5693q11.6826 31.8115 6.49023 57.1436t-34.6143 41.8271q-19.9033 4.71289 -51.0557 -4.71289 q-31.1533 -9.42578 -65.7676 -24.1533q-34.6143 -14.7285 -69.2285 -28.2773q-34.6143 -13.5498 -60.5742 -17.084q-25.9609 -3.53516 -39.8066 8.24707t-6.92285 48.3076q14.7109 22.3857 38.9414 57.1436q24.2295 34.7568 49.3252 75.4062 q25.0947 40.6484 48.0273 84.2432q22.9316 43.5938 35.0469 82.4746q-0.866211 0 -17.7402 -6.47949q-16.874 -6.48047 -40.6719 -14.1387q-23.7969 -7.65918 -50.623 -13.5498t-47.1621 -5.89062t-29.4219 8.83594q-9.08691 8.83691 2.16309 31.2227 q1.73047 4.71289 22.499 21.209q20.7686 16.4941 50.1914 35.9355q29.4219 19.4404 63.6035 37.7031q34.1816 18.2617 63.6035 25.9209q29.4219 7.6582 49.3252 0.588867t20.7686 -38.292q0.865234 -31.2236 -21.2012 -91.3125t-77.4492 -156.704v-50.6631 q86.5352 9.42578 135.428 -11.1934q48.8936 -20.6182 66.6328 -58.9111q17.7402 -38.292 8.2207 -90.1338q-9.51855 -51.8418 -39.8057 -106.629q-30.2881 -54.7881 -78.748 -106.63t-108.17 -90.1338q-59.709 -38.292 -127.64 -58.3213 q-67.9307 -20.0303 -137.159 -10.6045q-1.73047 1.17871 -6.49023 8.24707q-4.75879 7.07031 -5.625 9.42578zM346.511 42.6582q-10.8994 98.2559 5.44922 234.381q16.3496 136.125 49.7285 290.674q33.3799 154.548 79.7021 318.308t94.6885 318.309 q48.3662 154.548 94.0078 287.603t79.7021 229.264q17.7109 18.4229 30.6543 8.18848q12.9434 -10.2354 19.7549 -32.752q6.8125 -22.5176 8.85645 -50.1514q2.04297 -27.6348 -0.681641 -41.9639q-6.8125 -22.5166 -20.4365 -67.5508t-30.6543 -102.35 q-17.0303 -57.3164 -36.1045 -119.75q-19.0742 -62.4326 -36.1045 -119.749q-17.0303 -57.3154 -30.6543 -102.35t-19.0742 -65.5039q-8.1748 -24.5645 -25.2051 -86.9971q-17.0303 -62.4336 -35.4229 -132.032q-18.3926 -69.5977 -34.0605 -131.008 q-15.668 -61.4092 -21.1172 -83.9268q-8.1748 -34.7988 -20.4365 -108.49q-12.2627 -73.6924 -26.5674 -156.596q-14.3057 -82.9033 -32.0176 -161.713q-17.7109 -78.8096 -36.7852 -123.843q-4.08789 -8.18848 -12.2617 -17.3994q-8.1748 -9.21191 -17.7119 -12.2822 t-17.0303 2.04688t-10.2178 27.6348zM814.394 55.002q-6.65723 34.002 -1.10938 67.418t16.6436 66.832q11.0967 33.416 24.9668 66.8311q13.8701 33.416 24.9668 66.2461q11.0957 32.8291 15.5342 65.0723t-3.3291 65.0732q-28.8496 4.68945 -63.8027 -5.27637 t-73.2344 -24.6221q-38.2822 -14.6562 -77.6738 -29.3125q-39.3916 -14.6553 -74.8994 -19.9316t-66.0225 3.51758q-30.5137 8.79297 -50.4873 41.623q-17.7539 28.1396 -14.4248 66.2451q3.32812 38.1064 20.5273 81.4883t43.8301 89.6943q26.6309 46.3135 53.2617 92.041 q26.6309 45.7266 49.9336 88.5225q23.3018 42.7959 34.3975 79.1426q32.1787 8.20703 46.0498 0q13.8701 -8.20801 16.0889 -26.3809q2.21973 -18.1738 -4.99316 -43.3818q-7.21289 -25.209 -18.3086 -49.8311t-22.1924 -46.3135q-11.0967 -21.6904 -16.6445 -33.415 q-6.65723 -12.8975 -22.1924 -43.3818q-15.5342 -30.4854 -32.7334 -64.4873t-32.7334 -64.4863q-15.5352 -30.4854 -22.1934 -42.21v-34.002q33.2891 -3.51758 70.4609 2.93164q37.1729 6.44824 74.3447 17.5869q37.1729 11.1387 72.125 24.0361 q34.9531 12.8975 64.9131 22.2773q67.6865 19.9316 108.742 60.9688q41.0566 41.0371 67.6875 96.1445q26.6309 55.1064 46.0488 120.766t44.9395 136.008q32.1797 11.7256 41.0566 -8.20703t2.77344 -56.8652q-6.10254 -36.9336 -21.6377 -84.4189 q-15.5342 -47.4863 -31.624 -92.04q-16.0898 -44.5547 -28.2949 -78.5566q-12.2061 -34.002 -9.98633 -44.5547q22.1914 9.37988 45.4941 0.585938q23.3018 -8.79297 33.2881 -33.416q-8.87695 -19.9316 -27.1855 -27.5527t-39.3916 -12.8975 q-21.082 -5.27637 -41.6104 -13.4834q-20.5283 -8.20801 -32.7334 -29.3125q-28.8506 -48.0723 -49.3789 -100.834q-20.5273 -52.7617 -37.1719 -108.454q-16.6445 -55.6934 -29.4053 -111.973t-24.9658 -109.041q-4.43848 -2.34473 -11.6514 -2.93164 q-7.21191 -0.585938 -14.9795 1.17285t-13.8701 6.44824q-6.10352 4.69043 -7.21289 12.8975z" />
<glyph unicode="&#xbf;" horiz-adv-x="1016" d="M341.897 1565.36q9.28809 -22.3135 14.9639 -46.3438q5.67578 -24.0293 0.515625 -51.4922q-9.28711 -48.0605 -19.0908 -48.0605t-17.5439 25.7471q-7.74023 25.7461 -11.3516 63.5078q-3.6123 37.7607 -2.06445 64.3662q1.54785 26.6045 9.80371 30.8955 t24.7676 -38.6201zM359.441 1036.7q7.22363 -44.627 -13.416 -100.411t-58.3066 -118.434q-37.668 -62.6504 -88.2344 -128.732q-50.5674 -66.083 -104.23 -132.165q-53.6631 -66.083 -105.262 -129.591q-51.5996 -63.5078 -91.8467 -121.009 q-40.2471 -57.5 -63.9834 -105.561q-23.7354 -48.0596 -22.1875 -83.2461q1.54785 -35.1875 34.0557 -54.9258q32.5068 -19.7393 105.778 -19.7393h349.842q9.28809 -34.3291 1.54785 -65.2246q-7.73926 -30.8955 -31.4756 -30.8955h-364.289q-31.9922 0 -70.1758 30.0371 q-38.1826 30.0381 -65.5303 78.0977q-27.3477 48.0605 -34.0557 108.994q-6.70801 60.9326 24.252 121.008q39.2148 77.2393 86.6865 138.173q47.4707 60.9336 98.5537 115.859q51.084 54.9258 103.715 106.418q52.6309 51.4932 100.618 109.852 q47.9873 58.3594 90.2979 127.017q42.3115 68.6572 73.2715 154.479q4.12793 8.58203 10.3193 16.3057q6.19238 7.72461 13.416 9.44043q7.22363 1.7168 12.8994 -3.43262t7.74023 -22.3135z" />
<glyph unicode="&#xc0;" horiz-adv-x="2118" d="M-196 -462q-8 6 -24 24t-26 37t-8 35t28 16q40 -54 104 -57t142 30t163 95t167 136t157 154t132 151t91 124t34 73q0 8 -21 24t-46 33t-48 32t-27 23q8 24 48 39t90 26t98 22t74 27q88 128 161 238t136 212t122 199t120 200t127 216t146 245q32 54 52 37t31 -84t13 -172 t-1 -225t-9 -244t-11 -229t-9 -181t-2 -100q8 -126 12 -220t25 -173t69 -153t148 -160q-82 -26 -135 5t-87 94t-55 147t-41 162t-43 138t-63 76q-4 0 -15 1t-24 1t-26 -1t-19 -1q-14 -4 -47 -11t-77 -18t-93 -23t-95 -24t-83 -21t-57 -15q-62 -16 -131 -79t-145 -152 t-157 -194t-166 -205t-173 -186t-176 -137t-176 -58t-174 51zM1160 638q6 -2 27 -2t27 2q44 6 112 16t137 24t126 33t79 41l7 52t17 133t21 181t21 195t17 176t9 125q-26 12 -72 -63t-117 -208t-172 -310t-239 -365v-30zM1890 1952q-34 60 -72 84t-67 45t-43 54t0 107 q54 4 110 -33t102 -90t75 -108t31 -89t-29 -33t-107 63z" />
<glyph unicode="&#xc1;" horiz-adv-x="2118" d="M-196 -462q-8 6 -24 24t-26 37t-8 35t28 16q40 -54 104 -57t142 30t163 95t167 136t157 154t132 151t91 124t34 73q0 8 -21 24t-46 33t-48 32t-27 23q8 24 48 39t90 26t98 22t74 27q88 128 161 238t136 212t122 199t120 200t127 216t146 245q32 54 52 37t31 -84t13 -172 t-1 -225t-9 -244t-11 -229t-9 -181t-2 -100q8 -126 12 -220t25 -173t69 -153t148 -160q-82 -26 -135 5t-87 94t-55 147t-41 162t-43 138t-63 76q-4 0 -15 1t-24 1t-26 -1t-19 -1q-14 -4 -47 -11t-77 -18t-93 -23t-95 -24t-83 -21t-57 -15q-62 -16 -131 -79t-145 -152 t-157 -194t-166 -205t-173 -186t-176 -137t-176 -58t-174 51zM1160 638q6 -2 27 -2t27 2q44 6 112 16t137 24t126 33t79 41l7 52t17 133t21 181t21 195t17 176t9 125q-26 12 -72 -63t-117 -208t-172 -310t-239 -365v-30zM1662 1874q-84 -60 -117 -60t-29 35t38 93t86 112 t114 93t122 35q16 -74 -1 -109t-52 -59t-79 -52t-82 -88z" />
<glyph unicode="&#xc2;" horiz-adv-x="2118" d="M-196 -462q-8 6 -24 24t-26 37t-8 35t28 16q40 -54 104 -57t142 30t163 95t167 136t157 154t132 151t91 124t34 73q0 8 -21 24t-46 33t-48 32t-27 23q8 24 48 39t90 26t98 22t74 27q88 128 161 238t136 212t122 199t120 200t127 216t146 245q32 54 52 37t31 -84t13 -172 t-1 -225t-9 -244t-11 -229t-9 -181t-2 -100q8 -126 12 -220t25 -173t69 -153t148 -160q-82 -26 -135 5t-87 94t-55 147t-41 162t-43 138t-63 76q-4 0 -15 1t-24 1t-26 -1t-19 -1q-14 -4 -47 -11t-77 -18t-93 -23t-95 -24t-83 -21t-57 -15q-62 -16 -131 -79t-145 -152 t-157 -194t-166 -205t-173 -186t-176 -137t-176 -58t-174 51zM1160 638q6 -2 27 -2t27 2q44 6 112 16t137 24t126 33t79 41l7 52t17 133t21 181t21 195t17 176t9 125q-26 12 -72 -63t-117 -208t-172 -310t-239 -365v-30zM1902 1890q-6 8 -19 47t-31 79t-37 66t-35 8 q-6 -12 -23 -40t-41 -63t-54 -69t-62 -58t-66 -32t-64 14q-14 8 -27 22t-3 32q12 22 44 48t68 53t67 54t43 49q56 118 102 161t82 35t62 -54t42 -107t21 -125t-1 -107t-23 -52t-45 39z" />
<glyph unicode="&#xc3;" horiz-adv-x="2118" d="M-196 -462q-8 6 -24 24t-26 37t-8 35t28 16q40 -54 104 -57t142 30t163 95t167 136t157 154t132 151t91 124t34 73q0 8 -21 24t-46 33t-48 32t-27 23q8 24 48 39t90 26t98 22t74 27q88 128 161 238t136 212t122 199t120 200t127 216t146 245q32 54 52 37t31 -84t13 -172 t-1 -225t-9 -244t-11 -229t-9 -181t-2 -100q8 -126 12 -220t25 -173t69 -153t148 -160q-82 -26 -135 5t-87 94t-55 147t-41 162t-43 138t-63 76q-4 0 -15 1t-24 1t-26 -1t-19 -1q-14 -4 -47 -11t-77 -18t-93 -23t-95 -24t-83 -21t-57 -15q-62 -16 -131 -79t-145 -152 t-157 -194t-166 -205t-173 -186t-176 -137t-176 -58t-174 51zM1160 638q6 -2 27 -2t27 2q44 6 112 16t137 24t126 33t79 41l7 52t17 133t21 181t21 195t17 176t9 125q-26 12 -72 -63t-117 -208t-172 -310t-239 -365v-30zM1996 1736q-54 10 -88 39t-55 67t-33 77t-26 66 t-31 37t-48 -11t-79 -79t-122 -166q-50 -30 -67 -14t-9 57t37 99t72 113t96 96t109 51t112 -22t104 -126q24 -106 65 -147t94 -38t117 40t131 85t136 96t135 76q14 -24 -15 -70t-85 -100t-131 -107t-152 -89t-148 -48t-119 18z" />
<glyph unicode="&#xc4;" horiz-adv-x="2118" d="M-196 -462q-8 6 -24 24t-26 37t-8 35t28 16q40 -54 104 -57t142 30t163 95t167 136t157 154t132 151t91 124t34 73q0 8 -21 24t-46 33t-48 32t-27 23q8 24 48 39t90 26t98 22t74 27q88 128 161 238t136 212t122 199t120 200t127 216t146 245q32 54 52 37t31 -84t13 -172 t-1 -225t-9 -244t-11 -229t-9 -181t-2 -100q8 -126 12 -220t25 -173t69 -153t148 -160q-82 -26 -135 5t-87 94t-55 147t-41 162t-43 138t-63 76q-4 0 -15 1t-24 1t-26 -1t-19 -1q-14 -4 -47 -11t-77 -18t-93 -23t-95 -24t-83 -21t-57 -15q-62 -16 -131 -79t-145 -152 t-157 -194t-166 -205t-173 -186t-176 -137t-176 -58t-174 51zM1160 638q6 -2 27 -2t27 2q44 6 112 16t137 24t126 33t79 41l7 52t17 133t21 181t21 195t17 176t9 125q-26 12 -72 -63t-117 -208t-172 -310t-239 -365v-30zM1536 2000q-36 54 -19 106t57 82t87 24t73 -70 q14 -38 -5 -79t-54 -67t-75 -29t-64 33zM1894 2014q-36 52 -19 105t57 82t87 23t73 -70q14 -38 -5 -79t-54 -67t-75 -29t-64 35z" />
<glyph unicode="&#xc5;" horiz-adv-x="2118" d="M-196 -462q-8 6 -24 24t-26 37t-8 35t28 16q40 -54 104 -57t142 30t163 95t167 136t157 154t132 151t91 124t34 73q0 8 -21 24t-46 33t-48 32t-27 23q8 24 48 39t90 26t98 22t74 27q88 128 161 238t136 212t122 199t120 200t127 216t146 245q32 54 52 37t31 -84t13 -172 t-1 -225t-9 -244t-11 -229t-9 -181t-2 -100q8 -126 12 -220t25 -173t69 -153t148 -160q-82 -26 -135 5t-87 94t-55 147t-41 162t-43 138t-63 76q-4 0 -15 1t-24 1t-26 -1t-19 -1q-14 -4 -47 -11t-77 -18t-93 -23t-95 -24t-83 -21t-57 -15q-62 -16 -131 -79t-145 -152 t-157 -194t-166 -205t-173 -186t-176 -137t-176 -58t-174 51zM1160 638q6 -2 27 -2t27 2q44 6 112 16t137 24t126 33t79 41l7 52t17 133t21 181t21 195t17 176t9 125q-26 12 -72 -63t-117 -208t-172 -310t-239 -365v-30zM1606 1888q-62 24 -78 66t1 91t58 99t90 92t100 70 t89 32q124 16 178 -21t55 -98t-43 -133t-114 -127t-159 -80t-177 9zM1642 2038q12 -66 62 -72t110 22t113 77t71 91t-15 65t-145 -1q-32 -28 -63 -47t-58 -38t-47 -41t-28 -56z" />
<glyph unicode="&#xc6;" horiz-adv-x="3982" d="M1376 -242q-14 12 8 28q24 90 51 171t57 161q14 60 24 112t13 94t-2 70t-21 40q-4 0 -15 3t-24 5t-26 5t-19 3q-22 0 -77 21t-119 46t-124 45t-90 18q-64 -4 -144 -52t-172 -121t-192 -160t-203 -169t-205 -149t-199 -101t-184 -24t-161 84q-6 6 -18 27t-18 43t-1 37 t31 9q28 -62 90 -77t144 3t178 62t191 101t184 122t159 123t114 104t48 66q2 8 -15 27t-39 41t-42 41t-22 29q12 20 54 27t93 8t100 2t77 13q112 108 202 190t168 151t151 132t150 133t163 154t194 196q66 70 104 81t52 -22t9 -103t-23 -164q84 32 203 66t253 65t275 57 t271 43t241 23t183 -3t98 -36t-12 -77q-22 -6 -46 -1t-49 12t-51 13t-52 4q-120 -10 -235 -35t-231 -54t-231 -59t-235 -50q-124 -20 -208 -54t-137 -80t-81 -102t-42 -123t-19 -145t-13 -164q28 -6 104 12t175 43t208 52t206 38t170 0t97 -59q2 -4 2 -14t-2 -14 q-132 -20 -273 -36t-280 -40t-272 -65t-249 -113q-2 -4 -4 -6t-4 -6q-4 -18 -7 -34t-7 -30q-28 -144 -79 -299t-103 -299q74 20 155 39t152 34t120 24t61 11q212 34 409 53t409 5q18 -4 25 -20t9 -34t0 -35t-4 -25q-274 14 -541 -21t-535 -93q-28 -6 -66 -20t-79 -29 t-85 -30t-84 -21q-48 -144 -68 -243t16 -127q-56 -6 -84 22t-36 82t0 128t26 158q-6 4 -11 10t-7 16zM1096 708q4 -4 25 -8t27 -2q44 -4 103 -32t112 -60t91 -58l38 -26l68 46q0 2 2 4l4 12q-10 18 -12 36t20 40q4 4 20 6q22 66 53 161t62 191t56 182t37 134 q-10 -20 -36 -55t-99 -101t-207 -173t-360 -269z" />
<glyph unicode="&#xc7;" horiz-adv-x="1582" d="M268 28q-122 48 -183 123t-73 169t18 202t89 223t142 232t177 228t193 212t191 184t170 144t130 93q90 54 150 54t96 -37t50 -101t13 -136t-15 -143t-35 -124t-45 -77t-46 -2q-2 20 5 62t18 93t22 106t15 102t-3 79t-29 38q-72 18 -164 -20t-195 -116t-209 -188 t-205 -236t-184 -260t-144 -260t-87 -236t-14 -188t78 -116t188 -20q94 14 179 56t165 100t155 126t150 133t152 120t159 89q44 16 72 -14t14 -72t-89 -112t-183 -147t-238 -153t-254 -131t-230 -79t-166 0zM546 -320q-8 24 6 36t42 20t63 13t68 12t60 18t39 31q16 30 5 45 t-35 22t-56 10t-60 10t-45 23t-13 50q-10 56 -7 103t14 66t30 0t41 -93q10 -32 38 -49t63 -28t71 -19t62 -20t37 -33t-5 -59q-4 -20 -47 -62t-103 -79t-126 -55t-114 10q-6 2 -16 13t-12 15z" />
<glyph unicode="&#xc8;" horiz-adv-x="1864" d="M44 58q-14 12 8 28q24 90 52 173t58 164t63 164t71 175q12 24 -5 48t-37 48t-30 49t18 53q2 2 19 7t36 9t36 8t21 6t12 9t17 16l17 17t10 12q38 68 75 121t68 105t58 110t45 136q8 30 -14 38t-49 16t-46 24t-3 62q10 28 96 60t219 62t297 55t329 40t316 18t256 -11 t149 -48t-2 -92q-22 -6 -46 -1t-49 12t-51 13t-52 4q-120 -10 -236 -8t-230 2t-229 -9t-231 -41q-80 -22 -142 -79t-119 -143t-114 -199t-125 -247q28 -6 104 12t175 43t208 52t206 38t170 0t97 -59q2 -4 2 -14t-2 -14q-132 -20 -273 -36t-280 -40t-272 -65t-249 -113 q-96 -168 -171 -345t-133 -361q72 26 168 50t185 43t156 32t79 15q212 34 409 53t409 5q18 -4 25 -20t9 -34t0 -35t-4 -25q-274 14 -541 -21t-535 -93q-42 -10 -103 -34t-125 -44t-123 -27t-99 19q-10 4 -17 11t-11 21zM1038 1970q-34 60 -72 84t-67 45t-43 54t0 107 q54 4 110 -33t102 -90t75 -108t31 -89t-29 -33t-107 63z" />
<glyph unicode="&#xc9;" horiz-adv-x="1864" d="M44 58q-14 12 8 28q24 90 52 173t58 164t63 164t71 175q12 24 -5 48t-37 48t-30 49t18 53q2 2 19 7t36 9t36 8t21 6t12 9t17 16l17 17t10 12q38 68 75 121t68 105t58 110t45 136q8 30 -14 38t-49 16t-46 24t-3 62q10 28 96 60t219 62t297 55t329 40t316 18t256 -11 t149 -48t-2 -92q-22 -6 -46 -1t-49 12t-51 13t-52 4q-120 -10 -236 -8t-230 2t-229 -9t-231 -41q-80 -22 -142 -79t-119 -143t-114 -199t-125 -247q28 -6 104 12t175 43t208 52t206 38t170 0t97 -59q2 -4 2 -14t-2 -14q-132 -20 -273 -36t-280 -40t-272 -65t-249 -113 q-96 -168 -171 -345t-133 -361q72 26 168 50t185 43t156 32t79 15q212 34 409 53t409 5q18 -4 25 -20t9 -34t0 -35t-4 -25q-274 14 -541 -21t-535 -93q-42 -10 -103 -34t-125 -44t-123 -27t-99 19q-10 4 -17 11t-11 21zM1010 1926q-84 -60 -117 -60t-29 35t38 93t86 112 t114 93t122 35q16 -74 -1 -109t-52 -59t-79 -52t-82 -88z" />
<glyph unicode="&#xca;" horiz-adv-x="1864" d="M44 58q-14 12 8 28q24 90 52 173t58 164t63 164t71 175q12 24 -5 48t-37 48t-30 49t18 53q2 2 19 7t36 9t36 8t21 6t12 9t17 16l17 17t10 12q38 68 75 121t68 105t58 110t45 136q8 30 -14 38t-49 16t-46 24t-3 62q10 28 96 60t219 62t297 55t329 40t316 18t256 -11 t149 -48t-2 -92q-22 -6 -46 -1t-49 12t-51 13t-52 4q-120 -10 -236 -8t-230 2t-229 -9t-231 -41q-80 -22 -142 -79t-119 -143t-114 -199t-125 -247q28 -6 104 12t175 43t208 52t206 38t170 0t97 -59q2 -4 2 -14t-2 -14q-132 -20 -273 -36t-280 -40t-272 -65t-249 -113 q-96 -168 -171 -345t-133 -361q72 26 168 50t185 43t156 32t79 15q212 34 409 53t409 5q18 -4 25 -20t9 -34t0 -35t-4 -25q-274 14 -541 -21t-535 -93q-42 -10 -103 -34t-125 -44t-123 -27t-99 19q-10 4 -17 11t-11 21zM1180 1990q-6 8 -19 47t-31 79t-37 66t-35 8 q-6 -12 -23 -40t-41 -63t-54 -69t-62 -58t-66 -32t-64 14q-14 8 -27 22t-3 32q12 22 44 48t68 53t67 54t43 49q56 118 102 161t82 35t62 -54t42 -107t21 -125t-1 -107t-23 -52t-45 39z" />
<glyph unicode="&#xcb;" horiz-adv-x="1864" d="M44 58q-14 12 8 28q24 90 52 173t58 164t63 164t71 175q12 24 -5 48t-37 48t-30 49t18 53q2 2 19 7t36 9t36 8t21 6t12 9t17 16l17 17t10 12q38 68 75 121t68 105t58 110t45 136q8 30 -14 38t-49 16t-46 24t-3 62q10 28 96 60t219 62t297 55t329 40t316 18t256 -11 t149 -48t-2 -92q-22 -6 -46 -1t-49 12t-51 13t-52 4q-120 -10 -236 -8t-230 2t-229 -9t-231 -41q-80 -22 -142 -79t-119 -143t-114 -199t-125 -247q28 -6 104 12t175 43t208 52t206 38t170 0t97 -59q2 -4 2 -14t-2 -14q-132 -20 -273 -36t-280 -40t-272 -65t-249 -113 q-96 -168 -171 -345t-133 -361q72 26 168 50t185 43t156 32t79 15q212 34 409 53t409 5q18 -4 25 -20t9 -34t0 -35t-4 -25q-274 14 -541 -21t-535 -93q-42 -10 -103 -34t-125 -44t-123 -27t-99 19q-10 4 -17 11t-11 21zM922 1934q-36 54 -19 106t57 82t87 24t73 -70 q14 -38 -5 -79t-54 -67t-75 -29t-64 33zM1280 1948q-36 52 -19 105t57 82t87 23t73 -70q14 -38 -5 -79t-54 -67t-75 -29t-64 35z" />
<glyph unicode="&#xcc;" horiz-adv-x="550" d="M28 84q-4 18 -1 50t10 64t13 56t8 28l564 1470q12 30 22 34t19 -9t15 -38t9 -54t1 -57t-10 -46q-80 -190 -161 -380t-156 -384t-139 -391t-110 -399q-18 -12 -33 -10t-25 13t-17 26t-9 27zM538 1930q-34 60 -72 84t-67 45t-43 54t0 107q54 4 110 -33t102 -90t75 -108 t31 -89t-29 -33t-107 63z" />
<glyph unicode="&#xcd;" horiz-adv-x="550" d="M28 84q-4 18 -1 50t10 64t13 56t8 28l564 1470q12 30 22 34t19 -9t15 -38t9 -54t1 -57t-10 -46q-80 -190 -161 -380t-156 -384t-139 -391t-110 -399q-18 -12 -33 -10t-25 13t-17 26t-9 27zM440 1862q-84 -60 -117 -60t-29 35t38 93t86 112t114 93t122 35q16 -74 -1 -109 t-52 -59t-79 -52t-82 -88z" />
<glyph unicode="&#xce;" horiz-adv-x="550" d="M28 84q-4 18 -1 50t10 64t13 56t8 28l564 1470q12 30 22 34t19 -9t15 -38t9 -54t1 -57t-10 -46q-80 -190 -161 -380t-156 -384t-139 -391t-110 -399q-18 -12 -33 -10t-25 13t-17 26t-9 27zM828 1872q-6 8 -19 47t-31 79t-37 66t-35 8q-6 -12 -23 -40t-41 -63t-54 -69 t-62 -58t-66 -32t-64 14q-14 8 -27 22t-3 32q12 22 44 48t68 53t67 54t43 49q56 118 102 161t82 35t62 -54t42 -107t21 -125t-1 -107t-23 -52t-45 39z" />
<glyph unicode="&#xcf;" horiz-adv-x="550" d="M28 84q-4 18 -1 50t10 64t13 56t8 28l564 1470q12 30 22 34t19 -9t15 -38t9 -54t1 -57t-10 -46q-80 -190 -161 -380t-156 -384t-139 -391t-110 -399q-18 -12 -33 -10t-25 13t-17 26t-9 27zM360 1966q-36 54 -19 106t57 82t87 24t73 -70q14 -38 -5 -79t-54 -67t-75 -29 t-64 33zM718 1980q-36 52 -19 105t57 82t87 23t73 -70q14 -38 -5 -79t-54 -67t-75 -29t-64 35z" />
<glyph unicode="&#xd0;" horiz-adv-x="2058" d="M-58 854q-30 30 -1 57t96 51t163 42t202 30q40 90 76 168t56 130q-22 72 -8 129t50 103t85 85t99 77q142 104 307 162t337 64t341 -44t319 -164q120 -100 141 -217t-33 -241t-171 -252t-272 -251t-336 -236t-362 -209t-352 -169t-305 -116t-219 -52t-97 27q-14 38 4 67 t52 47q156 78 304 131t292 107t287 121t289 171q262 152 425 288t245 253t93 214t-32 172t-129 125t-199 74t-243 19t-259 -40t-247 -103t-208 -172q-2 -4 -7 -17t-9 -27t-8 -27t-4 -15q-26 -114 -51 -203t-53 -165q100 4 189 -2t153 -22t93 -44t9 -70q-26 0 -90 -4t-137 -8 t-137 -8t-90 -6q-14 -2 -30 -4t-32 -6q-36 -78 -74 -144t-76 -133t-76 -143t-74 -172q-44 -14 -64 3t-22 53t9 84t26 93t30 82t21 53q10 32 30 76t44 96q-54 -10 -106 -17t-100 -5t-88 14t-66 40z" />
<glyph unicode="&#xd1;" horiz-adv-x="2074" d="M28 58q16 78 60 172t96 187t103 177t81 142q14 30 46 91t70 139t81 164t83 164t70 140t46 92q58 60 101 54t78 -61t62 -148t53 -208t52 -241t57 -245t70 -223t91 -172q32 -16 78 32t101 139t116 215t122 259t119 271t106 253t85 204t57 123q18 32 36 31t32 -20t20 -48 t-2 -51q-80 -218 -150 -392t-144 -337t-158 -332t-192 -375q-40 -48 -78 -77t-76 -32t-77 23t-79 86q-82 146 -130 275t-81 256t-60 259t-67 284q-16 10 -51 -26t-81 -104t-100 -160t-109 -194t-109 -204t-99 -191t-79 -155t-50 -96q-12 -22 -32 -56t-38 -65t-32 -54 l-14 -23h-84q-2 6 -2 28t2 30zM1282 1708q-54 10 -88 39t-55 67t-33 77t-26 66t-31 37t-48 -11t-79 -79t-122 -166q-50 -30 -67 -14t-9 57t37 99t72 113t96 96t109 51t112 -22t104 -126q24 -106 65 -147t94 -38t117 40t131 85t136 96t135 76q14 -24 -15 -70t-85 -100 t-131 -107t-152 -89t-148 -48t-119 18z" />
<glyph unicode="&#xd2;" horiz-adv-x="1318" d="M242 28q-84 36 -128 90t-59 120t-6 139t34 146t59 141t70 126q12 20 38 60t59 90t70 105t71 105t60 90t40 58q24 154 87 257t148 160t182 69t187 -17t164 -96t113 -169t33 -238t-75 -301t-210 -357t-375 -408q-50 -48 -118 -91t-144 -71t-154 -33t-146 25zM156 226 q26 -114 95 -141t164 10t208 128t225 212t215 263t178 282t115 268t27 221t-90 141t-233 28q-56 -50 -151 -146t-203 -219t-216 -264t-190 -281t-124 -270t-20 -232zM994 1948q-34 60 -72 84t-67 45t-43 54t0 107q54 4 110 -33t102 -90t75 -108t31 -89t-29 -33t-107 63z" />
<glyph unicode="&#xd3;" horiz-adv-x="1318" d="M242 28q-84 36 -128 90t-59 120t-6 139t34 146t59 141t70 126q12 20 38 60t59 90t70 105t71 105t60 90t40 58q24 154 87 257t148 160t182 69t187 -17t164 -96t113 -169t33 -238t-75 -301t-210 -357t-375 -408q-50 -48 -118 -91t-144 -71t-154 -33t-146 25zM156 226 q26 -114 95 -141t164 10t208 128t225 212t215 263t178 282t115 268t27 221t-90 141t-233 28q-56 -50 -151 -146t-203 -219t-216 -264t-190 -281t-124 -270t-20 -232zM876 1840q-84 -60 -117 -60t-29 35t38 93t86 112t114 93t122 35q16 -74 -1 -109t-52 -59t-79 -52t-82 -88z " />
<glyph unicode="&#xd4;" horiz-adv-x="1318" d="M242 28q-84 36 -128 90t-59 120t-6 139t34 146t59 141t70 126q12 20 38 60t59 90t70 105t71 105t60 90t40 58q24 154 87 257t148 160t182 69t187 -17t164 -96t113 -169t33 -238t-75 -301t-210 -357t-375 -408q-50 -48 -118 -91t-144 -71t-154 -33t-146 25zM156 226 q26 -114 95 -141t164 10t208 128t225 212t215 263t178 282t115 268t27 221t-90 141t-233 28q-56 -50 -151 -146t-203 -219t-216 -264t-190 -281t-124 -270t-20 -232zM1362 1914q-6 8 -19 47t-31 79t-37 66t-35 8q-6 -12 -23 -40t-41 -63t-54 -69t-62 -58t-66 -32t-64 14 q-14 8 -27 22t-3 32q12 22 44 48t68 53t67 54t43 49q56 118 102 161t82 35t62 -54t42 -107t21 -125t-1 -107t-23 -52t-45 39z" />
<glyph unicode="&#xd5;" horiz-adv-x="1318" d="M242 28q-84 36 -128 90t-59 120t-6 139t34 146t59 141t70 126q12 20 38 60t59 90t70 105t71 105t60 90t40 58q24 154 87 257t148 160t182 69t187 -17t164 -96t113 -169t33 -238t-75 -301t-210 -357t-375 -408q-50 -48 -118 -91t-144 -71t-154 -33t-146 25zM156 226 q26 -114 95 -141t164 10t208 128t225 212t215 263t178 282t115 268t27 221t-90 141t-233 28q-56 -50 -151 -146t-203 -219t-216 -264t-190 -281t-124 -270t-20 -232zM1260 1758q-54 10 -88 39t-55 67t-33 77t-26 66t-31 37t-48 -11t-79 -79t-122 -166q-50 -30 -67 -14t-9 57 t37 99t72 113t96 96t109 51t112 -22t104 -126q24 -106 65 -147t94 -38t117 40t131 85t136 96t135 76q14 -24 -15 -70t-85 -100t-131 -107t-152 -89t-148 -48t-119 18z" />
<glyph unicode="&#xd6;" horiz-adv-x="1318" d="M242 28q-84 36 -128 90t-59 120t-6 139t34 146t59 141t70 126q12 20 38 60t59 90t70 105t71 105t60 90t40 58q24 154 87 257t148 160t182 69t187 -17t164 -96t113 -169t33 -238t-75 -301t-210 -357t-375 -408q-50 -48 -118 -91t-144 -71t-154 -33t-146 25zM156 226 q26 -114 95 -141t164 10t208 128t225 212t215 263t178 282t115 268t27 221t-90 141t-233 28q-56 -50 -151 -146t-203 -219t-216 -264t-190 -281t-124 -270t-20 -232zM848 1912q-36 54 -19 106t57 82t87 24t73 -70q14 -38 -5 -79t-54 -67t-75 -29t-64 33zM1206 1926 q-36 52 -19 105t57 82t87 23t73 -70q14 -38 -5 -79t-54 -67t-75 -29t-64 35z" />
<glyph unicode="&#xd7;" horiz-adv-x="1706" d="M216 226q-24 34 -3 66t64 65t100 67t105 70t78 75t20 81q-2 12 -15 57t-27 98t-27 98t-15 57q-2 6 -2 28t2 30q22 16 43 2t41 -46t39 -74t37 -82t34 -71t30 -41q44 30 96 71t102 85t95 85t75 71q52 26 73 22t22 -26t-14 -55t-32 -64t-33 -53l-16 -22q-148 -98 -216 -152 t-82 -88t9 -63t57 -75t63 -122t27 -208q-74 -22 -111 4t-53 76t-20 113t-13 114t-31 79t-73 8t-140 -98t-233 -240q-4 2 -12 10l-17 17t-17 18t-10 13z" />
<glyph unicode="&#xd8;" horiz-adv-x="1318" d="M242 28q-84 36 -128 90t-59 120t-6 139t34 146t59 141t70 126q12 20 38 60t59 90t70 105t71 105t60 90t40 58q24 154 87 257t148 160t182 69t187 -17t164 -96t113 -169t33 -238t-75 -301t-210 -357t-375 -408q-50 -48 -118 -91t-144 -71t-154 -33t-146 25zM156 226 q26 -114 95 -141t164 10t208 128t225 212t215 263t178 282t115 268t27 221t-90 141t-233 28q-56 -50 -151 -146t-203 -219t-216 -264t-190 -281t-124 -270t-20 -232zM464.64 -230.686q-18.6592 124.506 9.3291 296.998q27.9893 172.492 85.1328 368.33 q57.1436 195.837 136.445 403.347t162.102 403.348q82.7998 195.837 160.936 364.438q78.1348 168.602 136.445 290.514q30.3213 23.3447 52.4785 10.376q22.1582 -12.9697 33.8203 -41.502q11.6621 -28.5332 15.1602 -63.5498q3.49902 -35.0176 -1.16602 -53.1748 q-11.6621 -28.5322 -34.9863 -85.5977q-23.3232 -57.0654 -52.4785 -129.693q-29.1553 -72.6289 -61.8086 -151.742q-32.6533 -79.1123 -61.8086 -151.741q-29.1553 -72.6279 -52.4785 -129.693q-23.3242 -57.0654 -32.6543 -83.0039q-13.9941 -31.127 -43.1494 -110.239 q-29.1543 -79.1133 -60.6416 -167.306q-31.4873 -88.1914 -58.3105 -166.008q-26.8223 -77.8154 -36.1523 -106.349q-13.9941 -44.0957 -34.9854 -137.475q-20.9912 -93.3799 -45.4814 -198.432t-54.8115 -204.916t-62.9746 -156.929q-6.99707 -10.376 -20.9922 -22.0479 q-13.9941 -11.6729 -30.3213 -15.5635q-16.3262 -3.89062 -29.1543 2.59375t-17.4932 35.0176z" />
<glyph unicode="&#xd9;" d="M228 28q-92 72 -124 188t-22 255t52 293t101 303t125 284t123 237t96 162t43 58q20 -10 28 -27t9 -36t-2 -40t-5 -37q0 -4 -5 -12t-10 -18t-10 -18t-5 -10q-194 -426 -292 -715t-120 -462t21 -242t132 -55t213 98t262 217t282 302t272 354t230 373t158 358q4 4 14 15 t14 11q56 -38 55 -119t-45 -192t-126 -243t-187 -272t-228 -280t-249 -265t-249 -227t-230 -168t-190 -87t-131 17zM1002 1846q-34 60 -72 84t-67 45t-43 54t0 107q54 4 110 -33t102 -90t75 -108t31 -89t-29 -33t-107 63z" />
<glyph unicode="&#xda;" d="M228 28q-92 72 -124 188t-22 255t52 293t101 303t125 284t123 237t96 162t43 58q20 -10 28 -27t9 -36t-2 -40t-5 -37q0 -4 -5 -12t-10 -18t-10 -18t-5 -10q-194 -426 -292 -715t-120 -462t21 -242t132 -55t213 98t262 217t282 302t272 354t230 373t158 358q4 4 14 15 t14 11q56 -38 55 -119t-45 -192t-126 -243t-187 -272t-228 -280t-249 -265t-249 -227t-230 -168t-190 -87t-131 17zM1038 1842q-84 -60 -117 -60t-29 35t38 93t86 112t114 93t122 35q16 -74 -1 -109t-52 -59t-79 -52t-82 -88z" />
<glyph unicode="&#xdb;" d="M228 28q-92 72 -124 188t-22 255t52 293t101 303t125 284t123 237t96 162t43 58q20 -10 28 -27t9 -36t-2 -40t-5 -37q0 -4 -5 -12t-10 -18t-10 -18t-5 -10q-194 -426 -292 -715t-120 -462t21 -242t132 -55t213 98t262 217t282 302t272 354t230 373t158 358q4 4 14 15 t14 11q56 -38 55 -119t-45 -192t-126 -243t-187 -272t-228 -280t-249 -265t-249 -227t-230 -168t-190 -87t-131 17zM1350 1944q-6 8 -19 47t-31 79t-37 66t-35 8q-6 -12 -23 -40t-41 -63t-54 -69t-62 -58t-66 -32t-64 14q-14 8 -27 22t-3 32q12 22 44 48t68 53t67 54t43 49 q56 118 102 161t82 35t62 -54t42 -107t21 -125t-1 -107t-23 -52t-45 39z" />
<glyph unicode="&#xdc;" d="M228 28q-92 72 -124 188t-22 255t52 293t101 303t125 284t123 237t96 162t43 58q20 -10 28 -27t9 -36t-2 -40t-5 -37q0 -4 -5 -12t-10 -18t-10 -18t-5 -10q-194 -426 -292 -715t-120 -462t21 -242t132 -55t213 98t262 217t282 302t272 354t230 373t158 358q4 4 14 15 t14 11q56 -38 55 -119t-45 -192t-126 -243t-187 -272t-228 -280t-249 -265t-249 -227t-230 -168t-190 -87t-131 17zM918 2016q-36 54 -19 106t57 82t87 24t73 -70q14 -38 -5 -79t-54 -67t-75 -29t-64 33zM1276 2030q-36 52 -19 105t57 82t87 23t73 -70q14 -38 -5 -79 t-54 -67t-75 -29t-64 35z" />
<glyph unicode="&#xdd;" horiz-adv-x="1004" d="M140 -320q-30 74 -8 158t73 175t118 189t127 201t101 212t39 223q-10 24 -44 77t-82 125t-104 153t-107 161t-92 150t-61 118t-13 67t53 -3q36 -32 87 -104t108 -161t116 -183t109 -168t88 -117t54 -31q20 38 52 110l72 162t85 190t90 192t88 170t79 124t62 53t38 -41 q8 -36 -24 -130t-91 -226t-140 -293t-170 -333t-178 -346t-166 -333t-135 -291t-84 -222q-8 -26 -24 -49t-37 -33t-42 1t-37 53zM614 1894q-84 -60 -117 -60t-29 35t38 93t86 112t114 93t122 35q16 -74 -1 -109t-52 -59t-79 -52t-82 -88z" />
<glyph unicode="&#xde;" horiz-adv-x="1502" d="M32 -402q0 2 -33 7t-72 12t-70 12t-31 7q26 52 66 155t89 239t105 297t115 330t119 336t118 316t111 270t98 197t78 99t53 -25q38 -34 39 -77t-21 -95t-58 -114t-74 -135t-70 -158t-42 -183q210 160 370 237t272 91t176 -26t84 -115t-3 -173t-88 -201t-169 -201 t-247 -170t-322 -110t-391 -22q-2 2 -17 -57t-37 -149t-48 -194t-48 -194t-37 -149t-15 -57zM354 606q-4 -10 -4 -42t4 -42q124 -6 249 20t236 77t202 124t150 159t79 183t-10 199q0 2 -11 3t-23 0t-23 -1h-13q-84 12 -171 -13t-172 -76t-163 -122t-143 -150t-114 -162 t-73 -157z" />
<glyph unicode="&#xdf;" horiz-adv-x="1660" d="M588 1582q-88 -192 -172 -423t-143 -477t-80 -497t15 -485q-42 2 -72 37t-47 91t-24 126t-3 142t16 140t34 120q8 16 21 73t29 134t33 165t33 166t29 135t19 73q32 76 29 133t-12 108t-6 100t47 111q6 8 31 37t54 62t54 62t31 37q14 16 73 60t146 98t192 114t211 110 t202 83t165 35t102 -34t11 -126q-22 -86 -73 -165t-119 -154t-145 -147t-151 -142t-138 -141t-104 -145q230 -8 375 -45t220 -93t89 -128t-19 -150t-105 -157t-168 -150t-208 -131t-226 -98t-222 -50t-194 12l20 78q240 0 421 56t303 140t186 184t68 188t-52 152t-173 74 t-295 -44t-418 -202l50 274q80 68 185 157t215 188t214 200t181 190t118 161t23 114q-72 12 -153 -9t-163 -65t-164 -103t-155 -122t-135 -126t-106 -111z" />
<glyph unicode="&#xe0;" horiz-adv-x="1754" d="M142 58q-60 50 -67 148t27 219t101 255t154 255t189 217t205 143t201 33t178 -114q50 -62 60 -126t-3 -130t-40 -134t-53 -138t-42 -143t-6 -147q10 -72 54 -99t110 -22t146 34t162 71t160 89t138 87t97 67l37 27q70 14 79 -10t-27 -69t-109 -104t-166 -114t-198 -100 t-205 -62t-188 2t-146 89q-26 30 -41 61t-43 53q-38 -36 -90 -92t-114 -112t-131 -106t-141 -76t-146 -18t-142 66zM170 142q16 -60 66 -70t118 19t149 92t160 152t151 197t123 227t75 242t6 243q-44 36 -107 19t-136 -71t-150 -138t-149 -183t-135 -206t-106 -205t-62 -182 t-3 -136zM1012 1498q-34 60 -72 84t-67 45t-43 54t0 107q54 4 110 -33t102 -90t75 -108t31 -89t-29 -33t-107 63z" />
<glyph unicode="&#xe1;" horiz-adv-x="1754" d="M142 58q-60 50 -67 148t27 219t101 255t154 255t189 217t205 143t201 33t178 -114q50 -62 60 -126t-3 -130t-40 -134t-53 -138t-42 -143t-6 -147q10 -72 54 -99t110 -22t146 34t162 71t160 89t138 87t97 67l37 27q70 14 79 -10t-27 -69t-109 -104t-166 -114t-198 -100 t-205 -62t-188 2t-146 89q-26 30 -41 61t-43 53q-38 -36 -90 -92t-114 -112t-131 -106t-141 -76t-146 -18t-142 66zM170 142q16 -60 66 -70t118 19t149 92t160 152t151 197t123 227t75 242t6 243q-44 36 -107 19t-136 -71t-150 -138t-149 -183t-135 -206t-106 -205t-62 -182 t-3 -136zM664 1410q-84 -60 -117 -60t-29 35t38 93t86 112t114 93t122 35q16 -74 -1 -109t-52 -59t-79 -52t-82 -88z" />
<glyph unicode="&#xe2;" horiz-adv-x="1754" d="M142 58q-60 50 -67 148t27 219t101 255t154 255t189 217t205 143t201 33t178 -114q50 -62 60 -126t-3 -130t-40 -134t-53 -138t-42 -143t-6 -147q10 -72 54 -99t110 -22t146 34t162 71t160 89t138 87t97 67l37 27q70 14 79 -10t-27 -69t-109 -104t-166 -114t-198 -100 t-205 -62t-188 2t-146 89q-26 30 -41 61t-43 53q-38 -36 -90 -92t-114 -112t-131 -106t-141 -76t-146 -18t-142 66zM170 142q16 -60 66 -70t118 19t149 92t160 152t151 197t123 227t75 242t6 243q-44 36 -107 19t-136 -71t-150 -138t-149 -183t-135 -206t-106 -205t-62 -182 t-3 -136zM1030 1654q-6 8 -19 47t-31 79t-37 66t-35 8q-6 -12 -23 -40t-41 -63t-54 -69t-62 -58t-66 -32t-64 14q-14 8 -27 22t-3 32q12 22 44 48t68 53t67 54t43 49q56 118 102 161t82 35t62 -54t42 -107t21 -125t-1 -107t-23 -52t-45 39z" />
<glyph unicode="&#xe3;" horiz-adv-x="1754" d="M142 58q-60 50 -67 148t27 219t101 255t154 255t189 217t205 143t201 33t178 -114q50 -62 60 -126t-3 -130t-40 -134t-53 -138t-42 -143t-6 -147q10 -72 54 -99t110 -22t146 34t162 71t160 89t138 87t97 67l37 27q70 14 79 -10t-27 -69t-109 -104t-166 -114t-198 -100 t-205 -62t-188 2t-146 89q-26 30 -41 61t-43 53q-38 -36 -90 -92t-114 -112t-131 -106t-141 -76t-146 -18t-142 66zM170 142q16 -60 66 -70t118 19t149 92t160 152t151 197t123 227t75 242t6 243q-44 36 -107 19t-136 -71t-150 -138t-149 -183t-135 -206t-106 -205t-62 -182 t-3 -136zM956 1454q-54 10 -88 39t-55 67t-33 77t-26 66t-31 37t-48 -11t-79 -79t-122 -166q-50 -30 -67 -14t-9 57t37 99t72 113t96 96t109 51t112 -22t104 -126q24 -106 65 -147t94 -38t117 40t131 85t136 96t135 76q14 -24 -15 -70t-85 -100t-131 -107t-152 -89t-148 -48 t-119 18z" />
<glyph unicode="&#xe4;" horiz-adv-x="1754" d="M142 58q-60 50 -67 148t27 219t101 255t154 255t189 217t205 143t201 33t178 -114q50 -62 60 -126t-3 -130t-40 -134t-53 -138t-42 -143t-6 -147q10 -72 54 -99t110 -22t146 34t162 71t160 89t138 87t97 67l37 27q70 14 79 -10t-27 -69t-109 -104t-166 -114t-198 -100 t-205 -62t-188 2t-146 89q-26 30 -41 61t-43 53q-38 -36 -90 -92t-114 -112t-131 -106t-141 -76t-146 -18t-142 66zM170 142q16 -60 66 -70t118 19t149 92t160 152t151 197t123 227t75 242t6 243q-44 36 -107 19t-136 -71t-150 -138t-149 -183t-135 -206t-106 -205t-62 -182 t-3 -136zM586 1408q-36 54 -19 106t57 82t87 24t73 -70q14 -38 -5 -79t-54 -67t-75 -29t-64 33zM944 1422q-36 52 -19 105t57 82t87 23t73 -70q14 -38 -5 -79t-54 -67t-75 -29t-64 35z" />
<glyph unicode="&#xe5;" horiz-adv-x="1754" d="M142 58q-60 50 -67 148t27 219t101 255t154 255t189 217t205 143t201 33t178 -114q50 -62 60 -126t-3 -130t-40 -134t-53 -138t-42 -143t-6 -147q10 -72 54 -99t110 -22t146 34t162 71t160 89t138 87t97 67l37 27q70 14 79 -10t-27 -69t-109 -104t-166 -114t-198 -100 t-205 -62t-188 2t-146 89q-26 30 -41 61t-43 53q-38 -36 -90 -92t-114 -112t-131 -106t-141 -76t-146 -18t-142 66zM170 142q16 -60 66 -70t118 19t149 92t160 152t151 197t123 227t75 242t6 243q-44 36 -107 19t-136 -71t-150 -138t-149 -183t-135 -206t-106 -205t-62 -182 t-3 -136zM664 1310q-62 24 -78 66t1 91t58 99t90 92t100 70t89 32q124 16 178 -21t55 -98t-43 -133t-114 -127t-159 -80t-177 9zM700 1460q12 -66 62 -72t110 22t113 77t71 91t-15 65t-145 -1q-32 -28 -63 -47t-58 -38t-47 -41t-28 -56z" />
<glyph unicode="&#xe6;" horiz-adv-x="2840" d="M142 58q-60 50 -67 148t27 219t101 255t154 255t189 217t205 143t201 33t178 -114q50 -62 60 -126t-3 -130t-40 -134t-53 -138t-42 -143t-6 -147q10 -72 58 -103t119 -34t159 16t178 51t176 70t152 70t107 54l41 22q22 -6 0 -37t-75 -74t-132 -91t-169 -89t-187 -69 t-187 -30t-167 27t-129 103q-22 32 -39 62t-45 52q-38 -36 -90 -92t-114 -112t-131 -106t-141 -76t-146 -18t-142 66zM170 142q16 -60 66 -70t118 19t149 92t160 152t151 197t123 227t75 242t6 243q-44 36 -107 19t-136 -71t-150 -138t-149 -183t-135 -206t-106 -205 t-62 -182t-3 -136zM1110 236q-76 26 -114 76t-50 113t-3 132t27 131q76 80 170 183t199 204t219 187t230 132q40 16 64 -3t34 -58t9 -92t-9 -102t-20 -90t-26 -55q-22 -26 -77 -60t-128 -73t-155 -82t-157 -87t-136 -90t-92 -90t-24 -85t69 -77q84 -10 206 9t248 51t243 66 t193 52l30 -28q-36 -48 -106 -91t-157 -79t-186 -61t-192 -39t-174 -13t-135 19zM1708 1190q-2 4 -37 -20t-87 -63t-110 -85t-108 -86t-81 -68t-27 -30q40 -8 104 12t132 54t131 78t100 86t37 75t-54 47z" />
<glyph unicode="&#xe7;" horiz-adv-x="1398" d="M256 28q-128 42 -169 132t-22 203t86 240t159 242t195 208t193 140t155 37t81 -100q6 -40 -10 -88t-44 -92t-64 -80t-69 -54t-60 -12t-35 44q30 52 67 101t73 95q-14 28 -57 13t-102 -60t-126 -113t-129 -148t-111 -167t-71 -167t-11 -148t71 -112q82 -6 189 17t220 60 t224 82t202 82t155 58t84 11q36 -18 21 -50t-68 -71t-136 -81t-180 -81t-201 -72t-201 -54t-178 -26t-131 11zM474 -394q-8 24 6 36t42 20t63 13t68 12t60 18t39 31q16 30 5 45t-35 22t-56 10t-60 10t-45 23t-13 50q-10 56 -7 103t14 66t30 0t41 -93q10 -32 38 -49t63 -28 t71 -19t62 -20t37 -33t-5 -59q-4 -20 -47 -62t-103 -79t-126 -55t-114 10q-6 2 -16 13t-12 15z" />
<glyph unicode="&#xe8;" horiz-adv-x="1088" d="M212 28q-76 26 -114 76t-50 113t-3 132t27 131q76 80 170 183t199 204t219 187t230 132q40 16 64 -3t34 -58t9 -92t-9 -102t-20 -90t-26 -55q-22 -26 -77 -60t-128 -73t-155 -82t-157 -87t-136 -90t-92 -90t-24 -85t69 -77q84 -10 206 9t248 51t243 66t193 52l30 -28 q-36 -48 -106 -91t-157 -79t-186 -61t-192 -39t-174 -13t-135 19zM810 982q-2 4 -37 -20t-87 -63t-110 -85t-108 -86t-81 -68t-27 -30q40 -8 104 12t132 54t131 78t100 86t37 75t-54 47zM524 1332q-34 60 -72 84t-67 45t-43 54t0 107q54 4 110 -33t102 -90t75 -108t31 -89 t-29 -33t-107 63z" />
<glyph unicode="&#xe9;" horiz-adv-x="1088" d="M212 28q-76 26 -114 76t-50 113t-3 132t27 131q76 80 170 183t199 204t219 187t230 132q40 16 64 -3t34 -58t9 -92t-9 -102t-20 -90t-26 -55q-22 -26 -77 -60t-128 -73t-155 -82t-157 -87t-136 -90t-92 -90t-24 -85t69 -77q84 -10 206 9t248 51t243 66t193 52l30 -28 q-36 -48 -106 -91t-157 -79t-186 -61t-192 -39t-174 -13t-135 19zM810 982q-2 4 -37 -20t-87 -63t-110 -85t-108 -86t-81 -68t-27 -30q40 -8 104 12t132 54t131 78t100 86t37 75t-54 47zM540 1076q-84 -60 -117 -60t-29 35t38 93t86 112t114 93t122 35q16 -74 -1 -109 t-52 -59t-79 -52t-82 -88z" />
<glyph unicode="&#xea;" horiz-adv-x="1088" d="M212 28q-76 26 -114 76t-50 113t-3 132t27 131q76 80 170 183t199 204t219 187t230 132q40 16 64 -3t34 -58t9 -92t-9 -102t-20 -90t-26 -55q-22 -26 -77 -60t-128 -73t-155 -82t-157 -87t-136 -90t-92 -90t-24 -85t69 -77q84 -10 206 9t248 51t243 66t193 52l30 -28 q-36 -48 -106 -91t-157 -79t-186 -61t-192 -39t-174 -13t-135 19zM810 982q-2 4 -37 -20t-87 -63t-110 -85t-108 -86t-81 -68t-27 -30q40 -8 104 12t132 54t131 78t100 86t37 75t-54 47zM706 1516q-6 8 -19 47t-31 79t-37 66t-35 8q-6 -12 -23 -40t-41 -63t-54 -69t-62 -58 t-66 -32t-64 14q-14 8 -27 22t-3 32q12 22 44 48t68 53t67 54t43 49q56 118 102 161t82 35t62 -54t42 -107t21 -125t-1 -107t-23 -52t-45 39z" />
<glyph unicode="&#xeb;" horiz-adv-x="1088" d="M212 28q-76 26 -114 76t-50 113t-3 132t27 131q76 80 170 183t199 204t219 187t230 132q40 16 64 -3t34 -58t9 -92t-9 -102t-20 -90t-26 -55q-22 -26 -77 -60t-128 -73t-155 -82t-157 -87t-136 -90t-92 -90t-24 -85t69 -77q84 -10 206 9t248 51t243 66t193 52l30 -28 q-36 -48 -106 -91t-157 -79t-186 -61t-192 -39t-174 -13t-135 19zM810 982q-2 4 -37 -20t-87 -63t-110 -85t-108 -86t-81 -68t-27 -30q40 -8 104 12t132 54t131 78t100 86t37 75t-54 47zM312 1230q-36 54 -19 106t57 82t87 24t73 -70q14 -38 -5 -79t-54 -67t-75 -29t-64 33z M670 1244q-36 52 -19 105t57 82t87 23t73 -70q14 -38 -5 -79t-54 -67t-75 -29t-64 35z" />
<glyph unicode="&#xec;" horiz-adv-x="634" d="M28 28q102 328 186 522t139 272t76 51t-3 -140t-100 -301t-214 -432q-20 -8 -47 -3t-37 31zM318 1070q-34 60 -72 84t-67 45t-43 54t0 107q54 4 110 -33t102 -90t75 -108t31 -89t-29 -33t-107 63z" />
<glyph unicode="&#xed;" horiz-adv-x="634" d="M28 28q10 -26 37 -31t47 3q138 244 214 432t100 301t3 140t-76 -51t-139 -272t-186 -522zM314 1076q-84 -60 -117 -60t-29 35t38 93t86 112t114 93t122 35q16 -74 -1 -109t-52 -59t-79 -52t-82 -88z" />
<glyph unicode="&#xee;" horiz-adv-x="634" d="M28 28q102 328 186 522t139 272t76 51t-3 -140t-100 -301t-214 -432q-20 -8 -47 -3t-37 31zM460 1236q-6 8 -19 47t-31 79t-37 66t-35 8q-6 -12 -23 -40t-41 -63t-54 -69t-62 -58t-66 -32t-64 14q-14 8 -27 22t-3 32q12 22 44 48t68 53t67 54t43 49q56 118 102 161t82 35 t62 -54t42 -107t21 -125t-1 -107t-23 -52t-45 39z" />
<glyph unicode="&#xef;" horiz-adv-x="634" d="M28 28q102 328 186 522t139 272t76 51t-3 -140t-100 -301t-214 -432q-20 -8 -47 -3t-37 31zM68 1064q-36 54 -19 106t57 82t87 24t73 -70q14 -38 -5 -79t-54 -67t-75 -29t-64 33zM426 1078q-36 52 -19 105t57 82t87 23t73 -70q14 -38 -5 -79t-54 -67t-75 -29t-64 35z" />
<glyph unicode="&#xf0;" horiz-adv-x="786" d="M598 1058q32 -22 46 -33t5 -28t-42 -48t-93 -93q62 -74 120 -177t94 -209t44 -202t-26 -156q-62 -88 -134 -122t-146 -27t-144 48t-128 103t-101 137t-62 150t-10 142t55 113q60 46 128 35t140 -50t143 -93t137 -94q10 28 -2 69t-37 86t-61 93t-74 92q-28 -26 -54 -45 t-48 -31q-34 -18 -21 27t55 121q-58 56 -96 78q-64 60 -73 96t14 47t63 -4t76 -53q16 -20 44 -53t44 -55zM602 112q16 42 5 96t-42 107t-79 102t-107 82t-126 46t-133 -3q-12 -50 9 -118t63 -136t97 -126t113 -89t111 -26t89 65z" />
<glyph unicode="&#xf1;" horiz-adv-x="1440" d="M974 28q-8 82 14 163t58 160t77 158t72 155t43 150t-10 146q-64 22 -145 -11t-171 -99t-186 -155t-187 -180t-174 -173t-150 -136t-112 -68t-59 32q0 2 17 38t46 95t67 133t79 152t81 154t73 136t57 98t32 42q50 -34 52 -75t-13 -86t-33 -90t-6 -89q42 28 112 77t155 101 t175 101t171 79t144 32t93 -38t19 -131t-79 -249q-4 -12 -20 -47t-36 -81t-43 -98t-44 -98t-36 -81t-19 -47q-4 -10 -7 -37t-9 -58t-16 -60t-24 -43q-8 -8 -17 -5t-18 9t-15 13t-8 11zM752 1162q-54 10 -88 39t-55 67t-33 77t-26 66t-31 37t-48 -11t-79 -79t-122 -166 q-50 -30 -67 -14t-9 57t37 99t72 113t96 96t109 51t112 -22t104 -126q24 -106 65 -147t94 -38t117 40t131 85t136 96t135 76q14 -24 -15 -70t-85 -100t-131 -107t-152 -89t-148 -48t-119 18z" />
<glyph unicode="&#xf2;" horiz-adv-x="1074" d="M198 28q-104 42 -130 127t1 190t94 215t149 203t166 156t144 71q156 20 244 -21t121 -119t18 -181t-66 -209t-132 -203t-180 -162t-209 -88t-220 21zM170 170q16 -64 62 -82t109 1t137 66t146 111t137 140t109 149t62 139t-3 113t-87 67t-190 2q-36 -32 -90 -79 t-114 -102t-117 -119t-99 -131t-61 -137t-1 -138zM694 1206q-34 60 -72 84t-67 45t-43 54t0 107q54 4 110 -33t102 -90t75 -108t31 -89t-29 -33t-107 63z" />
<glyph unicode="&#xf3;" horiz-adv-x="1074" d="M198 28q-104 42 -130 127t1 190t94 215t149 203t166 156t144 71q156 20 244 -21t121 -119t18 -181t-66 -209t-132 -203t-180 -162t-209 -88t-220 21zM170 170q16 -64 62 -82t109 1t137 66t146 111t137 140t109 149t62 139t-3 113t-87 67t-190 2q-36 -32 -90 -79 t-114 -102t-117 -119t-99 -131t-61 -137t-1 -138zM534 1076q-84 -60 -117 -60t-29 35t38 93t86 112t114 93t122 35q16 -74 -1 -109t-52 -59t-79 -52t-82 -88z" />
<glyph unicode="&#xf4;" horiz-adv-x="1074" d="M198 28q-104 42 -130 127t1 190t94 215t149 203t166 156t144 71q156 20 244 -21t121 -119t18 -181t-66 -209t-132 -203t-180 -162t-209 -88t-220 21zM170 170q16 -64 62 -82t109 1t137 66t146 111t137 140t109 149t62 139t-3 113t-87 67t-190 2q-36 -32 -90 -79 t-114 -102t-117 -119t-99 -131t-61 -137t-1 -138zM836 1374q-6 8 -19 47t-31 79t-37 66t-35 8q-6 -12 -23 -40t-41 -63t-54 -69t-62 -58t-66 -32t-64 14q-14 8 -27 22t-3 32q12 22 44 48t68 53t67 54t43 49q56 118 102 161t82 35t62 -54t42 -107t21 -125t-1 -107t-23 -52 t-45 39z" />
<glyph unicode="&#xf5;" horiz-adv-x="1074" d="M198 28q-104 42 -130 127t1 190t94 215t149 203t166 156t144 71q156 20 244 -21t121 -119t18 -181t-66 -209t-132 -203t-180 -162t-209 -88t-220 21zM170 170q16 -64 62 -82t109 1t137 66t146 111t137 140t109 149t62 139t-3 113t-87 67t-190 2q-36 -32 -90 -79 t-114 -102t-117 -119t-99 -131t-61 -137t-1 -138zM768 1088q-54 10 -88 39t-55 67t-33 77t-26 66t-31 37t-48 -11t-79 -79t-122 -166q-50 -30 -67 -14t-9 57t37 99t72 113t96 96t109 51t112 -22t104 -126q24 -106 65 -147t94 -38t117 40t131 85t136 96t135 76 q14 -24 -15 -70t-85 -100t-131 -107t-152 -89t-148 -48t-119 18z" />
<glyph unicode="&#xf6;" horiz-adv-x="1074" d="M198 28q-104 42 -130 127t1 190t94 215t149 203t166 156t144 71q156 20 244 -21t121 -119t18 -181t-66 -209t-132 -203t-180 -162t-209 -88t-220 21zM170 170q16 -64 62 -82t109 1t137 66t146 111t137 140t109 149t62 139t-3 113t-87 67t-190 2q-36 -32 -90 -79 t-114 -102t-117 -119t-99 -131t-61 -137t-1 -138zM400 1118q-36 54 -19 106t57 82t87 24t73 -70q14 -38 -5 -79t-54 -67t-75 -29t-64 33zM758 1132q-36 52 -19 105t57 82t87 23t73 -70q14 -38 -5 -79t-54 -67t-75 -29t-64 35z" />
<glyph unicode="&#xf7;" horiz-adv-x="1538" d="M212 516q-82 -14 -105 4t31 86q2 8 54 19t135 24t190 25t219 20t220 12t195 1t143 -15t64 -36q4 -6 4 -28t-4 -30q-46 -4 -136 -10t-202 -14t-234 -17t-234 -17t-203 -15t-137 -9zM552 228q-18 34 -2 56t44 29t58 0t42 -31q22 -42 9 -71t-40 -38t-60 4t-51 51zM582 906 q-26 24 -29 53t11 50t41 26t61 -17q32 -22 36 -55t-11 -57t-45 -29t-64 29z" />
<glyph unicode="&#xf8;" horiz-adv-x="1074" d="M198 28q-104 42 -130 127t1 190t94 215t149 203t166 156t144 71q156 20 244 -21t121 -119t18 -181t-66 -209t-132 -203t-180 -162t-209 -88t-220 21zM170 170q16 -64 62 -82t109 1t137 66t146 111t137 140t109 149t62 139t-3 113t-87 67t-190 2q-36 -32 -90 -79 t-114 -102t-117 -119t-99 -131t-61 -137t-1 -138zM234 -260q-16 96 8 229t73 284t117 311t139 311t138 281t117 224q26 18 45 8t29 -32t13 -49t-1 -41l-30 -66t-45 -100t-53 -117t-53 -117t-45 -100t-28 -64q-12 -24 -37 -85t-52 -129t-50 -128t-31 -82q-12 -34 -30 -106 t-39 -153t-47 -158t-54 -121q-6 -8 -18 -17t-26 -12t-25 2t-15 27z" />
<glyph unicode="&#xf9;" horiz-adv-x="1440" d="M1076 28q-70 26 -110 72t-62 103t-33 121t-23 128q-18 12 -55 -12t-87 -65t-110 -94t-123 -100t-125 -82t-118 -40t-100 25t-72 114q-14 38 8 108t65 156t98 177t110 170t101 135t70 74q58 -28 52 -84t-46 -128t-101 -155t-114 -165t-86 -157t-17 -131q40 -16 97 6 t123 71t139 118t144 146t139 154t125 144t100 115t65 66q52 -26 52 -82t-28 -129t-70 -157t-72 -166t-35 -157t41 -129l84 -100h254q18 0 7 -15t-30 -33t-39 -34t-22 -16q-32 -6 -56 -6t-47 4t-45 11t-48 19zM720 1070q-34 60 -72 84t-67 45t-43 54t0 107q54 4 110 -33 t102 -90t75 -108t31 -89t-29 -33t-107 63z" />
<glyph unicode="&#xfa;" horiz-adv-x="1440" d="M1076 28q-70 26 -110 72t-62 103t-33 121t-23 128q-18 12 -55 -12t-87 -65t-110 -94t-123 -100t-125 -82t-118 -40t-100 25t-72 114q-14 38 8 108t65 156t98 177t110 170t101 135t70 74q58 -28 52 -84t-46 -128t-101 -155t-114 -165t-86 -157t-17 -131q40 -16 97 6 t123 71t139 118t144 146t139 154t125 144t100 115t65 66q52 -26 52 -82t-28 -129t-70 -157t-72 -166t-35 -157t41 -129l84 -100h254q18 0 7 -15t-30 -33t-39 -34t-22 -16q-32 -6 -56 -6t-47 4t-45 11t-48 19zM820 1070q-84 -60 -117 -60t-29 35t38 93t86 112t114 93t122 35 q16 -74 -1 -109t-52 -59t-79 -52t-82 -88z" />
<glyph unicode="&#xfb;" horiz-adv-x="1440" d="M1076 28q-70 26 -110 72t-62 103t-33 121t-23 128q-18 12 -55 -12t-87 -65t-110 -94t-123 -100t-125 -82t-118 -40t-100 25t-72 114q-14 38 8 108t65 156t98 177t110 170t101 135t70 74q58 -28 52 -84t-46 -128t-101 -155t-114 -165t-86 -157t-17 -131q40 -16 97 6 t123 71t139 118t144 146t139 154t125 144t100 115t65 66q52 -26 52 -82t-28 -129t-70 -157t-72 -166t-35 -157t41 -129l84 -100h254q18 0 7 -15t-30 -33t-39 -34t-22 -16q-32 -6 -56 -6t-47 4t-45 11t-48 19zM986 1382q-6 8 -19 47t-31 79t-37 66t-35 8q-6 -12 -23 -40 t-41 -63t-54 -69t-62 -58t-66 -32t-64 14q-14 8 -27 22t-3 32q12 22 44 48t68 53t67 54t43 49q56 118 102 161t82 35t62 -54t42 -107t21 -125t-1 -107t-23 -52t-45 39z" />
<glyph unicode="&#xfc;" horiz-adv-x="1440" d="M1076 28q-70 26 -110 72t-62 103t-33 121t-23 128q-18 12 -55 -12t-87 -65t-110 -94t-123 -100t-125 -82t-118 -40t-100 25t-72 114q-14 38 8 108t65 156t98 177t110 170t101 135t70 74q58 -28 52 -84t-46 -128t-101 -155t-114 -165t-86 -157t-17 -131q40 -16 97 6 t123 71t139 118t144 146t139 154t125 144t100 115t65 66q52 -26 52 -82t-28 -129t-70 -157t-72 -166t-35 -157t41 -129l84 -100h254q18 0 7 -15t-30 -33t-39 -34t-22 -16q-32 -6 -56 -6t-47 4t-45 11t-48 19zM532 1168q-36 54 -19 106t57 82t87 24t73 -70q14 -38 -5 -79 t-54 -67t-75 -29t-64 33zM890 1182q-36 52 -19 105t57 82t87 23t73 -70q14 -38 -5 -79t-54 -67t-75 -29t-64 35z" />
<glyph unicode="&#xfd;" horiz-adv-x="1102" d="M-424 -960q-24 36 0 108t67 152t90 149t69 99q20 26 62 82t95 125t111 146t111 147t95 125t62 81q20 22 -1 70t-62 112t-92 140t-92 155t-62 156t-1 145q26 20 60 -24t70 -120t75 -167t77 -165t74 -116t68 -18q64 48 127 122t120 154t109 157t96 133q18 22 35 31t51 -3 q22 -8 2 -59t-71 -136t-127 -197t-167 -238t-191 -262t-199 -269t-190 -258t-165 -230t-125 -183t-69 -118q-10 -22 -21 -45t-33 -39q-4 2 -13 10t-18 17t-17 18t-10 13zM548 1076q-84 -60 -117 -60t-29 35t38 93t86 112t114 93t122 35q16 -74 -1 -109t-52 -59t-79 -52 t-82 -88z" />
<glyph unicode="&#xfe;" horiz-adv-x="1354" d="M-118 -940q12 220 64 469t123 514t154 540t156 546t128 531t71 498q42 6 78 2t59 -33t29 -87t-11 -160t-61 -254t-122 -366q254 88 414 79t239 -82t86 -194t-43 -256t-147 -268t-227 -230t-285 -141t-319 -4q-66 -192 -100 -323t-48 -224t-17 -159t-8 -125t-19 -125 t-50 -158q-6 -10 -28 -18t-47 -8t-46 8t-23 28zM356 282q84 -30 177 -10t184 74t174 135t148 173t105 186t46 176t-28 143t-118 85q-172 -16 -280 -64t-173 -120t-98 -162t-52 -192t-35 -210t-50 -214z" />
<glyph unicode="&#xff;" horiz-adv-x="1102" d="M-424 -960q-24 36 0 108t67 152t90 149t69 99q20 26 62 82t95 125t111 146t111 147t95 125t62 81q20 22 -1 70t-62 112t-92 140t-92 155t-62 156t-1 145q26 20 60 -24t70 -120t75 -167t77 -165t74 -116t68 -18q64 48 127 122t120 154t109 157t96 133q18 22 35 31t51 -3 q22 -8 2 -59t-71 -136t-127 -197t-167 -238t-191 -262t-199 -269t-190 -258t-165 -230t-125 -183t-69 -118q-10 -22 -21 -45t-33 -39q-4 2 -13 10t-18 17t-17 18t-10 13zM300 1064q-36 54 -19 106t57 82t87 24t73 -70q14 -38 -5 -79t-54 -67t-75 -29t-64 33zM658 1078 q-36 52 -19 105t57 82t87 23t73 -70q14 -38 -5 -79t-54 -67t-75 -29t-64 35z" />
<glyph unicode="&#x102;" horiz-adv-x="2118" d="M-196 -462q-8 6 -24 24t-26 37t-8 35t28 16q40 -54 104 -57t142 30t163 95t167 136t157 154t132 151t91 124t34 73q0 8 -21 24t-46 33t-48 32t-27 23q8 24 48 39t90 26t98 22t74 27q88 128 161 238t136 212t122 199t120 200t127 216t146 245q32 54 52 37t31 -84t13 -172 t-1 -225t-9 -244t-11 -229t-9 -181t-2 -100q8 -126 12 -220t25 -173t69 -153t148 -160q-82 -26 -135 5t-87 94t-55 147t-41 162t-43 138t-63 76q-4 0 -15 1t-24 1t-26 -1t-19 -1q-14 -4 -47 -11t-77 -18t-93 -23t-95 -24t-83 -21t-57 -15q-62 -16 -131 -79t-145 -152 t-157 -194t-166 -205t-173 -186t-176 -137t-176 -58t-174 51zM1160 638q6 -2 27 -2t27 2q44 6 112 16t137 24t126 33t79 41l7 52t17 133t21 181t21 195t17 176t9 125q-26 12 -72 -63t-117 -208t-172 -310t-239 -365v-30zM1948 2254q58 -36 61 -83t-30 -88t-91 -65t-121 -16 t-120 59t-87 161q-4 4 2 11t17 14t21 13t16 6q26 -38 67 -84t88 -66t94 6t83 132z" />
<glyph unicode="&#x103;" horiz-adv-x="1754" d="M142 58q-60 50 -67 148t27 219t101 255t154 255t189 217t205 143t201 33t178 -114q50 -62 60 -126t-3 -130t-40 -134t-53 -138t-42 -143t-6 -147q10 -72 54 -99t110 -22t146 34t162 71t160 89t138 87t97 67l37 27q70 14 79 -10t-27 -69t-109 -104t-166 -114t-198 -100 t-205 -62t-188 2t-146 89q-26 30 -41 61t-43 53q-38 -36 -90 -92t-114 -112t-131 -106t-141 -76t-146 -18t-142 66zM170 142q16 -60 66 -70t118 19t149 92t160 152t151 197t123 227t75 242t6 243q-44 36 -107 19t-136 -71t-150 -138t-149 -183t-135 -206t-106 -205t-62 -182 t-3 -136zM1104 1790q58 -36 61 -83t-30 -88t-91 -65t-121 -16t-120 59t-87 161q-4 4 2 11t17 14t21 13t16 6q26 -38 67 -84t88 -66t94 6t83 132z" />
<glyph unicode="&#x106;" horiz-adv-x="1582" d="M268 28q-122 48 -183 123t-73 169t18 202t89 223t142 232t177 228t193 212t191 184t170 144t130 93q90 54 150 54t96 -37t50 -101t13 -136t-15 -143t-35 -124t-45 -77t-46 -2q-2 20 5 62t18 93t22 106t15 102t-3 79t-29 38q-72 18 -164 -20t-195 -116t-209 -188 t-205 -236t-184 -260t-144 -260t-87 -236t-14 -188t78 -116t188 -20q94 14 179 56t165 100t155 126t150 133t152 120t159 89q44 16 72 -14t14 -72t-89 -112t-183 -147t-238 -153t-254 -131t-230 -79t-166 0zM930 1876q-84 -60 -117 -60t-29 35t38 93t86 112t114 93t122 35 q16 -74 -1 -109t-52 -59t-79 -52t-82 -88z" />
<glyph unicode="&#x107;" horiz-adv-x="1398" d="M256 28q-128 42 -169 132t-22 203t86 240t159 242t195 208t193 140t155 37t81 -100q6 -40 -10 -88t-44 -92t-64 -80t-69 -54t-60 -12t-35 44q30 52 67 101t73 95q-14 28 -57 13t-102 -60t-126 -113t-129 -148t-111 -167t-71 -167t-11 -148t71 -112q82 -6 189 17t220 60 t224 82t202 82t155 58t84 11q36 -18 21 -50t-68 -71t-136 -81t-180 -81t-201 -72t-201 -54t-178 -26t-131 11zM790 1456q-84 -60 -117 -60t-29 35t38 93t86 112t114 93t122 35q16 -74 -1 -109t-52 -59t-79 -52t-82 -88z" />
<glyph unicode="&#x108;" horiz-adv-x="1582" d="M268 28q-122 48 -183 123t-73 169t18 202t89 223t142 232t177 228t193 212t191 184t170 144t130 93q90 54 150 54t96 -37t50 -101t13 -136t-15 -143t-35 -124t-45 -77t-46 -2q-2 20 5 62t18 93t22 106t15 102t-3 79t-29 38q-72 18 -164 -20t-195 -116t-209 -188 t-205 -236t-184 -260t-144 -260t-87 -236t-14 -188t78 -116t188 -20q94 14 179 56t165 100t155 126t150 133t152 120t159 89q44 16 72 -14t14 -72t-89 -112t-183 -147t-238 -153t-254 -131t-230 -79t-166 0zM1386 1894q-6 8 -19 47t-31 79t-37 66t-35 8q-6 -12 -23 -40 t-41 -63t-54 -69t-62 -58t-66 -32t-64 14q-14 8 -27 22t-3 32q12 22 44 48t68 53t67 54t43 49q56 118 102 161t82 35t62 -54t42 -107t21 -125t-1 -107t-23 -52t-45 39z" />
<glyph unicode="&#x109;" horiz-adv-x="1398" d="M256 28q-128 42 -169 132t-22 203t86 240t159 242t195 208t193 140t155 37t81 -100q6 -40 -10 -88t-44 -92t-64 -80t-69 -54t-60 -12t-35 44q30 52 67 101t73 95q-14 28 -57 13t-102 -60t-126 -113t-129 -148t-111 -167t-71 -167t-11 -148t71 -112q82 -6 189 17t220 60 t224 82t202 82t155 58t84 11q36 -18 21 -50t-68 -71t-136 -81t-180 -81t-201 -72t-201 -54t-178 -26t-131 11zM916 1634q-6 8 -19 47t-31 79t-37 66t-35 8q-6 -12 -23 -40t-41 -63t-54 -69t-62 -58t-66 -32t-64 14q-14 8 -27 22t-3 32q12 22 44 48t68 53t67 54t43 49 q56 118 102 161t82 35t62 -54t42 -107t21 -125t-1 -107t-23 -52t-45 39z" />
<glyph unicode="&#x10a;" horiz-adv-x="1582" d="M268 28q-122 48 -183 123t-73 169t18 202t89 223t142 232t177 228t193 212t191 184t170 144t130 93q90 54 150 54t96 -37t50 -101t13 -136t-15 -143t-35 -124t-45 -77t-46 -2q-2 20 5 62t18 93t22 106t15 102t-3 79t-29 38q-72 18 -164 -20t-195 -116t-209 -188 t-205 -236t-184 -260t-144 -260t-87 -236t-14 -188t78 -116t188 -20q94 14 179 56t165 100t155 126t150 133t152 120t159 89q44 16 72 -14t14 -72t-89 -112t-183 -147t-238 -153t-254 -131t-230 -79t-166 0zM880 1966q-38 50 -39 93t21 72t59 43t76 8t72 -33t47 -81 q24 -54 5 -97t-60 -62t-92 -8t-89 65z" />
<glyph unicode="&#x10b;" horiz-adv-x="1398" d="M256 28q-128 42 -169 132t-22 203t86 240t159 242t195 208t193 140t155 37t81 -100q6 -40 -10 -88t-44 -92t-64 -80t-69 -54t-60 -12t-35 44q30 52 67 101t73 95q-14 28 -57 13t-102 -60t-126 -113t-129 -148t-111 -167t-71 -167t-11 -148t71 -112q82 -6 189 17t220 60 t224 82t202 82t155 58t84 11q36 -18 21 -50t-68 -71t-136 -81t-180 -81t-201 -72t-201 -54t-178 -26t-131 11zM570 1452q-38 50 -39 93t21 72t59 43t76 8t72 -33t47 -81q24 -54 5 -97t-60 -62t-92 -8t-89 65z" />
<glyph unicode="&#x10c;" horiz-adv-x="1582" d="M268 28q-122 48 -183 123t-73 169t18 202t89 223t142 232t177 228t193 212t191 184t170 144t130 93q90 54 150 54t96 -37t50 -101t13 -136t-15 -143t-35 -124t-45 -77t-46 -2q-2 20 5 62t18 93t22 106t15 102t-3 79t-29 38q-72 18 -164 -20t-195 -116t-209 -188 t-205 -236t-184 -260t-144 -260t-87 -236t-14 -188t78 -116t188 -20q94 14 179 56t165 100t155 126t150 133t152 120t159 89q44 16 72 -14t14 -72t-89 -112t-183 -147t-238 -153t-254 -131t-230 -79t-166 0zM1236 2172q32 24 47 4t11 -60t-23 -87t-55 -76t-86 -26t-112 63 q-10 8 -33 30t-50 46t-52 45t-35 29q-8 8 5 13t23 7q38 12 77 -5t72 -45t57 -55t34 -33q14 -6 33 15t37 50t32 55t18 30z" />
<glyph unicode="&#x10d;" horiz-adv-x="1398" d="M256 28q-128 42 -169 132t-22 203t86 240t159 242t195 208t193 140t155 37t81 -100q6 -40 -10 -88t-44 -92t-64 -80t-69 -54t-60 -12t-35 44q30 52 67 101t73 95q-14 28 -57 13t-102 -60t-126 -113t-129 -148t-111 -167t-71 -167t-11 -148t71 -112q82 -6 189 17t220 60 t224 82t202 82t155 58t84 11q36 -18 21 -50t-68 -71t-136 -81t-180 -81t-201 -72t-201 -54t-178 -26t-131 11zM952 1704q32 24 47 4t11 -60t-23 -87t-55 -76t-86 -26t-112 63q-10 8 -33 30t-50 46t-52 45t-35 29q-8 8 5 13t23 7q38 12 77 -5t72 -45t57 -55t34 -33 q14 -6 33 15t37 50t32 55t18 30z" />
<glyph unicode="&#x10e;" horiz-adv-x="2058" d="M58 28q-14 38 4 67t52 47q156 78 304 131t292 107t287 121t289 171q262 152 425 288t245 253t93 214t-32 172t-129 125t-199 74t-243 19t-259 -40t-247 -103t-208 -172q-2 -4 -7 -17t-9 -27t-8 -27t-4 -15q-50 -120 -95 -216t-88 -180t-82 -162t-75 -163t-70 -185 t-66 -228q-44 -14 -64 3t-22 53t9 84t26 93t30 82t21 53q20 56 63 149t90 192t89 191t64 150q-22 72 -8 129t50 103t85 85t99 77q142 104 307 162t337 64t341 -44t319 -164q120 -100 141 -217t-33 -241t-171 -252t-272 -251t-336 -236t-362 -209t-352 -169t-305 -116 t-219 -52t-97 27zM1514 2228q32 24 47 4t11 -60t-23 -87t-55 -76t-86 -26t-112 63q-10 8 -33 30t-50 46t-52 45t-35 29q-8 8 5 13t23 7q38 12 77 -5t72 -45t57 -55t34 -33q14 -6 33 15t37 50t32 55t18 30z" />
<glyph unicode="&#x116;" horiz-adv-x="1864" d="M44 58q-14 12 8 28q24 90 52 173t58 164t63 164t71 175q12 24 -5 48t-37 48t-30 49t18 53q2 2 19 7t36 9t36 8t21 6t12 9t17 16l17 17t10 12q38 68 75 121t68 105t58 110t45 136q8 30 -14 38t-49 16t-46 24t-3 62q10 28 96 60t219 62t297 55t329 40t316 18t256 -11 t149 -48t-2 -92q-22 -6 -46 -1t-49 12t-51 13t-52 4q-120 -10 -236 -8t-230 2t-229 -9t-231 -41q-80 -22 -142 -79t-119 -143t-114 -199t-125 -247q28 -6 104 12t175 43t208 52t206 38t170 0t97 -59q2 -4 2 -14t-2 -14q-132 -20 -273 -36t-280 -40t-272 -65t-249 -113 q-96 -168 -171 -345t-133 -361q72 26 168 50t185 43t156 32t79 15q212 34 409 53t409 5q18 -4 25 -20t9 -34t0 -35t-4 -25q-274 14 -541 -21t-535 -93q-42 -10 -103 -34t-125 -44t-123 -27t-99 19q-10 4 -17 11t-11 21zM1168 1972q-38 50 -39 93t21 72t59 43t76 8t72 -33 t47 -81q24 -54 5 -97t-60 -62t-92 -8t-89 65z" />
<glyph unicode="&#x117;" horiz-adv-x="1088" d="M212 28q-76 26 -114 76t-50 113t-3 132t27 131q76 80 170 183t199 204t219 187t230 132q40 16 64 -3t34 -58t9 -92t-9 -102t-20 -90t-26 -55q-22 -26 -77 -60t-128 -73t-155 -82t-157 -87t-136 -90t-92 -90t-24 -85t69 -77q84 -10 206 9t248 51t243 66t193 52l30 -28 q-36 -48 -106 -91t-157 -79t-186 -61t-192 -39t-174 -13t-135 19zM810 982q-2 4 -37 -20t-87 -63t-110 -85t-108 -86t-81 -68t-27 -30q40 -8 104 12t132 54t131 78t100 86t37 75t-54 47zM554 1398q-38 50 -39 93t21 72t59 43t76 8t72 -33t47 -81q24 -54 5 -97t-60 -62 t-92 -8t-89 65z" />
<glyph unicode="&#x11a;" horiz-adv-x="1864" d="M44 58q-14 12 8 28q24 90 52 173t58 164t63 164t71 175q12 24 -5 48t-37 48t-30 49t18 53q2 2 19 7t36 9t36 8t21 6t12 9t17 16l17 17t10 12q38 68 75 121t68 105t58 110t45 136q8 30 -14 38t-49 16t-46 24t-3 62q10 28 96 60t219 62t297 55t329 40t316 18t256 -11 t149 -48t-2 -92q-22 -6 -46 -1t-49 12t-51 13t-52 4q-120 -10 -236 -8t-230 2t-229 -9t-231 -41q-80 -22 -142 -79t-119 -143t-114 -199t-125 -247q28 -6 104 12t175 43t208 52t206 38t170 0t97 -59q2 -4 2 -14t-2 -14q-132 -20 -273 -36t-280 -40t-272 -65t-249 -113 q-96 -168 -171 -345t-133 -361q72 26 168 50t185 43t156 32t79 15q212 34 409 53t409 5q18 -4 25 -20t9 -34t0 -35t-4 -25q-274 14 -541 -21t-535 -93q-42 -10 -103 -34t-125 -44t-123 -27t-99 19q-10 4 -17 11t-11 21zM1282 2136q32 24 47 4t11 -60t-23 -87t-55 -76 t-86 -26t-112 63q-10 8 -33 30t-50 46t-52 45t-35 29q-8 8 5 13t23 7q38 12 77 -5t72 -45t57 -55t34 -33q14 -6 33 15t37 50t32 55t18 30z" />
<glyph unicode="&#x11b;" horiz-adv-x="1088" d="M212 28q-76 26 -114 76t-50 113t-3 132t27 131q76 80 170 183t199 204t219 187t230 132q40 16 64 -3t34 -58t9 -92t-9 -102t-20 -90t-26 -55q-22 -26 -77 -60t-128 -73t-155 -82t-157 -87t-136 -90t-92 -90t-24 -85t69 -77q84 -10 206 9t248 51t243 66t193 52l30 -28 q-36 -48 -106 -91t-157 -79t-186 -61t-192 -39t-174 -13t-135 19zM810 982q-2 4 -37 -20t-87 -63t-110 -85t-108 -86t-81 -68t-27 -30q40 -8 104 12t132 54t131 78t100 86t37 75t-54 47zM754 1484q32 24 47 4t11 -60t-23 -87t-55 -76t-86 -26t-112 63q-10 8 -33 30t-50 46 t-52 45t-35 29q-8 8 5 13t23 7q38 12 77 -5t72 -45t57 -55t34 -33q14 -6 33 15t37 50t32 55t18 30z" />
<glyph unicode="&#x11c;" d="M184 28q-110 82 -149 203t-25 262t74 294t149 301t200 281t228 235t231 163t208 65q46 12 92 -2t83 -46t63 -74t32 -84t-11 -77t-63 -53q-10 -6 -25 -6t-15 6v196q0 6 -12 12t-29 10t-34 6t-27 0q-246 -62 -423 -210t-293 -350q-166 -292 -243 -487t-86 -311t41 -162 t136 -41t198 51t228 116t226 153t192 161t127 142t29 94q-40 6 -88 -6t-82 -22l-84 -28t-128 -42t-128 -43t-84 -29q-36 -12 -59 7t-31 46t-1 55t35 34q30 6 96 28t152 53t186 65t197 64t184 51t146 23t85 -18t0 -70q-24 -24 -83 -85t-127 -129t-128 -127t-86 -83 q-6 -6 -30 -26t-58 -49t-74 -62t-78 -66t-72 -61t-56 -44q-32 -28 -83 -70t-112 -86t-128 -83t-135 -61t-132 -22t-116 38zM1258 1894q-6 8 -19 47t-31 79t-37 66t-35 8q-6 -12 -23 -40t-41 -63t-54 -69t-62 -58t-66 -32t-64 14q-14 8 -27 22t-3 32q12 22 44 48t68 53t67 54 t43 49q56 118 102 161t82 35t62 -54t42 -107t21 -125t-1 -107t-23 -52t-45 39z" />
<glyph unicode="&#x11d;" horiz-adv-x="904" d="M-340 -706q-78 28 -127 83t-75 119t-32 130t3 116t30 76t49 12q-2 -218 51 -329t140 -139t196 14t219 131t211 212t172 257t100 266t-3 238q-180 -130 -295 -182t-178 -46t-78 61t4 136t67 180t113 195t139 178t147 130t138 52t111 -56q58 -76 72 -208t-8 -292t-78 -335 t-139 -341t-188 -310t-228 -239t-258 -128t-275 19zM170 536q-4 -8 -5 -28t-1 -43t1 -42t5 -27q60 -16 124 14t122 86t109 130t86 145t52 131t7 89t-48 19t-114 -78q-30 -28 -80 -75t-101 -102t-95 -113t-62 -106zM882 1614q-6 8 -19 47t-31 79t-37 66t-35 8q-6 -12 -23 -40 t-41 -63t-54 -69t-62 -58t-66 -32t-64 14q-14 8 -27 22t-3 32q12 22 44 48t68 53t67 54t43 49q56 118 102 161t82 35t62 -54t42 -107t21 -125t-1 -107t-23 -52t-45 39z" />
<glyph unicode="&#x11e;" d="M184 28q-110 82 -149 203t-25 262t74 294t149 301t200 281t228 235t231 163t208 65q46 12 92 -2t83 -46t63 -74t32 -84t-11 -77t-63 -53q-10 -6 -25 -6t-15 6v196q0 6 -12 12t-29 10t-34 6t-27 0q-246 -62 -423 -210t-293 -350q-166 -292 -243 -487t-86 -311t41 -162 t136 -41t198 51t228 116t226 153t192 161t127 142t29 94q-40 6 -88 -6t-82 -22l-84 -28t-128 -42t-128 -43t-84 -29q-36 -12 -59 7t-31 46t-1 55t35 34q30 6 96 28t152 53t186 65t197 64t184 51t146 23t85 -18t0 -70q-24 -24 -83 -85t-127 -129t-128 -127t-86 -83 q-6 -6 -30 -26t-58 -49t-74 -62t-78 -66t-72 -61t-56 -44q-32 -28 -83 -70t-112 -86t-128 -83t-135 -61t-132 -22t-116 38zM1030 2128q58 -36 61 -83t-30 -88t-91 -65t-121 -16t-120 59t-87 161q-4 4 2 11t17 14t21 13t16 6q26 -38 67 -84t88 -66t94 6t83 132z" />
<glyph unicode="&#x11f;" horiz-adv-x="904" d="M-340 -706q-78 28 -127 83t-75 119t-32 130t3 116t30 76t49 12q-2 -218 51 -329t140 -139t196 14t219 131t211 212t172 257t100 266t-3 238q-180 -130 -295 -182t-178 -46t-78 61t4 136t67 180t113 195t139 178t147 130t138 52t111 -56q58 -76 72 -208t-8 -292t-78 -335 t-139 -341t-188 -310t-228 -239t-258 -128t-275 19zM170 536q-4 -8 -5 -28t-1 -43t1 -42t5 -27q60 -16 124 14t122 86t109 130t86 145t52 131t7 89t-48 19t-114 -78q-30 -28 -80 -75t-101 -102t-95 -113t-62 -106zM678 1574q58 -36 61 -83t-30 -88t-91 -65t-121 -16t-120 59 t-87 161q-4 4 2 11t17 14t21 13t16 6q26 -38 67 -84t88 -66t94 6t83 132z" />
<glyph unicode="&#x120;" d="M184 28q-110 82 -149 203t-25 262t74 294t149 301t200 281t228 235t231 163t208 65q46 12 92 -2t83 -46t63 -74t32 -84t-11 -77t-63 -53q-10 -6 -25 -6t-15 6v196q0 6 -12 12t-29 10t-34 6t-27 0q-246 -62 -423 -210t-293 -350q-166 -292 -243 -487t-86 -311t41 -162 t136 -41t198 51t228 116t226 153t192 161t127 142t29 94q-40 6 -88 -6t-82 -22l-84 -28t-128 -42t-128 -43t-84 -29q-36 -12 -59 7t-31 46t-1 55t35 34q30 6 96 28t152 53t186 65t197 64t184 51t146 23t85 -18t0 -70q-24 -24 -83 -85t-127 -129t-128 -127t-86 -83 q-6 -6 -30 -26t-58 -49t-74 -62t-78 -66t-72 -61t-56 -44q-32 -28 -83 -70t-112 -86t-128 -83t-135 -61t-132 -22t-116 38zM818 1928q-38 50 -39 93t21 72t59 43t76 8t72 -33t47 -81q24 -54 5 -97t-60 -62t-92 -8t-89 65z" />
<glyph unicode="&#x121;" horiz-adv-x="904" d="M-340 -706q-78 28 -127 83t-75 119t-32 130t3 116t30 76t49 12q-2 -218 51 -329t140 -139t196 14t219 131t211 212t172 257t100 266t-3 238q-180 -130 -295 -182t-178 -46t-78 61t4 136t67 180t113 195t139 178t147 130t138 52t111 -56q58 -76 72 -208t-8 -292t-78 -335 t-139 -341t-188 -310t-228 -239t-258 -128t-275 19zM170 536q-4 -8 -5 -28t-1 -43t1 -42t5 -27q60 -16 124 14t122 86t109 130t86 145t52 131t7 89t-48 19t-114 -78q-30 -28 -80 -75t-101 -102t-95 -113t-62 -106zM472 1348q-38 50 -39 93t21 72t59 43t76 8t72 -33t47 -81 q24 -54 5 -97t-60 -62t-92 -8t-89 65z" />
<glyph unicode="&#x124;" horiz-adv-x="1772" d="M86 28q-26 38 -19 120t33 185t65 218t79 218t74 185t50 120q16 40 45 107t63 150t72 172t72 172t62 150t46 107q54 18 72 -3t10 -71t-35 -121t-64 -152t-76 -166t-70 -162t-47 -140t-8 -99q44 -6 103 -1t121 15t121 22t105 20q150 26 260 65t191 94t140 127t109 165 t98 205t108 248q20 42 38 35t30 -35t16 -64t0 -50q-2 -6 -15 -31t-27 -54t-27 -53t-15 -30q-4 -10 -12 -34l-17 -51t-18 -52t-11 -33q10 -4 32 -26t26 -32q8 -44 -28 -98t-87 -111t-100 -112t-67 -103q-102 -250 -176 -499t-108 -517q-8 -14 -23 -26t-33 -2q-4 54 10 151 t37 210t50 231t50 216t38 163t13 73q-52 10 -134 4t-180 -22t-204 -39t-204 -48t-183 -49t-139 -42q-44 -94 -72 -208t-55 -229t-63 -222t-94 -189q-4 2 -15 13t-13 15zM1512 1992q-6 8 -19 47t-31 79t-37 66t-35 8q-6 -12 -23 -40t-41 -63t-54 -69t-62 -58t-66 -32t-64 14 q-14 8 -27 22t-3 32q12 22 44 48t68 53t67 54t43 49q56 118 102 161t82 35t62 -54t42 -107t21 -125t-1 -107t-23 -52t-45 39z" />
<glyph unicode="&#x125;" horiz-adv-x="1384" d="M28 58q-2 4 -2 13t2 13q8 20 32 69t51 103t52 102t35 66q4 8 26 43t53 87t67 113l72 122t68 114t52 87q50 82 116 195t136 228t138 222t126 178t98 93t54 -30q2 -10 2 -41t-2 -41q-16 -26 -46 -70t-62 -93t-61 -93t-45 -70q-22 -34 -72 -112t-113 -176t-128 -204 t-118 -198t-84 -158t-23 -84q60 18 129 63t139 97t140 102t130 78q60 -8 106 -45t64 -95q-2 -24 -3 -85t-1 -128t1 -127t3 -84q2 -26 25 -68t49 -82t47 -71t19 -33q-50 -18 -94 -1t-78 52t-56 82t-26 91q-4 24 -8 85t-9 128t-8 127t-3 84l-58 30q-14 6 -51 -14t-85 -55 t-100 -79t-97 -84t-78 -70t-41 -38q-22 -20 -74 -72l-111 -111t-110 -112t-71 -73q-34 -8 -66 -6t-48 36zM1292 1874q-6 8 -19 47t-31 79t-37 66t-35 8q-6 -12 -23 -40t-41 -63t-54 -69t-62 -58t-66 -32t-64 14q-14 8 -27 22t-3 32q12 22 44 48t68 53t67 54t43 49 q56 118 102 161t82 35t62 -54t42 -107t21 -125t-1 -107t-23 -52t-45 39z" />
<glyph unicode="&#x127;" horiz-adv-x="1384" d="M52 18q-2 4 -2 13t2 13q8 20 32 69t51 103t52 102t35 66q4 8 26 43t53 87t67 113l72 122t68 114t52 87q50 82 116 195t136 228t138 222t126 178t98 93t54 -30q2 -10 2 -41t-2 -41q-16 -26 -46 -70t-62 -93t-61 -93t-45 -70q-22 -34 -72 -112t-113 -176t-128 -204 t-118 -198t-84 -158t-23 -84q60 18 129 63t139 97t140 102t130 78q60 -8 106 -45t64 -95q-2 -24 -3 -85t-1 -128t1 -127t3 -84q2 -26 25 -68t49 -82t47 -71t19 -33q-50 -18 -94 -1t-78 52t-56 82t-26 91q-4 24 -8 85t-9 128t-8 127t-3 84l-58 30q-14 6 -51 -14t-85 -55 t-100 -79t-97 -84t-78 -70t-41 -38q-22 -20 -74 -72l-111 -111t-110 -112t-71 -73q-34 -8 -66 -6t-48 36zM186 1130q-32 32 4 62t115 55t189 43t227 28t229 8t195 -17t125 -45t18 -78q-26 0 -90 -4t-137 -8t-137 -8t-90 -6q-62 -6 -152 -30t-184 -40t-179 -12t-133 52z" />
<glyph unicode="&#x128;" horiz-adv-x="550" d="M28 84q-4 18 -1 50t10 64t13 56t8 28l564 1470q12 30 22 34t19 -9t15 -38t9 -54t1 -57t-10 -46q-80 -190 -161 -380t-156 -384t-139 -391t-110 -399q-18 -12 -33 -10t-25 13t-17 26t-9 27zM624 1848q-54 10 -88 39t-55 67t-33 77t-26 66t-31 37t-48 -11t-79 -79 t-122 -166q-50 -30 -67 -14t-9 57t37 99t72 113t96 96t109 51t112 -22t104 -126q24 -106 65 -147t94 -38t117 40t131 85t136 96t135 76q14 -24 -15 -70t-85 -100t-131 -107t-152 -89t-148 -48t-119 18z" />
<glyph unicode="&#x130;" horiz-adv-x="550" d="M28 84q-4 18 -1 50t10 64t13 56t8 28l564 1470q12 30 22 34t19 -9t15 -38t9 -54t1 -57t-10 -46q-80 -190 -161 -380t-156 -384t-139 -391t-110 -399q-18 -12 -33 -10t-25 13t-17 26t-9 27zM520 1968q-38 50 -39 93t21 72t59 43t76 8t72 -33t47 -81q24 -54 5 -97t-60 -62 t-92 -8t-89 65z" />
<glyph unicode="&#x134;" horiz-adv-x="1554" d="M212 28q-26 12 -59 49t-63 85t-53 101t-30 99t7 79t58 39q2 -34 8 -89t23 -108t50 -94t89 -47q122 -8 219 28t174 105t136 164t106 204t84 226t68 230t59 216t58 183q18 70 6 104t-45 43t-84 -1t-109 -30t-121 -43t-120 -39t-104 -20t-75 14q-52 34 -35 68t83 65t169 59 t222 53t243 45t232 36t189 26t113 14q42 6 118 15l152 18t137 16t73 7q46 4 118 6t140 2t117 -2t49 -6l28 -84q-66 -4 -182 -7t-254 -11t-284 -22t-274 -38t-226 -60t-136 -88q-20 -58 -48 -171t-68 -257t-91 -305t-115 -314t-142 -284t-171 -214t-202 -106t-237 41z M1506 1956q-6 8 -19 47t-31 79t-37 66t-35 8q-6 -12 -23 -40t-41 -63t-54 -69t-62 -58t-66 -32t-64 14q-14 8 -27 22t-3 32q12 22 44 48t68 53t67 54t43 49q56 118 102 161t82 35t62 -54t42 -107t21 -125t-1 -107t-23 -52t-45 39z" />
<glyph unicode="&#x135;" horiz-adv-x="466" d="M-608 -874q-62 26 -126 74t-100 106t-29 121t85 123q18 -2 25 -25t11 -55t8 -70t17 -72t38 -59t71 -31q114 -16 207 37t167 153t134 233t109 276t90 285t78 257t73 192t74 93q32 -10 31 -96t-29 -217t-80 -292t-123 -322t-156 -309t-180 -251t-195 -149t-200 -2z M446 1236q-6 8 -19 47t-31 79t-37 66t-35 8q-6 -12 -23 -40t-41 -63t-54 -69t-62 -58t-66 -32t-64 14q-14 8 -27 22t-3 32q12 22 44 48t68 53t67 54t43 49q56 118 102 161t82 35t62 -54t42 -107t21 -125t-1 -107t-23 -52t-45 39z" />
<glyph unicode="&#x139;" horiz-adv-x="1752" d="M72 28q-20 12 -27 34t-5 48t12 56t22 58q30 66 82 142q78 152 142 274t120 229t106 207t101 209t106 235t121 286q6 10 18 28t27 29t33 7t36 -36q24 -50 3 -138t-73 -201t-126 -244t-153 -266t-157 -267t-136 -248t-90 -209t-22 -149q178 -16 358 4t360 48t361 51t361 11 q32 2 55 -25t3 -59q-6 0 -22 1t-34 1t-34 -1t-22 -1q-92 -8 -208 -25t-244 -37t-263 -40t-267 -33t-257 -16t-233 9q-4 0 -25 11t-29 17zM1314 1574q-84 -60 -117 -60t-29 35t38 93t86 112t114 93t122 35q16 -74 -1 -109t-52 -59t-79 -52t-82 -88z" />
<glyph unicode="&#x13a;" horiz-adv-x="820" d="M142 28q-74 52 -94 132t-6 174t54 194t86 193t90 170t68 127q4 10 19 40t36 70t43 86t43 87t36 72t19 41q6 12 20 48t32 79t39 82t44 57t47 5t46 -75q-10 -26 -48 -100t-91 -179t-116 -232t-124 -258t-113 -255t-85 -225t-40 -168t23 -81q36 -18 91 -14t116 15t119 21 t98 8q10 -22 -15 -43t-70 -37t-103 -27t-112 -16t-96 -3t-56 12zM624 1812q-84 -60 -117 -60t-29 35t38 93t86 112t114 93t122 35q16 -74 -1 -109t-52 -59t-79 -52t-82 -88z" />
<glyph unicode="&#x141;" horiz-adv-x="1752" d="M72 28q-20 12 -27 34t-5 48t12 56t22 58q30 66 82 142q78 152 142 274t120 229t106 207t101 209t106 235t121 286q6 10 18 28t27 29t33 7t36 -36q24 -50 3 -138t-73 -201t-126 -244t-153 -266t-157 -267t-136 -248t-90 -209t-22 -149q178 -16 358 4t360 48t361 51t361 11 q32 2 55 -25t3 -59q-6 0 -22 1t-34 1t-34 -1t-22 -1q-92 -8 -208 -25t-244 -37t-263 -40t-267 -33t-257 -16t-233 9q-4 0 -25 11t-29 17zM-26 690q-32 32 4 62t115 55t189 43t227 28t229 8t195 -17t125 -45t18 -78q-26 0 -90 -4t-137 -8t-137 -8t-90 -6q-62 -6 -152 -30 t-184 -40t-179 -12t-133 52z" />
<glyph unicode="&#x142;" horiz-adv-x="820" d="M142 28q-74 52 -94 132t-6 174t54 194t86 193t90 170t68 127q4 10 19 40t36 70t43 86t43 87t36 72t19 41q6 12 20 48t32 79t39 82t44 57t47 5t46 -75q-10 -26 -48 -100t-91 -179t-116 -232t-124 -258t-113 -255t-85 -225t-40 -168t23 -81q36 -18 91 -14t116 15t119 21 t98 8q10 -22 -15 -43t-70 -37t-103 -27t-112 -16t-96 -3t-56 12zM-114 706q-32 32 4 62t115 55t189 43t227 28t229 8t195 -17t125 -45t18 -78q-26 0 -90 -4t-137 -8t-137 -8t-90 -6q-62 -6 -152 -30t-184 -40t-179 -12t-133 52z" />
<glyph unicode="&#x143;" horiz-adv-x="2074" d="M28 58q16 78 60 172t96 187t103 177t81 142q14 30 46 91t70 139t81 164t83 164t70 140t46 92q58 60 101 54t78 -61t62 -148t53 -208t52 -241t57 -245t70 -223t91 -172q32 -16 78 32t101 139t116 215t122 259t119 271t106 253t85 204t57 123q18 32 36 31t32 -20t20 -48 t-2 -51q-80 -218 -150 -392t-144 -337t-158 -332t-192 -375q-40 -48 -78 -77t-76 -32t-77 23t-79 86q-82 146 -130 275t-81 256t-60 259t-67 284q-16 10 -51 -26t-81 -104t-100 -160t-109 -194t-109 -204t-99 -191t-79 -155t-50 -96q-12 -22 -32 -56t-38 -65t-32 -54 l-14 -23h-84q-2 6 -2 28t2 30zM1362 1824q-84 -60 -117 -60t-29 35t38 93t86 112t114 93t122 35q16 -74 -1 -109t-52 -59t-79 -52t-82 -88z" />
<glyph unicode="&#x144;" horiz-adv-x="1440" d="M974 28q-8 82 14 163t58 160t77 158t72 155t43 150t-10 146q-64 22 -145 -11t-171 -99t-186 -155t-187 -180t-174 -173t-150 -136t-112 -68t-59 32q0 2 17 38t46 95t67 133t79 152t81 154t73 136t57 98t32 42q50 -34 52 -75t-13 -86t-33 -90t-6 -89q42 28 112 77t155 101 t175 101t171 79t144 32t93 -38t19 -131t-79 -249q-4 -12 -20 -47t-36 -81t-43 -98t-44 -98t-36 -81t-19 -47q-4 -10 -7 -37t-9 -58t-16 -60t-24 -43q-8 -8 -17 -5t-18 9t-15 13t-8 11zM942 1264q-84 -60 -117 -60t-29 35t38 93t86 112t114 93t122 35q16 -74 -1 -109t-52 -59 t-79 -52t-82 -88z" />
<glyph unicode="&#x147;" horiz-adv-x="2074" d="M28 58q16 78 60 172t96 187t103 177t81 142q14 30 46 91t70 139t81 164t83 164t70 140t46 92q58 60 101 54t78 -61t62 -148t53 -208t52 -241t57 -245t70 -223t91 -172q32 -16 78 32t101 139t116 215t122 259t119 271t106 253t85 204t57 123q18 32 36 31t32 -20t20 -48 t-2 -51q-80 -218 -150 -392t-144 -337t-158 -332t-192 -375q-40 -48 -78 -77t-76 -32t-77 23t-79 86q-82 146 -130 275t-81 256t-60 259t-67 284q-16 10 -51 -26t-81 -104t-100 -160t-109 -194t-109 -204t-99 -191t-79 -155t-50 -96q-12 -22 -32 -56t-38 -65t-32 -54 l-14 -23h-84q-2 6 -2 28t2 30zM1696 2100q32 24 47 4t11 -60t-23 -87t-55 -76t-86 -26t-112 63q-10 8 -33 30t-50 46t-52 45t-35 29q-8 8 5 13t23 7q38 12 77 -5t72 -45t57 -55t34 -33q14 -6 33 15t37 50t32 55t18 30z" />
<glyph unicode="&#x148;" horiz-adv-x="1440" d="M974 28q-8 82 14 163t58 160t77 158t72 155t43 150t-10 146q-64 22 -145 -11t-171 -99t-186 -155t-187 -180t-174 -173t-150 -136t-112 -68t-59 32q0 2 17 38t46 95t67 133t79 152t81 154t73 136t57 98t32 42q50 -34 52 -75t-13 -86t-33 -90t-6 -89q42 28 112 77t155 101 t175 101t171 79t144 32t93 -38t19 -131t-79 -249q-4 -12 -20 -47t-36 -81t-43 -98t-44 -98t-36 -81t-19 -47q-4 -10 -7 -37t-9 -58t-16 -60t-24 -43q-8 -8 -17 -5t-18 9t-15 13t-8 11zM1144 1660q32 24 47 4t11 -60t-23 -87t-55 -76t-86 -26t-112 63q-10 8 -33 30t-50 46 t-52 45t-35 29q-8 8 5 13t23 7q38 12 77 -5t72 -45t57 -55t34 -33q14 -6 33 15t37 50t32 55t18 30z" />
<glyph unicode="&#x150;" horiz-adv-x="1318" d="M242 28q-84 36 -128 90t-59 120t-6 139t34 146t59 141t70 126q12 20 38 60t59 90t70 105t71 105t60 90t40 58q24 154 87 257t148 160t182 69t187 -17t164 -96t113 -169t33 -238t-75 -301t-210 -357t-375 -408q-50 -48 -118 -91t-144 -71t-154 -33t-146 25zM156 226 q26 -114 95 -141t164 10t208 128t225 212t215 263t178 282t115 268t27 221t-90 141t-233 28q-56 -50 -151 -146t-203 -219t-216 -264t-190 -281t-124 -270t-20 -232zM794 1926q-84 -60 -118 -62t-33 29t32 85t80 105t109 87t120 32q10 -50 7 -78t-15 -46t-33 -29t-45 -25 t-51 -36t-53 -62zM1180 1892q-84 -60 -119 -62t-34 30t32 85t80 104t109 87t120 32q16 -72 3 -102t-43 -49t-70 -42t-78 -83z" />
<glyph unicode="&#x151;" horiz-adv-x="1074" d="M198 28q-104 42 -130 127t1 190t94 215t149 203t166 156t144 71q156 20 244 -21t121 -119t18 -181t-66 -209t-132 -203t-180 -162t-209 -88t-220 21zM170 170q16 -64 62 -82t109 1t137 66t146 111t137 140t109 149t62 139t-3 113t-87 67t-190 2q-36 -32 -90 -79 t-114 -102t-117 -119t-99 -131t-61 -137t-1 -138zM410 1240q-84 -60 -118 -62t-33 29t32 85t80 105t109 87t120 32q10 -50 7 -78t-15 -46t-33 -29t-45 -25t-51 -36t-53 -62zM796 1206q-84 -60 -119 -62t-34 30t32 85t80 104t109 87t120 32q16 -72 3 -102t-43 -49t-70 -42 t-78 -83z" />
<glyph unicode="&#x152;" horiz-adv-x="2876" d="M242 28q-84 36 -128 90t-59 120t-6 139t34 146t59 141t70 126q12 20 38 60t59 90t70 105t71 105t60 90t40 58q24 154 87 257t148 160t182 69t187 -17t164 -96t113 -169t33 -238t-75 -301t-210 -357t-375 -408q-50 -48 -118 -91t-144 -71t-154 -33t-146 25zM156 226 q26 -114 95 -141t164 10t208 128t225 212t215 263t178 282t115 268t27 221t-90 141t-233 28q-56 -50 -151 -146t-203 -219t-216 -264t-190 -281t-124 -270t-20 -232zM1050 40q-14 12 8 28q24 90 52 173t58 164t63 164t71 175q12 24 -5 48t-37 48t-30 49t18 53q2 2 19 7t36 9 t36 8t21 6t12 9t17 16l17 17t10 12q38 68 75 121t68 105t58 110t45 136q8 30 -14 38t-49 16t-46 24t-3 62q10 28 96 60t219 62t297 55t329 40t316 18t256 -11t149 -48t-2 -92q-22 -6 -46 -1t-49 12t-51 13t-52 4q-120 -10 -236 -8t-230 2t-229 -9t-231 -41q-80 -22 -142 -79 t-119 -143t-114 -199t-125 -247q28 -6 104 12t175 43t208 52t206 38t170 0t97 -59q2 -4 2 -14t-2 -14q-132 -20 -273 -36t-280 -40t-272 -65t-249 -113q-96 -168 -171 -345t-133 -361q72 26 168 50t185 43t156 32t79 15q212 34 409 53t409 5q18 -4 25 -20t9 -34t0 -35 t-4 -25q-274 14 -541 -21t-535 -93q-42 -10 -103 -34t-125 -44t-123 -27t-99 19q-10 4 -17 11t-11 21z" />
<glyph unicode="&#x153;" horiz-adv-x="1984" d="M198 28q-104 42 -130 127t1 190t94 215t149 203t166 156t144 71q156 20 244 -21t121 -119t18 -181t-66 -209t-132 -203t-180 -162t-209 -88t-220 21zM170 170q16 -64 62 -82t109 1t137 66t146 111t137 140t109 149t62 139t-3 113t-87 67t-190 2q-36 -32 -90 -79 t-114 -102t-117 -119t-99 -131t-61 -137t-1 -138zM978 28q-76 26 -114 76t-50 113t-3 132t27 131q76 80 170 183t199 204t219 187t230 132q40 16 64 -3t34 -58t9 -92t-9 -102t-20 -90t-26 -55q-22 -26 -77 -60t-128 -73t-155 -82t-157 -87t-136 -90t-92 -90t-24 -85t69 -77 q84 -10 206 9t248 51t243 66t193 52l30 -28q-36 -48 -106 -91t-157 -79t-186 -61t-192 -39t-174 -13t-135 19zM1576 982q-2 4 -37 -20t-87 -63t-110 -85t-108 -86t-81 -68t-27 -30q40 -8 104 12t132 54t131 78t100 86t37 75t-54 47z" />
<glyph unicode="&#x154;" horiz-adv-x="1718" d="M44 28q-14 42 7 123t66 185t106 224t126 240t128 235t110 208t74 156t19 83q-30 10 -64 -7l-68 -34t-66 -21t-56 34q-12 18 -8 35t14 32t24 27t24 18q286 186 542 291t459 143t342 16t192 -91t7 -178t-213 -244t-468 -289t-757 -314q-24 -40 14 -91t115 -108t180 -120 t209 -127t203 -125t160 -117t81 -103t-34 -81q-2 -2 -31 19t-71 55t-91 73t-92 75t-74 61t-37 29q-150 96 -301 188t-293 208q-34 12 -70 -24t-71 -99t-69 -145t-66 -164t-61 -154t-55 -116t-48 -50t-38 44zM640 1070q54 -18 148 3t208 68t237 114t236 141t207 149t147 139 t57 108t-62 58q-270 4 -460 -27t-326 -116t-228 -232t-164 -375v-30zM988 1916q-84 -60 -117 -60t-29 35t38 93t86 112t114 93t122 35q16 -74 -1 -109t-52 -59t-79 -52t-82 -88z" />
<glyph unicode="&#x155;" horiz-adv-x="1214" d="M72 28q-4 2 2 59t19 142t32 187t42 195t49 166t52 99q18 18 35 1t34 -41t35 -42t38 -4q70 98 154 187t186 153q10 8 55 24t103 32t119 28t104 10t59 -23t-16 -71q-112 -2 -213 -51t-191 -129t-169 -182t-145 -207t-121 -206t-96 -180t-70 -127t-43 -48q-4 0 -24 11 t-30 17zM724 1576q-84 -60 -117 -60t-29 35t38 93t86 112t114 93t122 35q16 -74 -1 -109t-52 -59t-79 -52t-82 -88z" />
<glyph unicode="&#x158;" horiz-adv-x="1718" d="M44 28q-14 42 7 123t66 185t106 224t126 240t128 235t110 208t74 156t19 83q-30 10 -64 -7l-68 -34t-66 -21t-56 34q-12 18 -8 35t14 32t24 27t24 18q286 186 542 291t459 143t342 16t192 -91t7 -178t-213 -244t-468 -289t-757 -314q-24 -40 14 -91t115 -108t180 -120 t209 -127t203 -125t160 -117t81 -103t-34 -81q-2 -2 -31 19t-71 55t-91 73t-92 75t-74 61t-37 29q-150 96 -301 188t-293 208q-34 12 -70 -24t-71 -99t-69 -145t-66 -164t-61 -154t-55 -116t-48 -50t-38 44zM640 1070q54 -18 148 3t208 68t237 114t236 141t207 149t147 139 t57 108t-62 58q-270 4 -460 -27t-326 -116t-228 -232t-164 -375v-30zM1270 2212q32 24 47 4t11 -60t-23 -87t-55 -76t-86 -26t-112 63q-10 8 -33 30t-50 46t-52 45t-35 29q-8 8 5 13t23 7q38 12 77 -5t72 -45t57 -55t34 -33q14 -6 33 15t37 50t32 55t18 30z" />
<glyph unicode="&#x159;" horiz-adv-x="1214" d="M72 28q-4 2 2 59t19 142t32 187t42 195t49 166t52 99q18 18 35 1t34 -41t35 -42t38 -4q70 98 154 187t186 153q10 8 55 24t103 32t119 28t104 10t59 -23t-16 -71q-112 -2 -213 -51t-191 -129t-169 -182t-145 -207t-121 -206t-96 -180t-70 -127t-43 -48q-4 0 -24 11 t-30 17zM740 1488q32 24 47 4t11 -60t-23 -87t-55 -76t-86 -26t-112 63q-10 8 -33 30t-50 46t-52 45t-35 29q-8 8 5 13t23 7q38 12 77 -5t72 -45t57 -55t34 -33q14 -6 33 15t37 50t32 55t18 30z" />
<glyph unicode="&#x15a;" horiz-adv-x="1536" d="M228 28q-12 4 -58 27t-87 53t-57 62t32 56q28 -26 76 -61t94 -53q136 -6 267 -1t254 32t240 81t225 142q124 102 162 188t14 160t-98 138t-174 120t-215 105t-221 96t-190 92t-124 91q-10 42 42 99t144 119t213 122t247 111t245 85t208 43t138 -13t33 -84q-18 -4 -91 -23 t-176 -50t-225 -71t-239 -84t-216 -89t-158 -86t-64 -77t67 -60q292 -88 483 -185t297 -198t138 -202t6 -195t-100 -179t-178 -154t-229 -118t-253 -72t-251 -16t-221 49zM792 1888q-84 -60 -117 -60t-29 35t38 93t86 112t114 93t122 35q16 -74 -1 -109t-52 -59t-79 -52 t-82 -88z" />
<glyph unicode="&#x15b;" horiz-adv-x="990" d="M72 28q-30 20 -1 53t93 73t148 82t163 79t140 66t77 43q66 56 81 97t-6 69t-72 46t-115 31t-136 23t-135 22t-109 28t-62 42t6 62t98 88q36 26 104 73t147 97t156 90t129 52q26 6 55 -5t47 -29t16 -40t-34 -40q-140 -78 -272 -149t-264 -161q-10 -20 2 -35t26 -23 q214 -22 341 -59t185 -82t58 -97t-41 -105t-114 -105t-160 -99t-179 -86t-170 -64t-133 -36t-69 -1zM456 1222q-84 -60 -117 -60t-29 35t38 93t86 112t114 93t122 35q16 -74 -1 -109t-52 -59t-79 -52t-82 -88z" />
<glyph unicode="&#x15c;" horiz-adv-x="1536" d="M228 28q-12 4 -58 27t-87 53t-57 62t32 56q28 -26 76 -61t94 -53q136 -6 267 -1t254 32t240 81t225 142q124 102 162 188t14 160t-98 138t-174 120t-215 105t-221 96t-190 92t-124 91q-10 42 42 99t144 119t213 122t247 111t245 85t208 43t138 -13t33 -84q-18 -4 -91 -23 t-176 -50t-225 -71t-239 -84t-216 -89t-158 -86t-64 -77t67 -60q292 -88 483 -185t297 -198t138 -202t6 -195t-100 -179t-178 -154t-229 -118t-253 -72t-251 -16t-221 49zM1090 1926q-6 8 -19 47t-31 79t-37 66t-35 8q-6 -12 -23 -40t-41 -63t-54 -69t-62 -58t-66 -32 t-64 14q-14 8 -27 22t-3 32q12 22 44 48t68 53t67 54t43 49q56 118 102 161t82 35t62 -54t42 -107t21 -125t-1 -107t-23 -52t-45 39z" />
<glyph unicode="&#x15d;" horiz-adv-x="990" d="M72 28q-30 20 -1 53t93 73t148 82t163 79t140 66t77 43q66 56 81 97t-6 69t-72 46t-115 31t-136 23t-135 22t-109 28t-62 42t6 62t98 88q36 26 104 73t147 97t156 90t129 52q26 6 55 -5t47 -29t16 -40t-34 -40q-140 -78 -272 -149t-264 -161q-10 -20 2 -35t26 -23 q214 -22 341 -59t185 -82t58 -97t-41 -105t-114 -105t-160 -99t-179 -86t-170 -64t-133 -36t-69 -1zM878 1590q-6 8 -19 47t-31 79t-37 66t-35 8q-6 -12 -23 -40t-41 -63t-54 -69t-62 -58t-66 -32t-64 14q-14 8 -27 22t-3 32q12 22 44 48t68 53t67 54t43 49q56 118 102 161 t82 35t62 -54t42 -107t21 -125t-1 -107t-23 -52t-45 39z" />
<glyph unicode="&#x15e;" horiz-adv-x="1536" d="M228 28q-12 4 -58 27t-87 53t-57 62t32 56q28 -26 76 -61t94 -53q136 -6 267 -1t254 32t240 81t225 142q124 102 162 188t14 160t-98 138t-174 120t-215 105t-221 96t-190 92t-124 91q-10 42 42 99t144 119t213 122t247 111t245 85t208 43t138 -13t33 -84q-18 -4 -91 -23 t-176 -50t-225 -71t-239 -84t-216 -89t-158 -86t-64 -77t67 -60q292 -88 483 -185t297 -198t138 -202t6 -195t-100 -179t-178 -154t-229 -118t-253 -72t-251 -16t-221 49zM544 -394q-8 24 6 36t42 20t63 13t68 12t60 18t39 31q16 30 5 45t-35 22t-56 10t-60 10t-45 23 t-13 50q-10 56 -7 103t14 66t30 0t41 -93q10 -32 38 -49t63 -28t71 -19t62 -20t37 -33t-5 -59q-4 -20 -47 -62t-103 -79t-126 -55t-114 10q-6 2 -16 13t-12 15z" />
<glyph unicode="&#x15f;" horiz-adv-x="990" d="M72 28q-30 20 -1 53t93 73t148 82t163 79t140 66t77 43q66 56 81 97t-6 69t-72 46t-115 31t-136 23t-135 22t-109 28t-62 42t6 62t98 88q36 26 104 73t147 97t156 90t129 52q26 6 55 -5t47 -29t16 -40t-34 -40q-140 -78 -272 -149t-264 -161q-10 -20 2 -35t26 -23 q214 -22 341 -59t185 -82t58 -97t-41 -105t-114 -105t-160 -99t-179 -86t-170 -64t-133 -36t-69 -1zM270 -326q-8 24 6 36t42 20t63 13t68 12t60 18t39 31q16 30 5 45t-35 22t-56 10t-60 10t-45 23t-13 50q-10 56 -7 103t14 66t30 0t41 -93q10 -32 38 -49t63 -28t71 -19 t62 -20t37 -33t-5 -59q-4 -20 -47 -62t-103 -79t-126 -55t-114 10q-6 2 -16 13t-12 15z" />
<glyph unicode="&#x160;" horiz-adv-x="1536" d="M228 28q-12 4 -58 27t-87 53t-57 62t32 56q28 -26 76 -61t94 -53q136 -6 267 -1t254 32t240 81t225 142q124 102 162 188t14 160t-98 138t-174 120t-215 105t-221 96t-190 92t-124 91q-10 42 42 99t144 119t213 122t247 111t245 85t208 43t138 -13t33 -84q-18 -4 -91 -23 t-176 -50t-225 -71t-239 -84t-216 -89t-158 -86t-64 -77t67 -60q292 -88 483 -185t297 -198t138 -202t6 -195t-100 -179t-178 -154t-229 -118t-253 -72t-251 -16t-221 49zM902 2080q32 24 47 4t11 -60t-23 -87t-55 -76t-86 -26t-112 63q-10 8 -33 30t-50 46t-52 45t-35 29 q-8 8 5 13t23 7q38 12 77 -5t72 -45t57 -55t34 -33q14 -6 33 15t37 50t32 55t18 30z" />
<glyph unicode="&#x161;" horiz-adv-x="990" d="M72 28q-30 20 -1 53t93 73t148 82t163 79t140 66t77 43q66 56 81 97t-6 69t-72 46t-115 31t-136 23t-135 22t-109 28t-62 42t6 62t98 88q36 26 104 73t147 97t156 90t129 52q26 6 55 -5t47 -29t16 -40t-34 -40q-140 -78 -272 -149t-264 -161q-10 -20 2 -35t26 -23 q214 -22 341 -59t185 -82t58 -97t-41 -105t-114 -105t-160 -99t-179 -86t-170 -64t-133 -36t-69 -1zM626 1488q32 24 47 4t11 -60t-23 -87t-55 -76t-86 -26t-112 63q-10 8 -33 30t-50 46t-52 45t-35 29q-8 8 5 13t23 7q38 12 77 -5t72 -45t57 -55t34 -33q14 -6 33 15t37 50 t32 55t18 30z" />
<glyph unicode="&#x164;" horiz-adv-x="1394" d="M438 28q-16 62 1 143t47 164t65 159t57 126q12 28 39 86t60 131t69 153t70 152t60 129t40 85q-42 8 -121 -8t-174 -39t-196 -48t-186 -37t-147 -4t-78 52q16 34 127 76t282 88t383 93t432 90t429 78t374 58t267 31t106 -6q8 -22 4 -49t-32 -35q-124 -20 -266 -44 t-288 -50t-287 -53t-261 -51q-76 -16 -149 -91t-141 -186t-130 -248t-117 -276t-103 -269t-88 -229t-70 -154t-50 -45q-6 4 -16 14t-12 14zM830 1918q32 24 47 4t11 -60t-23 -87t-55 -76t-86 -26t-112 63q-10 8 -33 30t-50 46t-52 45t-35 29q-8 8 5 13t23 7q38 12 77 -5 t72 -45t57 -55t34 -33q14 -6 33 15t37 50t32 55t18 30z" />
<glyph unicode="&#x169;" horiz-adv-x="1440" d="M1076 28q-70 26 -110 72t-62 103t-33 121t-23 128q-18 12 -55 -12t-87 -65t-110 -94t-123 -100t-125 -82t-118 -40t-100 25t-72 114q-14 38 8 108t65 156t98 177t110 170t101 135t70 74q58 -28 52 -84t-46 -128t-101 -155t-114 -165t-86 -157t-17 -131q40 -16 97 6 t123 71t139 118t144 146t139 154t125 144t100 115t65 66q52 -26 52 -82t-28 -129t-70 -157t-72 -166t-35 -157t41 -129l84 -100h254q18 0 7 -15t-30 -33t-39 -34t-22 -16q-32 -6 -56 -6t-47 4t-45 11t-48 19zM730 974q-54 10 -88 39t-55 67t-33 77t-26 66t-31 37t-48 -11 t-79 -79t-122 -166q-50 -30 -67 -14t-9 57t37 99t72 113t96 96t109 51t112 -22t104 -126q24 -106 65 -147t94 -38t117 40t131 85t136 96t135 76q14 -24 -15 -70t-85 -100t-131 -107t-152 -89t-148 -48t-119 18z" />
<glyph unicode="&#x16c;" d="M228 28q-92 72 -124 188t-22 255t52 293t101 303t125 284t123 237t96 162t43 58q20 -10 28 -27t9 -36t-2 -40t-5 -37q0 -4 -5 -12t-10 -18t-10 -18t-5 -10q-194 -426 -292 -715t-120 -462t21 -242t132 -55t213 98t262 217t282 302t272 354t230 373t158 358q4 4 14 15 t14 11q56 -38 55 -119t-45 -192t-126 -243t-187 -272t-228 -280t-249 -265t-249 -227t-230 -168t-190 -87t-131 17zM1304 2138q58 -36 61 -83t-30 -88t-91 -65t-121 -16t-120 59t-87 161q-4 4 2 11t17 14t21 13t16 6q26 -38 67 -84t88 -66t94 6t83 132z" />
<glyph unicode="&#x16d;" horiz-adv-x="1440" d="M1076 28q-70 26 -110 72t-62 103t-33 121t-23 128q-18 12 -55 -12t-87 -65t-110 -94t-123 -100t-125 -82t-118 -40t-100 25t-72 114q-14 38 8 108t65 156t98 177t110 170t101 135t70 74q58 -28 52 -84t-46 -128t-101 -155t-114 -165t-86 -157t-17 -131q40 -16 97 6 t123 71t139 118t144 146t139 154t125 144t100 115t65 66q52 -26 52 -82t-28 -129t-70 -157t-72 -166t-35 -157t41 -129l84 -100h254q18 0 7 -15t-30 -33t-39 -34t-22 -16q-32 -6 -56 -6t-47 4t-45 11t-48 19zM800 1488q58 -36 61 -83t-30 -88t-91 -65t-121 -16t-120 59 t-87 161q-4 4 2 11t17 14t21 13t16 6q26 -38 67 -84t88 -66t94 6t83 132z" />
<glyph unicode="&#x16e;" d="M228 28q-92 72 -124 188t-22 255t52 293t101 303t125 284t123 237t96 162t43 58q20 -10 28 -27t9 -36t-2 -40t-5 -37q0 -4 -5 -12t-10 -18t-10 -18t-5 -10q-194 -426 -292 -715t-120 -462t21 -242t132 -55t213 98t262 217t282 302t272 354t230 373t158 358q4 4 14 15 t14 11q56 -38 55 -119t-45 -192t-126 -243t-187 -272t-228 -280t-249 -265t-249 -227t-230 -168t-190 -87t-131 17zM1092 1752q-62 24 -78 66t1 91t58 99t90 92t100 70t89 32q124 16 178 -21t55 -98t-43 -133t-114 -127t-159 -80t-177 9zM1128 1902q12 -66 62 -72t110 22 t113 77t71 91t-15 65t-145 -1q-32 -28 -63 -47t-58 -38t-47 -41t-28 -56z" />
<glyph unicode="&#x16f;" horiz-adv-x="1440" d="M1076 28q-70 26 -110 72t-62 103t-33 121t-23 128q-18 12 -55 -12t-87 -65t-110 -94t-123 -100t-125 -82t-118 -40t-100 25t-72 114q-14 38 8 108t65 156t98 177t110 170t101 135t70 74q58 -28 52 -84t-46 -128t-101 -155t-114 -165t-86 -157t-17 -131q40 -16 97 6 t123 71t139 118t144 146t139 154t125 144t100 115t65 66q52 -26 52 -82t-28 -129t-70 -157t-72 -166t-35 -157t41 -129l84 -100h254q18 0 7 -15t-30 -33t-39 -34t-22 -16q-32 -6 -56 -6t-47 4t-45 11t-48 19zM708 1078q-62 24 -78 66t1 91t58 99t90 92t100 70t89 32 q124 16 178 -21t55 -98t-43 -133t-114 -127t-159 -80t-177 9zM744 1228q12 -66 62 -72t110 22t113 77t71 91t-15 65t-145 -1q-32 -28 -63 -47t-58 -38t-47 -41t-28 -56z" />
<glyph unicode="&#x170;" d="M228 28q-92 72 -124 188t-22 255t52 293t101 303t125 284t123 237t96 162t43 58q20 -10 28 -27t9 -36t-2 -40t-5 -37q0 -4 -5 -12t-10 -18t-10 -18t-5 -10q-194 -426 -292 -715t-120 -462t21 -242t132 -55t213 98t262 217t282 302t272 354t230 373t158 358q4 4 14 15 t14 11q56 -38 55 -119t-45 -192t-126 -243t-187 -272t-228 -280t-249 -265t-249 -227t-230 -168t-190 -87t-131 17zM1066 1908q-84 -60 -118 -62t-33 29t32 85t80 105t109 87t120 32q10 -50 7 -78t-15 -46t-33 -29t-45 -25t-51 -36t-53 -62zM1452 1874q-84 -60 -119 -62 t-34 30t32 85t80 104t109 87t120 32q16 -72 3 -102t-43 -49t-70 -42t-78 -83z" />
<glyph unicode="&#x171;" horiz-adv-x="1440" d="M1076 28q-70 26 -110 72t-62 103t-33 121t-23 128q-18 12 -55 -12t-87 -65t-110 -94t-123 -100t-125 -82t-118 -40t-100 25t-72 114q-14 38 8 108t65 156t98 177t110 170t101 135t70 74q58 -28 52 -84t-46 -128t-101 -155t-114 -165t-86 -157t-17 -131q40 -16 97 6 t123 71t139 118t144 146t139 154t125 144t100 115t65 66q52 -26 52 -82t-28 -129t-70 -157t-72 -166t-35 -157t41 -129l84 -100h254q18 0 7 -15t-30 -33t-39 -34t-22 -16q-32 -6 -56 -6t-47 4t-45 11t-48 19zM678 1308q-84 -60 -118 -62t-33 29t32 85t80 105t109 87t120 32 q10 -50 7 -78t-15 -46t-33 -29t-45 -25t-51 -36t-53 -62zM1064 1274q-84 -60 -119 -62t-34 30t32 85t80 104t109 87t120 32q16 -72 3 -102t-43 -49t-70 -42t-78 -83z" />
<glyph unicode="&#x174;" horiz-adv-x="1754" d="M114 28q-32 48 -49 157t-21 255t4 315t24 337t39 323t50 271t58 181t63 55q6 -4 17 -14t13 -16q2 -28 -5 -104t-20 -182t-31 -234t-35 -258t-32 -254t-23 -223t-8 -164t12 -77l28 -30q38 16 78 90t82 181t85 234t86 251t86 234t85 180t82 89t77 -38t70 -200t61 -397 q2 -10 8 -50t18 -98t27 -126t34 -131t39 -116t42 -80t43 -22t43 57q8 20 34 86t61 153t74 185t74 185t61 152t36 87q10 24 33 89t57 147t76 170t90 156t99 106t103 20q4 0 15 -11t11 -17q-154 -198 -255 -399t-178 -409t-146 -424t-159 -446q-38 -98 -79 -112t-81 29 t-79 131t-74 197t-65 225t-52 214t-36 166t-16 82q-4 18 -9 47t-9 57q-6 32 -10 66h-28q-2 0 -15 -24t-33 -63t-44 -88t-49 -99t-47 -97t-38 -81q-8 -20 -26 -77t-42 -136t-54 -171t-63 -180t-68 -164t-69 -124t-67 -58t-63 34zM1150 1878q-6 8 -19 47t-31 79t-37 66t-35 8 q-6 -12 -23 -40t-41 -63t-54 -69t-62 -58t-66 -32t-64 14q-14 8 -27 22t-3 32q12 22 44 48t68 53t67 54t43 49q56 118 102 161t82 35t62 -54t42 -107t21 -125t-1 -107t-23 -52t-45 39z" />
<glyph unicode="&#x175;" horiz-adv-x="1864" d="M834 28q-48 36 -76 96t-42 128t-18 136t-6 120q-4 4 -14 4t-14 -4q-62 -46 -120 -107t-113 -127t-110 -130t-109 -116q-34 -12 -71 -7t-64 24t-39 51t6 74q48 152 105 323t119 327q22 56 49 61t46 -20t27 -69t-8 -86q-8 -20 -28 -72t-43 -111t-42 -111t-27 -72v-86 q78 70 131 126t99 112t96 119t124 151q56 66 89 73t49 -27t20 -97t1 -137t-7 -147t-3 -127t12 -77t37 3q30 46 87 137t130 199t159 220t176 200t180 139t172 39q4 -12 -28 -56t-83 -105t-113 -132t-119 -137t-103 -118t-62 -76q-8 -10 -31 -45t-55 -81t-68 -98t-68 -99 t-57 -82t-33 -47q-22 -32 -37 -52t-29 -27t-31 -2t-43 25zM1196 1702q-6 8 -19 47t-31 79t-37 66t-35 8q-6 -12 -23 -40t-41 -63t-54 -69t-62 -58t-66 -32t-64 14q-14 8 -27 22t-3 32q12 22 44 48t68 53t67 54t43 49q56 118 102 161t82 35t62 -54t42 -107t21 -125t-1 -107 t-23 -52t-45 39z" />
<glyph unicode="&#x176;" horiz-adv-x="1004" d="M140 -320q-30 74 -8 158t73 175t118 189t127 201t101 212t39 223q-10 24 -44 77t-82 125t-104 153t-107 161t-92 150t-61 118t-13 67t53 -3q36 -32 87 -104t108 -161t116 -183t109 -168t88 -117t54 -31q20 38 52 110l72 162t85 190t90 192t88 170t79 124t62 53t38 -41 q8 -36 -24 -130t-91 -226t-140 -293t-170 -333t-178 -346t-166 -333t-135 -291t-84 -222q-8 -26 -24 -49t-37 -33t-42 1t-37 53zM784 1940q-6 8 -19 47t-31 79t-37 66t-35 8q-6 -12 -23 -40t-41 -63t-54 -69t-62 -58t-66 -32t-64 14q-14 8 -27 22t-3 32q12 22 44 48t68 53 t67 54t43 49q56 118 102 161t82 35t62 -54t42 -107t21 -125t-1 -107t-23 -52t-45 39z" />
<glyph unicode="&#x177;" horiz-adv-x="1102" d="M-424 -960q-24 36 0 108t67 152t90 149t69 99q20 26 62 82t95 125t111 146t111 147t95 125t62 81q20 22 -1 70t-62 112t-92 140t-92 155t-62 156t-1 145q26 20 60 -24t70 -120t75 -167t77 -165t74 -116t68 -18q64 48 127 122t120 154t109 157t96 133q18 22 35 31t51 -3 q22 -8 2 -59t-71 -136t-127 -197t-167 -238t-191 -262t-199 -269t-190 -258t-165 -230t-125 -183t-69 -118q-10 -22 -21 -45t-33 -39q-4 2 -13 10t-18 17t-17 18t-10 13zM736 1590q-6 8 -19 47t-31 79t-37 66t-35 8q-6 -12 -23 -40t-41 -63t-54 -69t-62 -58t-66 -32t-64 14 q-14 8 -27 22t-3 32q12 22 44 48t68 53t67 54t43 49q56 118 102 161t82 35t62 -54t42 -107t21 -125t-1 -107t-23 -52t-45 39z" />
<glyph unicode="&#x178;" horiz-adv-x="1004" d="M140 -320q-30 74 -8 158t73 175t118 189t127 201t101 212t39 223q-10 24 -44 77t-82 125t-104 153t-107 161t-92 150t-61 118t-13 67t53 -3q36 -32 87 -104t108 -161t116 -183t109 -168t88 -117t54 -31q20 38 52 110l72 162t85 190t90 192t88 170t79 124t62 53t38 -41 q8 -36 -24 -130t-91 -226t-140 -293t-170 -333t-178 -346t-166 -333t-135 -291t-84 -222q-8 -26 -24 -49t-37 -33t-42 1t-37 53zM374 1752q-36 54 -19 106t57 82t87 24t73 -70q14 -38 -5 -79t-54 -67t-75 -29t-64 33zM732 1766q-36 52 -19 105t57 82t87 23t73 -70 q14 -38 -5 -79t-54 -67t-75 -29t-64 35z" />
<glyph unicode="&#x179;" horiz-adv-x="2106" d="M72 28q-46 34 1 114t153 191t257 244t312 273t317 279t274 261t181 219t39 155q-4 0 -58 -10t-136 -24t-184 -30t-202 -27t-190 -16t-147 4t-74 33t29 70q56 -6 147 9t200 40t226 52t222 44t189 18t128 -29t40 -96t-78 -180q-130 -204 -286 -363t-325 -301t-346 -282 t-351 -310q-2 -2 -27 -28t-53 -62t-49 -73t-13 -61q28 -8 127 13t241 55t313 76t340 79t324 62t264 25t159 -32t12 -108q-62 -4 -177 -20t-261 -40t-313 -53t-333 -57t-321 -54t-277 -42t-201 -22t-93 4zM1148 1926q-84 -60 -117 -60t-29 35t38 93t86 112t114 93t122 35 q16 -74 -1 -109t-52 -59t-79 -52t-82 -88z" />
<glyph unicode="&#x17a;" horiz-adv-x="1414" d="M100 28q-48 28 -33 77t71 113t146 139t193 154t211 161t201 159t161 146t94 125q-6 32 -51 36t-107 -5t-132 -23t-124 -16t-83 17t-11 75q2 4 54 21t129 34t166 30t167 11t131 -24t58 -75t-52 -141t-201 -222q-10 -10 -43 -40t-74 -66t-79 -70t-58 -50q-16 -14 -61 -48 t-101 -77t-116 -91t-108 -90t-76 -74t-18 -44q106 -10 212 1t211 27t211 27t214 1q12 -8 26 -20t24 -27t12 -32t-6 -35q-64 -4 -161 -21t-208 -37t-228 -38t-224 -26t-196 -1t-141 39zM1032 1516q-84 -60 -117 -60t-29 35t38 93t86 112t114 93t122 35q16 -74 -1 -109 t-52 -59t-79 -52t-82 -88z" />
<glyph unicode="&#x17b;" horiz-adv-x="2106" d="M72 28q-46 34 1 114t153 191t257 244t312 273t317 279t274 261t181 219t39 155q-4 0 -58 -10t-136 -24t-184 -30t-202 -27t-190 -16t-147 4t-74 33t29 70q56 -6 147 9t200 40t226 52t222 44t189 18t128 -29t40 -96t-78 -180q-130 -204 -286 -363t-325 -301t-346 -282 t-351 -310q-2 -2 -27 -28t-53 -62t-49 -73t-13 -61q28 -8 127 13t241 55t313 76t340 79t324 62t264 25t159 -32t12 -108q-62 -4 -177 -20t-261 -40t-313 -53t-333 -57t-321 -54t-277 -42t-201 -22t-93 4zM908 1896q-38 50 -39 93t21 72t59 43t76 8t72 -33t47 -81 q24 -54 5 -97t-60 -62t-92 -8t-89 65z" />
<glyph unicode="&#x17c;" horiz-adv-x="1414" d="M100 28q-48 28 -33 77t71 113t146 139t193 154t211 161t201 159t161 146t94 125q-6 32 -51 36t-107 -5t-132 -23t-124 -16t-83 17t-11 75q2 4 54 21t129 34t166 30t167 11t131 -24t58 -75t-52 -141t-201 -222q-10 -10 -43 -40t-74 -66t-79 -70t-58 -50q-16 -14 -61 -48 t-101 -77t-116 -91t-108 -90t-76 -74t-18 -44q106 -10 212 1t211 27t211 27t214 1q12 -8 26 -20t24 -27t12 -32t-6 -35q-64 -4 -161 -21t-208 -37t-228 -38t-224 -26t-196 -1t-141 39zM810 1444q-38 50 -39 93t21 72t59 43t76 8t72 -33t47 -81q24 -54 5 -97t-60 -62t-92 -8 t-89 65z" />
<glyph unicode="&#x17d;" horiz-adv-x="2106" d="M72 28q-46 34 1 114t153 191t257 244t312 273t317 279t274 261t181 219t39 155q-4 0 -58 -10t-136 -24t-184 -30t-202 -27t-190 -16t-147 4t-74 33t29 70q56 -6 147 9t200 40t226 52t222 44t189 18t128 -29t40 -96t-78 -180q-130 -204 -286 -363t-325 -301t-346 -282 t-351 -310q-2 -2 -27 -28t-53 -62t-49 -73t-13 -61q28 -8 127 13t241 55t313 76t340 79t324 62t264 25t159 -32t12 -108q-62 -4 -177 -20t-261 -40t-313 -53t-333 -57t-321 -54t-277 -42t-201 -22t-93 4zM1178 2150q32 24 47 4t11 -60t-23 -87t-55 -76t-86 -26t-112 63 q-10 8 -33 30t-50 46t-52 45t-35 29q-8 8 5 13t23 7q38 12 77 -5t72 -45t57 -55t34 -33q14 -6 33 15t37 50t32 55t18 30z" />
<glyph unicode="&#x17e;" horiz-adv-x="1414" d="M100 28q-48 28 -33 77t71 113t146 139t193 154t211 161t201 159t161 146t94 125q-6 32 -51 36t-107 -5t-132 -23t-124 -16t-83 17t-11 75q2 4 54 21t129 34t166 30t167 11t131 -24t58 -75t-52 -141t-201 -222q-10 -10 -43 -40t-74 -66t-79 -70t-58 -50q-16 -14 -61 -48 t-101 -77t-116 -91t-108 -90t-76 -74t-18 -44q106 -10 212 1t211 27t211 27t214 1q12 -8 26 -20t24 -27t12 -32t-6 -35q-64 -4 -161 -21t-208 -37t-228 -38t-224 -26t-196 -1t-141 39zM1008 1606q32 24 47 4t11 -60t-23 -87t-55 -76t-86 -26t-112 63q-10 8 -33 30t-50 46 t-52 45t-35 29q-8 8 5 13t23 7q38 12 77 -5t72 -45t57 -55t34 -33q14 -6 33 15t37 50t32 55t18 30z" />
<glyph unicode="&#x192;" horiz-adv-x="1174" d="M-154 -412q-2 2 33 -8t79 -23t80 -24t38 -7l306 1100l-310 -32q-6 0 -12 10t-11 24t-7 28t2 22q8 2 28 10t42 17t42 18t28 13q8 2 42 14t73 25t72 26t39 19q24 16 60 76t84 146t106 192t124 217t139 217t150 194t157 149t161 80t161 -13t158 -128q18 -24 26 -53t2 -59 q-22 -14 -45 -6t-42 25t-33 36t-20 29q-112 18 -207 -7t-175 -80t-147 -133t-124 -165t-105 -179t-90 -172q-16 -30 -41 -77t-47 -92t-38 -78t-16 -35v-28q0 -6 29 -11t75 -10t100 -11t104 -17t89 -27t55 -38l-28 -26q-142 8 -233 2t-154 -41t-111 -105t-106 -190 q-14 -28 -39 -110t-54 -188t-60 -222t-56 -213t-41 -161t-18 -66l-328 42q-4 2 -2 17t6 33t8 34t2 20z" />
<glyph unicode="&#x2c6;" horiz-adv-x="1054" d="M630 1236q-6 8 -19 47t-31 79t-37 66t-35 8q-6 -12 -23 -40t-41 -63t-54 -69t-62 -58t-66 -32t-64 14q-14 8 -27 22t-3 32q12 22 44 48t68 53t67 54t43 49q56 118 102 161t82 35t62 -54t42 -107t21 -125t-1 -107t-23 -52t-45 39z" />
<glyph unicode="&#x2c7;" horiz-adv-x="738" d="M514 1488q32 24 47 4t11 -60t-23 -87t-55 -76t-86 -26t-112 63q-10 8 -33 30t-50 46t-52 45t-35 29q-8 8 5 13t23 7q38 12 77 -5t72 -45t57 -55t34 -33q14 -6 33 15t37 50t32 55t18 30z" />
<glyph unicode="&#x2d8;" horiz-adv-x="738" d="M514 1488q58 -36 61 -83t-30 -88t-91 -65t-121 -16t-120 59t-87 161q-4 4 2 11t17 14t21 13t16 6q26 -38 67 -84t88 -66t94 6t83 132z" />
<glyph unicode="&#x2d9;" horiz-adv-x="742" d="M206 1020q-38 50 -39 93t21 72t59 43t76 8t72 -33t47 -81q24 -54 5 -97t-60 -62t-92 -8t-89 65z" />
<glyph unicode="&#x2da;" horiz-adv-x="1190" d="M382 758q-62 24 -78 66t1 91t58 99t90 92t100 70t89 32q124 16 178 -21t55 -98t-43 -133t-114 -127t-159 -80t-177 9zM418 908q12 -66 62 -72t110 22t113 77t71 91t-15 65t-145 -1q-32 -28 -63 -47t-58 -38t-47 -41t-28 -56z" />
<glyph unicode="&#x2dc;" horiz-adv-x="1706" d="M770 974q-54 10 -88 39t-55 67t-33 77t-26 66t-31 37t-48 -11t-79 -79t-122 -166q-50 -30 -67 -14t-9 57t37 99t72 113t96 96t109 51t112 -22t104 -126q24 -106 65 -147t94 -38t117 40t131 85t136 96t135 76q14 -24 -15 -70t-85 -100t-131 -107t-152 -89t-148 -48 t-119 18z" />
<glyph unicode="&#x2dd;" horiz-adv-x="978" d="M212 1076q-84 -60 -118 -62t-33 29t32 85t80 105t109 87t120 32q10 -50 7 -78t-15 -46t-33 -29t-45 -25t-51 -36t-53 -62zM598 1042q-84 -60 -119 -62t-34 30t32 85t80 104t109 87t120 32q16 -72 3 -102t-43 -49t-70 -42t-78 -83z" />
<glyph unicode="&#x1e02;" horiz-adv-x="1794" d="M184 8q-74 42 -104 82t-30 85t23 100t53 127q6 14 28 61t52 109t62 132t62 132t51 108t29 62q32 72 28 125t-12 99t-6 92t46 104q6 8 31 35t54 58t54 58t31 33q14 16 72 50t143 76t188 85t206 76t198 52t162 11t98 -48t9 -122q-26 -90 -72 -165t-104 -138t-121 -117 t-120 -99t-105 -85t-74 -76q240 -8 375 -50t187 -109t31 -152t-93 -176t-186 -184t-249 -175t-280 -147t-280 -103t-250 -42t-187 36zM382 612q-48 -56 -88 -125t-61 -136t-19 -125t37 -95t107 -44t192 27q266 60 462 152t324 194t190 202t58 176t-72 117t-198 24t-322 -103 t-442 -264q-28 -22 -50 -21t-42 10t-38 16t-38 -5zM438 822q0 -6 -1 -21t-1 -32t1 -32t1 -21q20 4 83 47t151 110t193 154t211 180t202 187t167 176t107 146t20 98q-110 16 -231 -12t-237 -83t-216 -127t-168 -140q-10 -22 -29 -67t-44 -102t-53 -120t-53 -120t-45 -102 t-30 -67q-2 -4 -14 -26t-14 -26zM942 2010q-38 50 -39 93t21 72t59 43t76 8t72 -33t47 -81q24 -54 5 -97t-60 -62t-92 -8t-89 65z" />
<glyph unicode="&#x1e03;" horiz-adv-x="1370" d="M44 84q-4 4 -4 14t4 14q32 64 73 170t85 233t91 263t93 262t91 231t85 169t73 76t57 -48q24 -58 13 -119t-39 -125t-67 -129t-72 -131t-52 -131t-9 -127q72 18 127 67t109 105t111 103t133 63q116 24 196 -10t120 -104t37 -168t-51 -202t-143 -205t-241 -177t-343 -119 t-449 -31q-4 6 -15 28t-13 28zM268 226q-2 -6 -3 -18t-1 -25t1 -25t3 -16q112 -16 225 2t218 63t195 114t153 159t95 197t20 227q-2 6 -14 16t-16 12q-82 12 -172 -15t-180 -81t-173 -129t-153 -157t-122 -166t-76 -158zM972 1332q-38 50 -39 93t21 72t59 43t76 8t72 -33 t47 -81q24 -54 5 -97t-60 -62t-92 -8t-89 65z" />
<glyph unicode="&#x1e0a;" horiz-adv-x="2058" d="M58 28q-14 38 4 67t52 47q156 78 304 131t292 107t287 121t289 171q262 152 425 288t245 253t93 214t-32 172t-129 125t-199 74t-243 19t-259 -40t-247 -103t-208 -172q-2 -4 -7 -17t-9 -27t-8 -27t-4 -15q-50 -120 -95 -216t-88 -180t-82 -162t-75 -163t-70 -185 t-66 -228q-44 -14 -64 3t-22 53t9 84t26 93t30 82t21 53q20 56 63 149t90 192t89 191t64 150q-22 72 -8 129t50 103t85 85t99 77q142 104 307 162t337 64t341 -44t319 -164q120 -100 141 -217t-33 -241t-171 -252t-272 -251t-336 -236t-362 -209t-352 -169t-305 -116 t-219 -52t-97 27zM1250 2082q-38 50 -39 93t21 72t59 43t76 8t72 -33t47 -81q24 -54 5 -97t-60 -62t-92 -8t-89 65z" />
<glyph unicode="&#x1e0b;" horiz-adv-x="1360" d="M1074 58q-46 32 -79 73t-56 88t-38 99t-25 106h-28q-202 -166 -352 -248t-252 -100t-159 16t-74 101t5 157t78 181t143 173t202 136t253 68t298 -32l28 28l338 678q66 -10 79 -59t-1 -109t-40 -117t-38 -83q-6 -14 -28 -57t-51 -101t-62 -123t-62 -124t-51 -102t-28 -57 q-22 -46 -30 -95t-9 -100t3 -102t8 -99q10 -46 39 -74t63 -51l68 -46t56 -55q-10 -32 -40 -33t-63 11t-61 29t-34 23zM142 170q8 -32 48 -29t99 31t132 77t145 106t140 119t116 119t73 101t11 68q-78 42 -173 42t-189 -33t-180 -95t-145 -142t-83 -173t6 -191zM576 1236 q-38 50 -39 93t21 72t59 43t76 8t72 -33t47 -81q24 -54 5 -97t-60 -62t-92 -8t-89 65z" />
<glyph unicode="&#x1e1e;" horiz-adv-x="1860" d="M44 28q-12 34 -6 71t21 74t34 72t33 67q12 24 40 88t60 136t60 136t40 90q14 32 -4 55t-40 45t-33 45t19 53q18 18 46 23t57 9t55 14t40 38l284 542q-18 68 -12 112t30 77t64 61t88 62q128 20 254 38t252 30t254 16t258 -2q14 -2 37 -21t38 -43t14 -46t-35 -30 q-4 0 -16 4t-26 9t-27 10t-15 5q-200 0 -347 -5t-256 -21t-187 -48t-140 -89t-116 -142t-112 -207l-17 -30t-35 -71t-30 -84t-4 -69q94 -16 189 -7t191 32t193 53t194 54t195 37t196 1v-58q0 -4 -54 -14t-143 -27t-205 -41t-241 -55t-249 -69t-229 -84t-182 -101t-109 -117 q-82 -162 -153 -334t-131 -344q-16 -22 -43 -28t-39 28zM1294 2072q-38 50 -39 93t21 72t59 43t76 8t72 -33t47 -81q24 -54 5 -97t-60 -62t-92 -8t-89 65z" />
<glyph unicode="&#x1e1f;" horiz-adv-x="1174" d="M100 58q-4 6 -4 27t4 27l210 482h-238q-6 0 -12 10t-11 24t-7 28t2 22q8 2 28 10t42 17t42 18t28 13q8 2 42 14t73 25t72 26t39 19q28 20 70 99t94 189t115 236t135 242t152 207t167 130t179 12t190 -147q18 -24 26 -53t2 -59q-22 -14 -45 -6t-42 25t-33 36t-20 29 q-112 18 -192 5t-138 -50t-99 -94t-76 -126t-69 -149t-76 -160q-16 -30 -41 -77t-47 -92t-38 -78t-16 -35v-28q0 -6 29 -11t75 -10t100 -11t104 -17t89 -27t55 -38l-28 -26q-142 8 -240 6t-170 -33t-127 -98t-113 -187q-20 -42 -53 -108t-64 -129t-55 -110t-26 -49l-28 -28 q-4 2 -13 10t-18 17t-16 18t-9 13zM1272 2060q-38 50 -39 93t21 72t59 43t76 8t72 -33t47 -81q24 -54 5 -97t-60 -62t-92 -8t-89 65z" />
<glyph unicode="&#x1e40;" horiz-adv-x="2534" d="M1890 -168q-2 2 -2 14t2 16l10 30t17 53t18 54t11 31q48 154 88 286t76 253t68 236t65 237t67 256t74 292q2 8 2 29t-2 27q-74 24 -157 -6t-170 -97t-177 -162t-175 -198t-165 -205t-147 -185t-121 -137t-88 -62q-10 -2 -25 0t-29 7t-23 11t-9 12v170q6 28 20 88t30 135 t35 158t35 158t30 134t20 89q12 58 24 112t4 114q-60 20 -127 -18t-137 -118t-142 -193t-143 -244t-140 -271t-132 -274t-120 -252t-104 -206t-83 -136t-58 -40q-34 12 -25 83t48 182t102 252t137 292t152 300t147 277t122 225t79 141q52 -18 92 -12t75 26t69 48t76 52 q90 54 142 47t76 -56t25 -130t-12 -175t-34 -193t-41 -182t-33 -142t-11 -75q20 -10 33 3t23 25q8 12 37 47t66 81t80 99t81 99t66 81t38 47q218 172 368 255t244 93t137 -44t46 -156t-29 -242t-88 -302q-8 -22 -30 -94t-51 -168t-61 -204t-61 -204t-51 -168t-28 -94 q0 -2 -6 -32t-16 -71t-27 -88t-39 -84t-50 -57t-62 -8q-4 2 -14 12t-12 16zM1690 2040q-38 50 -39 93t21 72t59 43t76 8t72 -33t47 -81q24 -54 5 -97t-60 -62t-92 -8t-89 65z" />
<glyph unicode="&#x1e41;" horiz-adv-x="2062" d="M1554 58q-26 34 -30 74t4 81t24 81t32 72q12 26 43 91t67 137t68 137t46 89v56q-20 10 -69 -15t-117 -74t-150 -115t-165 -138t-164 -145t-147 -135t-113 -107t-63 -63q-54 -18 -70 24t-9 116t29 165t46 172t43 138t17 63q-50 16 -105 -14t-112 -89t-116 -137t-115 -157 t-110 -150t-101 -115t-88 -53t-71 37q-2 4 -2 14t2 14q12 26 38 80t59 121t70 140t71 140t61 119t41 78q12 26 35 65t45 75t39 62t19 26h58q20 -58 -3 -108t-54 -97t-53 -94t-2 -99q162 144 266 228t165 122t85 34t25 -39t-13 -95t-29 -133t-24 -154t3 -159h30q14 10 50 38 t77 60t77 60t50 38q28 22 81 63t107 81t98 73t54 39q10 8 44 31t75 50t79 52t56 35q38 24 70 22t53 -23t26 -58t-9 -81q-60 -114 -120 -221t-108 -216t-79 -224t-33 -243q-12 -8 -26 0t-27 20t-17 18zM1144 1280q-38 50 -39 93t21 72t59 43t76 8t72 -33t47 -81q24 -54 5 -97 t-60 -62t-92 -8t-89 65z" />
<glyph unicode="&#x1e56;" d="M58 58q-22 42 -3 111t52 144t71 145t56 114q8 14 11 25t7 23t10 28t18 42q16 32 49 101t75 155t88 181t88 182t75 155t49 102v56q-44 8 -86 -4t-81 -35t-75 -52t-68 -51q-34 8 -39 32t5 52t29 52t33 34q262 162 559 217t601 9q184 -94 252 -198t49 -211t-110 -212 t-225 -201t-295 -178t-320 -143t-301 -94t-238 -33q-48 -76 -77 -125t-47 -85t-29 -67t-23 -70t-29 -94t-47 -137l-28 -28q-10 4 -31 26t-25 32zM480 748q106 -18 224 6t234 69t223 101t193 104q210 118 314 229t127 207t-21 171t-130 121t-200 58t-230 -18t-222 -107 t-174 -209q-26 -50 -61 -118t-72 -143t-74 -149t-66 -133t-47 -96t-18 -39v-54zM1024 2044q-38 50 -39 93t21 72t59 43t76 8t72 -33t47 -81q24 -54 5 -97t-60 -62t-92 -8t-89 65z" />
<glyph unicode="&#x1e57;" horiz-adv-x="1356" d="M-226 -874q-16 94 -3 189t43 190t70 190t80 189t73 187t49 185q0 4 21 29t47 54t48 54t24 31q42 88 82 162t63 143t20 139t-51 150q-4 4 -4 14t4 14q74 92 169 155t202 100t221 50t228 5q96 -80 122 -182t2 -211t-88 -218t-146 -205t-174 -170t-170 -114 q-72 -36 -107 -47t-66 -14t-78 -5t-143 -20q-42 -8 -70 -39t-47 -70t-31 -79t-22 -66q-44 -110 -81 -204t-70 -186t-65 -189t-68 -211q-6 -12 -18 -21t-26 -11t-26 5t-14 27zM340 282q116 -22 224 13t203 109t171 178t129 218t78 230t15 214q-34 30 -83 31t-87 -3 q-136 -18 -213 -69t-126 -129t-84 -179t-85 -217q-10 -18 -30 -62t-43 -93t-42 -93t-27 -62v-86zM712 1538q-38 50 -39 93t21 72t59 43t76 8t72 -33t47 -81q24 -54 5 -97t-60 -62t-92 -8t-89 65z" />
<glyph unicode="&#x1e60;" horiz-adv-x="1536" d="M228 28q-12 4 -58 27t-87 53t-57 62t32 56q28 -26 76 -61t94 -53q136 -6 267 -1t254 32t240 81t225 142q124 102 162 188t14 160t-98 138t-174 120t-215 105t-221 96t-190 92t-124 91q-10 42 42 99t144 119t213 122t247 111t245 85t208 43t138 -13t33 -84q-18 -4 -91 -23 t-176 -50t-225 -71t-239 -84t-216 -89t-158 -86t-64 -77t67 -60q292 -88 483 -185t297 -198t138 -202t6 -195t-100 -179t-178 -154t-229 -118t-253 -72t-251 -16t-221 49zM802 1942q-38 50 -39 93t21 72t59 43t76 8t72 -33t47 -81q24 -54 5 -97t-60 -62t-92 -8t-89 65z" />
<glyph unicode="&#x1e61;" horiz-adv-x="990" d="M72 28q-30 20 -1 53t93 73t148 82t163 79t140 66t77 43q66 56 81 97t-6 69t-72 46t-115 31t-136 23t-135 22t-109 28t-62 42t6 62t98 88q36 26 104 73t147 97t156 90t129 52q26 6 55 -5t47 -29t16 -40t-34 -40q-140 -78 -272 -149t-264 -161q-10 -20 2 -35t26 -23 q214 -22 341 -59t185 -82t58 -97t-41 -105t-114 -105t-160 -99t-179 -86t-170 -64t-133 -36t-69 -1zM436 1304q-38 50 -39 93t21 72t59 43t76 8t72 -33t47 -81q24 -54 5 -97t-60 -62t-92 -8t-89 65z" />
<glyph unicode="&#x1e6a;" horiz-adv-x="1394" d="M438 28q-16 62 1 143t47 164t65 159t57 126q12 28 39 86t60 131t69 153t70 152t60 129t40 85q-42 8 -121 -8t-174 -39t-196 -48t-186 -37t-147 -4t-78 52q16 34 127 76t282 88t383 93t432 90t429 78t374 58t267 31t106 -6q8 -22 4 -49t-32 -35q-124 -20 -266 -44 t-288 -50t-287 -53t-261 -51q-76 -16 -149 -91t-141 -186t-130 -248t-117 -276t-103 -269t-88 -229t-70 -154t-50 -45q-6 4 -16 14t-12 14zM950 1828q-38 50 -39 93t21 72t59 43t76 8t72 -33t47 -81q24 -54 5 -97t-60 -62t-92 -8t-89 65z" />
<glyph unicode="&#x1e6b;" horiz-adv-x="1074" d="M228 28q-4 6 -4 28t4 28q8 28 27 97t42 145t43 144t28 96q10 34 23 81t5 89q-38 4 -92 -10t-109 -22t-101 0t-66 58q18 42 53 63t77 31t89 14t91 12t82 25t62 53q24 64 54 158t66 196t77 203t85 179q28 18 45 2t27 -45t12 -59t0 -40q-16 -66 -52 -139t-68 -149t-50 -150 t0 -142h536q4 0 14 -16t16 -26q14 -34 -26 -46t-108 -16t-153 -6t-165 -12t-142 -36t-84 -80q-66 -170 -121 -339t-105 -339q-6 -10 -21 -26t-32 -27t-34 -8t-25 31zM684 1908q-38 50 -39 93t21 72t59 43t76 8t72 -33t47 -81q24 -54 5 -97t-60 -62t-92 -8t-89 65z" />
<glyph unicode="&#x1e80;" horiz-adv-x="1754" d="M114 28q-32 48 -49 157t-21 255t4 315t24 337t39 323t50 271t58 181t63 55q6 -4 17 -14t13 -16q2 -28 -5 -104t-20 -182t-31 -234t-35 -258t-32 -254t-23 -223t-8 -164t12 -77l28 -30q38 16 78 90t82 181t85 234t86 251t86 234t85 180t82 89t77 -38t70 -200t61 -397 q2 -10 8 -50t18 -98t27 -126t34 -131t39 -116t42 -80t43 -22t43 57q8 20 34 86t61 153t74 185t74 185t61 152t36 87q10 24 33 89t57 147t76 170t90 156t99 106t103 20q4 0 15 -11t11 -17q-154 -198 -255 -399t-178 -409t-146 -424t-159 -446q-38 -98 -79 -112t-81 29 t-79 131t-74 197t-65 225t-52 214t-36 166t-16 82q-4 18 -9 47t-9 57q-6 32 -10 66h-28q-2 0 -15 -24t-33 -63t-44 -88t-49 -99t-47 -97t-38 -81q-8 -20 -26 -77t-42 -136t-54 -171t-63 -180t-68 -164t-69 -124t-67 -58t-63 34zM1100 1944q-34 60 -72 84t-67 45t-43 54 t0 107q54 4 110 -33t102 -90t75 -108t31 -89t-29 -33t-107 63z" />
<glyph unicode="&#x1e81;" horiz-adv-x="1864" d="M834 28q-48 36 -76 96t-42 128t-18 136t-6 120q-4 4 -14 4t-14 -4q-62 -46 -120 -107t-113 -127t-110 -130t-109 -116q-34 -12 -71 -7t-64 24t-39 51t6 74q48 152 105 323t119 327q22 56 49 61t46 -20t27 -69t-8 -86q-8 -20 -28 -72t-43 -111t-42 -111t-27 -72v-86 q78 70 131 126t99 112t96 119t124 151q56 66 89 73t49 -27t20 -97t1 -137t-7 -147t-3 -127t12 -77t37 3q30 46 87 137t130 199t159 220t176 200t180 139t172 39q4 -12 -28 -56t-83 -105t-113 -132t-119 -137t-103 -118t-62 -76q-8 -10 -31 -45t-55 -81t-68 -98t-68 -99 t-57 -82t-33 -47q-22 -32 -37 -52t-29 -27t-31 -2t-43 25zM932 1070q-34 60 -72 84t-67 45t-43 54t0 107q54 4 110 -33t102 -90t75 -108t31 -89t-29 -33t-107 63z" />
<glyph unicode="&#x1e82;" horiz-adv-x="1754" d="M114 28q-32 48 -49 157t-21 255t4 315t24 337t39 323t50 271t58 181t63 55q6 -4 17 -14t13 -16q2 -28 -5 -104t-20 -182t-31 -234t-35 -258t-32 -254t-23 -223t-8 -164t12 -77l28 -30q38 16 78 90t82 181t85 234t86 251t86 234t85 180t82 89t77 -38t70 -200t61 -397 q2 -10 8 -50t18 -98t27 -126t34 -131t39 -116t42 -80t43 -22t43 57q8 20 34 86t61 153t74 185t74 185t61 152t36 87q10 24 33 89t57 147t76 170t90 156t99 106t103 20q4 0 15 -11t11 -17q-154 -198 -255 -399t-178 -409t-146 -424t-159 -446q-38 -98 -79 -112t-81 29 t-79 131t-74 197t-65 225t-52 214t-36 166t-16 82q-4 18 -9 47t-9 57q-6 32 -10 66h-28q-2 0 -15 -24t-33 -63t-44 -88t-49 -99t-47 -97t-38 -81q-8 -20 -26 -77t-42 -136t-54 -171t-63 -180t-68 -164t-69 -124t-67 -58t-63 34zM890 1978q-84 -60 -117 -60t-29 35t38 93 t86 112t114 93t122 35q16 -74 -1 -109t-52 -59t-79 -52t-82 -88z" />
<glyph unicode="&#x1e83;" horiz-adv-x="1864" d="M834 28q-48 36 -76 96t-42 128t-18 136t-6 120q-4 4 -14 4t-14 -4q-62 -46 -120 -107t-113 -127t-110 -130t-109 -116q-34 -12 -71 -7t-64 24t-39 51t6 74q48 152 105 323t119 327q22 56 49 61t46 -20t27 -69t-8 -86q-8 -20 -28 -72t-43 -111t-42 -111t-27 -72v-86 q78 70 131 126t99 112t96 119t124 151q56 66 89 73t49 -27t20 -97t1 -137t-7 -147t-3 -127t12 -77t37 3q30 46 87 137t130 199t159 220t176 200t180 139t172 39q4 -12 -28 -56t-83 -105t-113 -132t-119 -137t-103 -118t-62 -76q-8 -10 -31 -45t-55 -81t-68 -98t-68 -99 t-57 -82t-33 -47q-22 -32 -37 -52t-29 -27t-31 -2t-43 25zM928 1076q-84 -60 -117 -60t-29 35t38 93t86 112t114 93t122 35q16 -74 -1 -109t-52 -59t-79 -52t-82 -88z" />
<glyph unicode="&#x1e84;" horiz-adv-x="1754" d="M114 28q-32 48 -49 157t-21 255t4 315t24 337t39 323t50 271t58 181t63 55q6 -4 17 -14t13 -16q2 -28 -5 -104t-20 -182t-31 -234t-35 -258t-32 -254t-23 -223t-8 -164t12 -77l28 -30q38 16 78 90t82 181t85 234t86 251t86 234t85 180t82 89t77 -38t70 -200t61 -397 q2 -10 8 -50t18 -98t27 -126t34 -131t39 -116t42 -80t43 -22t43 57q8 20 34 86t61 153t74 185t74 185t61 152t36 87q10 24 33 89t57 147t76 170t90 156t99 106t103 20q4 0 15 -11t11 -17q-154 -198 -255 -399t-178 -409t-146 -424t-159 -446q-38 -98 -79 -112t-81 29 t-79 131t-74 197t-65 225t-52 214t-36 166t-16 82q-4 18 -9 47t-9 57q-6 32 -10 66h-28q-2 0 -15 -24t-33 -63t-44 -88t-49 -99t-47 -97t-38 -81q-8 -20 -26 -77t-42 -136t-54 -171t-63 -180t-68 -164t-69 -124t-67 -58t-63 34zM748 1966q-36 54 -19 106t57 82t87 24t73 -70 q14 -38 -5 -79t-54 -67t-75 -29t-64 33zM1106 1980q-36 52 -19 105t57 82t87 23t73 -70q14 -38 -5 -79t-54 -67t-75 -29t-64 35z" />
<glyph unicode="&#x1e85;" horiz-adv-x="1864" d="M834 28q-48 36 -76 96t-42 128t-18 136t-6 120q-4 4 -14 4t-14 -4q-62 -46 -120 -107t-113 -127t-110 -130t-109 -116q-34 -12 -71 -7t-64 24t-39 51t6 74q48 152 105 323t119 327q22 56 49 61t46 -20t27 -69t-8 -86q-8 -20 -28 -72t-43 -111t-42 -111t-27 -72v-86 q78 70 131 126t99 112t96 119t124 151q56 66 89 73t49 -27t20 -97t1 -137t-7 -147t-3 -127t12 -77t37 3q30 46 87 137t130 199t159 220t176 200t180 139t172 39q4 -12 -28 -56t-83 -105t-113 -132t-119 -137t-103 -118t-62 -76q-8 -10 -31 -45t-55 -81t-68 -98t-68 -99 t-57 -82t-33 -47q-22 -32 -37 -52t-29 -27t-31 -2t-43 25zM682 1064q-36 54 -19 106t57 82t87 24t73 -70q14 -38 -5 -79t-54 -67t-75 -29t-64 33zM1040 1078q-36 52 -19 105t57 82t87 23t73 -70q14 -38 -5 -79t-54 -67t-75 -29t-64 35z" />
<glyph unicode="&#x1ef2;" horiz-adv-x="1004" d="M140 -320q-30 74 -8 158t73 175t118 189t127 201t101 212t39 223q-10 24 -44 77t-82 125t-104 153t-107 161t-92 150t-61 118t-13 67t53 -3q36 -32 87 -104t108 -161t116 -183t109 -168t88 -117t54 -31q20 38 52 110l72 162t85 190t90 192t88 170t79 124t62 53t38 -41 q8 -36 -24 -130t-91 -226t-140 -293t-170 -333t-178 -346t-166 -333t-135 -291t-84 -222q-8 -26 -24 -49t-37 -33t-42 1t-37 53zM666 1988q-34 60 -72 84t-67 45t-43 54t0 107q54 4 110 -33t102 -90t75 -108t31 -89t-29 -33t-107 63z" />
<glyph unicode="&#x1ef3;" horiz-adv-x="1102" d="M-424 -960q-24 36 0 108t67 152t90 149t69 99q20 26 62 82t95 125t111 146t111 147t95 125t62 81q20 22 -1 70t-62 112t-92 140t-92 155t-62 156t-1 145q26 20 60 -24t70 -120t75 -167t77 -165t74 -116t68 -18q64 48 127 122t120 154t109 157t96 133q18 22 35 31t51 -3 q22 -8 2 -59t-71 -136t-127 -197t-167 -238t-191 -262t-199 -269t-190 -258t-165 -230t-125 -183t-69 -118q-10 -22 -21 -45t-33 -39q-4 2 -13 10t-18 17t-17 18t-10 13zM630 1226q-34 60 -72 84t-67 45t-43 54t0 107q54 4 110 -33t102 -90t75 -108t31 -89t-29 -33t-107 63z " />
<glyph unicode="&#x2000;" horiz-adv-x="1199" />
<glyph unicode="&#x2001;" horiz-adv-x="2399" />
<glyph unicode="&#x2002;" horiz-adv-x="1199" />
<glyph unicode="&#x2003;" horiz-adv-x="2399" />
<glyph unicode="&#x2004;" horiz-adv-x="799" />
<glyph unicode="&#x2005;" horiz-adv-x="599" />
<glyph unicode="&#x2006;" horiz-adv-x="399" />
<glyph unicode="&#x2007;" horiz-adv-x="399" />
<glyph unicode="&#x2008;" horiz-adv-x="299" />
<glyph unicode="&#x2009;" horiz-adv-x="479" />
<glyph unicode="&#x200a;" horiz-adv-x="133" />
<glyph unicode="&#x2010;" horiz-adv-x="1244" d="M72 706q-32 32 4 62t115 55t189 43t227 28t229 8t195 -17t125 -45t18 -78q-26 0 -90 -4t-137 -8t-137 -8t-90 -6q-62 -6 -152 -30t-184 -40t-179 -12t-133 52z" />
<glyph unicode="&#x2011;" horiz-adv-x="1244" d="M72 706q-32 32 4 62t115 55t189 43t227 28t229 8t195 -17t125 -45t18 -78q-26 0 -90 -4t-137 -8t-137 -8t-90 -6q-62 -6 -152 -30t-184 -40t-179 -12t-133 52z" />
<glyph unicode="&#x2012;" horiz-adv-x="1244" d="M72 706q-32 32 4 62t115 55t189 43t227 28t229 8t195 -17t125 -45t18 -78q-26 0 -90 -4t-137 -8t-137 -8t-90 -6q-62 -6 -152 -30t-184 -40t-179 -12t-133 52z" />
<glyph unicode="&#x2013;" horiz-adv-x="1266" d="M88 510q-4 2 -15 13t-13 15q2 8 49 20t123 25t172 25t198 22t200 14t177 2t130 -14t59 -36q4 -6 4 -28t-4 -30q-70 -6 -191 -13t-251 -15t-251 -16t-191 -12q-62 -4 -102 -2t-94 30z" />
<glyph unicode="&#x2014;" horiz-adv-x="1706" d="M108 520q-4 2 -15 13t-13 15q2 8 64 21t164 28t231 30t264 27t266 19t235 6t170 -12t74 -35q4 -6 4 -27t-4 -29q-46 -4 -143 -10t-220 -15t-258 -18t-258 -17t-220 -15t-143 -9q-62 -4 -103 -2t-95 30z" />
<glyph unicode="&#x2018;" horiz-adv-x="422" d="M112 1216q0 2 7 23l16 48l18 54t15 43q28 74 47 91t30 -4t14 -72t-1 -111t-16 -122t-30 -105t-43 -59t-57 16q-2 10 -3 38t-1 60t1 60t3 40z" />
<glyph unicode="&#x2019;" horiz-adv-x="450" d="M148 1216q0 2 6 23t15 48l18 54t15 43q28 74 47 91t31 -4t15 -72t-1 -111t-16 -122t-30 -105t-43 -59t-57 16q-2 10 -3 38t-1 60t1 60t3 40z" />
<glyph unicode="&#x201a;" horiz-adv-x="312" d="M92 -134q-6 54 -5 98t8 85t21 85t32 100q28 74 47 91t30 -5t14 -72t-1 -111t-16 -123t-30 -105t-43 -59t-57 16z" />
<glyph unicode="&#x201c;" horiz-adv-x="686" d="M432 1022q-6 10 -17 31t-11 25v424q48 24 74 -1t36 -77t8 -122t-12 -134t-24 -113t-26 -61q-4 2 -15 13t-13 15zM150 1078q-12 34 -19 87t-10 109t-3 109t2 89q0 42 18 32t39 -41t39 -65t18 -38q2 -32 3 -84t1 -102t-1 -86t-3 -38l-30 -28q-10 4 -30 25t-24 31z" />
<glyph unicode="&#x201d;" horiz-adv-x="692" d="M456 1022q-6 10 -17 31t-11 25v424q48 24 74 -1t36 -77t8 -122t-12 -134t-23 -113t-25 -61q-4 2 -16 13t-14 15zM174 1078q-12 34 -18 87t-9 109t-3 109t2 89q0 28 8 32t21 -8t27 -34t27 -44t21 -39t8 -19q2 -32 3 -84t1 -102t-1 -86t-3 -38l-28 -28q-4 2 -13 9t-18 16 t-16 17t-9 14z" />
<glyph unicode="&#x201e;" horiz-adv-x="550" d="M398 -240q-6 10 -18 31t-12 25v424q48 24 75 -1t37 -77t8 -122t-12 -134t-24 -113t-26 -61q-4 2 -15 13t-13 15zM114 -184q-12 34 -18 87t-9 109t-3 109t2 89q0 28 8 32t21 -8t27 -34t27 -44t21 -39t8 -19q2 -32 3 -84t1 -101t-1 -85t-3 -38l-28 -30q-10 4 -31 25t-25 31 z" />
<glyph unicode="&#x2020;" horiz-adv-x="1344" d="M146 1014q-30 30 -1 57t97 51t165 43t205 29q4 88 6 157t4 89q0 4 3 30t10 60t17 68t23 55t28 20t33 -35q4 -110 3 -217t-3 -217q110 6 212 3t176 -18t110 -45t14 -74q-26 0 -90 -4t-137 -9t-137 -9t-90 -6q-14 -2 -30 -4t-32 -6q-10 -252 -20 -502t-6 -502 q-16 -34 -40 -30t-44 30q-4 6 -15 28t-13 28q0 32 -1 113t-1 171t1 170t1 112q0 12 1 46t2 82t3 106t4 120q-64 -16 -130 -29t-128 -16t-114 9t-86 46z" />
<glyph unicode="&#x2021;" horiz-adv-x="1244" d="M276 1058q-8 42 16 64t71 29t111 1t136 -20q4 108 15 193t13 109q0 6 6 35t20 51t33 21t47 -53q12 -50 18 -86t9 -74t1 -85t-4 -121q206 28 286 -7t40 -113q-6 -8 -36 -14t-75 -9t-102 -4t-119 -1q-4 -32 -5 -64t-5 -64h16q20 0 68 1t100 1t99 -1t69 -1q0 -56 -17 -83 t-44 -36t-63 -4t-76 14t-81 17t-79 6q-12 -132 -19 -256t-8 -223t2 -167t9 -86q0 -4 -20 -4t-45 3t-47 6t-22 7q0 22 -1 69t-1 108v129v128t1 107t1 69v37t2 67q-74 -2 -136 -19t-107 -25t-70 6t-25 76q0 26 30 39t79 18t110 4t123 -3q0 32 1 65t3 69q-62 4 -118 10t-101 15 t-74 21t-35 28z" />
<glyph unicode="&#x2022;" horiz-adv-x="804" d="M238 588q-48 66 -47 135t33 125t86 94t113 46t113 -22t88 -110q20 -48 9 -100t-44 -97t-80 -79t-96 -48t-96 -2t-79 58z" />
<glyph unicode="&#x2026;" horiz-adv-x="1100" d="M86 28q-24 36 -23 72t17 66t43 50t57 24t58 -12t44 -58q16 -38 -4 -79t-54 -67t-74 -29t-64 33zM452 28q-36 54 -19 106t57 82t87 24t73 -70q14 -38 -5 -79t-54 -67t-75 -29t-64 33zM820 28q-36 54 -20 106t56 82t87 24t73 -70q14 -38 -5 -79t-54 -67t-74 -29t-63 33z " />
<glyph unicode="&#x202f;" horiz-adv-x="479" />
<glyph unicode="&#x2039;" horiz-adv-x="1160" d="M990 28q-202 132 -407 268t-385 298q-40 36 -81 72t-65 74t-20 78t54 86q22 20 68 62t105 95t123 111t123 111t105 95t68 62q12 4 35 0t41 -16t24 -29t-14 -39l-536 -536q-18 -18 -8 -44t36 -57t62 -62t70 -56t61 -43l33 -22q22 -16 68 -47t104 -70t123 -82t123 -82 t105 -69t69 -44q26 -32 30 -63t-8 -51t-40 -22t-66 22z" />
<glyph unicode="&#x203a;" horiz-adv-x="862" d="M98 58q-24 48 10 108t99 127t146 139t148 144t108 141t25 131q-2 6 -46 42t-109 88t-139 113t-136 119t-101 104t-33 70q0 6 7 15t16 18t18 16t15 7q54 -42 136 -94t170 -114t168 -131t128 -143t51 -152t-61 -156q-20 -26 -58 -71t-84 -100t-95 -114t-92 -110t-76 -90 t-45 -53l-22 -22l-34 -34t-35 -34t-23 -22q-4 2 -12 10l-17 17t-17 18t-10 13z" />
<glyph unicode="&#x2044;" horiz-adv-x="776" d="M58 28q-16 96 8 229t73 284t117 311t139 311t138 281t117 224q26 18 45 8t29 -32t13 -49t-1 -41l-30 -66t-45 -100t-53 -117t-53 -117t-45 -100t-28 -64q-12 -24 -37 -85t-52 -129t-50 -128t-31 -82q-12 -34 -30 -106t-39 -153t-47 -158t-54 -121q-6 -8 -18 -17t-26 -12 t-25 2t-15 27z" />
<glyph unicode="&#x205f;" horiz-adv-x="599" />
<glyph unicode="&#x20ac;" horiz-adv-x="1770" d="M456 28q-122 48 -180 134t-67 197t26 243t100 272t154 285t189 282t204 262t200 226t176 172t132 103q90 54 162 60t127 -20t94 -76t63 -108t35 -115t9 -99t-15 -60t-35 4q-4 30 -29 82t-61 104t-77 93t-75 49q-72 18 -167 -31t-201 -144t-218 -228t-216 -286t-195 -314 t-157 -314t-99 -286t-22 -228t73 -144t186 -31q140 20 264 49t240 65t230 80t238 94q46 16 73 -14t13 -72t-90 -87t-186 -85t-241 -72t-257 -49t-233 -17t-167 24zM52 724q-16 22 19 41t95 35t136 28t143 20t116 13t55 5q20 0 73 1t111 1t110 -1t74 -1q14 -8 25 -23t3 -35 q-94 -12 -215 -31t-241 -40t-225 -40t-167 -29q-22 -4 -37 -3t-27 7t-23 18t-25 34zM192 1288q16 30 72 55t134 40t166 21t168 -2t140 -29t82 -57q-10 -12 -68 -24t-139 -23t-175 -18t-175 -6t-138 10t-67 33z" />
<glyph unicode="&#x2122;" horiz-adv-x="3928" d="M2984 -116q-2 2 -2 14t2 16l10 30t17 53t18 54t11 31q48 154 92 284t85 248t80 229t78 229t77 250t78 290q2 8 2 29t-2 27q-74 24 -164 -20t-188 -135t-201 -215t-203 -258t-194 -266t-173 -239t-139 -175t-94 -76q-10 -2 -25 0t-28 7t-23 11t-10 12v170q6 28 20 88 t31 135t35 158t35 158t30 134t19 89q12 58 25 112t3 114q-106 -38 -205 -124t-189 -198t-170 -242t-149 -256t-128 -240t-105 -195t-80 -120t-54 -15q-42 12 -29 87t60 187t120 249t153 275t156 264t130 216q-62 8 -114 21t-108 23t-121 12t-151 -16q-76 -16 -148 -87 t-139 -175t-128 -232t-116 -258t-102 -251t-85 -213t-68 -143t-50 -41q-6 4 -16 14t-12 14q-16 62 1 143t47 164t65 159t57 126q12 28 39 86t60 131t69 153t70 152t60 129t40 85q-42 8 -121 -8t-174 -39t-196 -48t-186 -37t-147 -4t-78 52q16 34 108 67t230 65t310 60 t349 51t346 40t301 25t215 7t87 -15q4 -10 11 -37t15 -57q40 20 76 50t82 58q90 54 143 47t77 -56t25 -130t-12 -175t-35 -193t-42 -182t-33 -142t-11 -75q22 -10 34 3t22 25q8 12 37 47t66 81t80 99t81 99t66 81t38 47q10 10 47 48t82 83t89 87t66 64q192 180 320 275 t204 121t107 -9t31 -111t-27 -187t-67 -239t-87 -264t-87 -264q-12 -34 -37 -115t-53 -171t-53 -170t-35 -114q0 -2 -6 -32t-16 -71t-26 -88t-38 -84t-50 -57t-62 -8q-4 2 -15 12t-13 16z" />
<glyph unicode="&#x25fc;" horiz-adv-x="1040" d="M0 1040h1040v-1040h-1040v1040z" />
<glyph unicode="&#xfb01;" horiz-adv-x="1344" d="M100 58q-4 6 -4 27t4 27l210 482h-238q-6 0 -12 10t-11 24t-7 28t2 22q8 2 28 10t42 17t42 18t28 13q8 2 42 14t73 25t72 26t39 19q28 20 70 99t94 189t115 236t135 242t152 207t167 130t179 12t190 -147q18 -24 26 -53t2 -59q-22 -14 -45 -6t-42 25t-33 36t-20 29 q-112 18 -192 5t-138 -50t-99 -94t-76 -126t-69 -149t-76 -160q-16 -30 -41 -77t-47 -92t-38 -78t-16 -35v-28q0 -6 29 -11t75 -10t100 -11t104 -17t89 -27t55 -38l-28 -26q-142 8 -240 6t-170 -33t-127 -98t-113 -187q-20 -42 -53 -108t-64 -129t-55 -110t-26 -49l-28 -28 q-4 2 -13 10t-18 17t-16 18t-9 13zM702 -52q102 328 186 522t139 272t76 51t-3 -140t-100 -301t-214 -432q-20 -8 -47 -3t-37 31zM1140 1150q-2 6 -3 18t-1 26t1 26t3 16q58 20 88 5t37 -44t-2 -62t-29 -49t-45 -5t-49 69z" />
<glyph unicode="&#xfb02;" horiz-adv-x="1622" d="M100 58q-4 6 -4 27t4 27l210 482h-238q-6 0 -12 10t-11 24t-7 28t2 22q8 2 28 10t42 17t42 18t28 13q8 2 42 14t73 25t72 26t39 19q28 20 70 99t94 189t115 236t135 242t152 207t167 130t179 12t190 -147q18 -24 26 -53t2 -59q-22 -14 -45 -6t-42 25t-33 36t-20 29 q-112 18 -192 5t-138 -50t-99 -94t-76 -126t-69 -149t-76 -160q-16 -30 -41 -77t-47 -92t-38 -78t-16 -35v-28q0 -6 29 -11t75 -10t100 -11t104 -17t89 -27t55 -38l-28 -26q-142 8 -240 6t-170 -33t-127 -98t-113 -187q-20 -42 -53 -108t-64 -129t-55 -110t-26 -49l-28 -28 q-4 2 -13 10t-18 17t-16 18t-9 13zM984 22q-74 52 -94 132t-6 174t54 194t86 193t90 170t68 127q4 10 19 40t36 70t43 86t43 87t36 72t19 41q6 12 20 48t32 79t39 82t44 57t47 5t46 -75q-10 -26 -48 -100t-91 -179t-116 -232t-124 -258t-113 -255t-85 -225t-40 -168t23 -81 q36 -18 91 -14t116 15t119 21t98 8q10 -22 -15 -43t-70 -37t-103 -27t-112 -16t-96 -3t-56 12z" />
</font>
</defs>
</svg>
